<svg width="223" height="51" viewBox="0 0 223 51" fill="none" xmlns="http://www.w3.org/2000/svg">
<g clip-path="url(#clip0)">
<path d="M165.167 14.0556C162.417 14.0556 159.778 15.1944 157.861 17.1944V6.61111C157.861 6.27778 157.583 6 157.25 6H153.528C153.195 6 152.917 6.27778 152.917 6.61111V35.2222C152.917 35.5555 153.195 35.8333 153.528 35.8333H157.25C157.583 35.8333 157.861 35.5555 157.861 35.2222V33.25C159.778 35.25 162.389 36.3889 165.167 36.3889C170.972 36.3889 175.667 31.3889 175.667 25.2222C175.667 19.0556 170.972 14.0556 165.167 14.0556ZM164.306 31.9167C160.778 31.9167 157.917 28.9722 157.889 25.3056V25.1389C157.945 21.4722 160.778 18.5278 164.306 18.5278C167.861 18.5278 170.722 21.5278 170.722 25.2222C170.722 28.9167 167.833 31.9167 164.306 31.9167Z" fill="#4264FB"/>
<path d="M189.361 14.0547C183.083 14.0547 178 19.0547 178 25.2213C178 31.388 183.083 36.388 189.361 36.388C195.639 36.388 200.722 31.388 200.722 25.2213C200.722 19.0547 195.639 14.0547 189.361 14.0547ZM189.333 31.9158C185.778 31.9158 182.917 28.9158 182.917 25.2213C182.917 21.5269 185.806 18.5269 189.333 18.5269C192.861 18.5269 195.75 21.5269 195.75 25.2213C195.75 28.9158 192.861 31.9158 189.333 31.9158Z" fill="#4264FB"/>
<path d="M119.889 14.6102H116.167C115.833 14.6102 115.556 14.888 115.556 15.2214V17.1936C113.639 15.1936 111.028 14.0547 108.25 14.0547C102.444 14.0547 97.75 19.0547 97.75 25.2213C97.75 31.388 102.444 36.388 108.25 36.388C111 36.388 113.639 35.2491 115.556 33.2491V35.2213C115.556 35.5547 115.833 35.8325 116.167 35.8325H119.889C120.222 35.8325 120.5 35.5547 120.5 35.2213V15.2214C120.5 14.888 120.222 14.6102 119.889 14.6102ZM109.111 31.9158C105.556 31.9158 102.694 28.9158 102.694 25.2213C102.694 21.5269 105.583 18.5269 109.111 18.5269C112.639 18.5269 115.5 21.4713 115.528 25.138V25.3047C115.5 28.9713 112.639 31.9158 109.111 31.9158Z" fill="#4264FB"/>
<path d="M138.472 14.0547C135.722 14.0547 133.084 15.1936 131.167 17.1936V15.2214C131.167 14.888 130.889 14.6102 130.556 14.6102H126.834C126.5 14.6102 126.222 14.888 126.222 15.2214V43.8325C126.222 44.1658 126.5 44.4436 126.834 44.4436H130.556C130.889 44.4436 131.167 44.1658 131.167 43.8325V33.2491C133.084 35.2491 135.695 36.388 138.472 36.388C144.278 36.388 148.972 31.388 148.972 25.2214C148.972 19.0547 144.278 14.0547 138.472 14.0547ZM137.611 31.9158C134.084 31.9158 131.222 28.9714 131.195 25.3047V25.138C131.25 21.4714 134.084 18.5269 137.611 18.5269C141.167 18.5269 144.028 21.5269 144.028 25.2214C144.028 28.9158 141.167 31.9158 137.611 31.9158Z" fill="#4264FB"/>
<path d="M86.6112 14.055C83.8334 14.0828 81.3057 15.6939 80.1112 18.2217C78.7501 15.6384 76.0279 14.0273 73.1112 14.055C70.8334 14.055 68.6945 15.1662 67.3612 16.9995V15.2217C67.3612 14.8884 67.0834 14.6106 66.7501 14.6106H63.0279C62.6945 14.6106 62.4167 14.8884 62.4167 15.2217V35.2217C62.4167 35.555 62.6945 35.8328 63.0279 35.8328H66.7501C67.0834 35.8328 67.3612 35.555 67.3612 35.2217V23.2495C67.5001 20.5828 69.3612 18.4439 71.639 18.4439C74.0001 18.4439 75.9723 20.4162 75.9723 22.9995V35.2217C75.9723 35.555 76.2501 35.8328 76.5834 35.8328H80.3334C80.6668 35.8328 80.9445 35.555 80.9445 35.2217L80.9168 22.7773C81.2501 20.3328 83.0001 18.4439 85.139 18.4439C87.5001 18.4439 89.4723 20.4162 89.4723 22.9995V35.2217C89.4723 35.555 89.7501 35.8328 90.0834 35.8328H93.8334C94.1668 35.8328 94.4446 35.555 94.4446 35.2217L94.4168 21.4717C94.4168 17.3606 90.9168 14.055 86.6112 14.055Z" fill="#4264FB"/>
<path d="M220.75 34.9729L214.306 25.1673L220.695 15.4451C220.861 15.1951 220.778 14.834 220.528 14.6673C220.445 14.6118 220.334 14.584 220.222 14.584H215.917C215.584 14.584 215.278 14.7507 215.111 15.0284L211.361 21.334L207.611 15.0562C207.445 14.7784 207.139 14.6118 206.806 14.6118H202.5C202.195 14.6118 201.945 14.8618 201.945 15.1673C201.945 15.2784 201.972 15.3895 202.028 15.4729L208.417 25.1951L201.972 35.0007C201.806 35.2507 201.889 35.6118 202.139 35.7784C202.222 35.834 202.334 35.8618 202.445 35.8618H206.75C207.084 35.8618 207.389 35.6951 207.556 35.4173L211.389 29.0284L215.222 35.4173C215.389 35.6951 215.695 35.8618 216.028 35.8618H220.278C220.584 35.8618 220.834 35.6118 220.834 35.3062C220.834 35.1951 220.806 35.084 220.75 34.9729Z" fill="#4264FB"/>
<path d="M26.0834 0.527344C12.4445 0.527344 1.38892 11.5829 1.38892 25.2218C1.38892 38.8607 12.4445 49.9162 26.0834 49.9162C39.7222 49.9162 50.7778 38.8607 50.7778 25.2218C50.7778 11.5829 39.7222 0.527344 26.0834 0.527344ZM37.8056 31.2773C29.3611 39.7218 14.2778 37.0273 14.2778 37.0273C14.2778 37.0273 11.5556 21.9718 20.0278 13.4996C24.7222 8.80512 32.5 8.99957 37.4167 13.8885C42.3334 18.7773 42.5 26.5829 37.8056 31.2773Z" fill="#4264FB"/>
<path d="M28.9167 15L26.5001 19.9722L21.5278 22.3889L26.5001 24.8056L28.9167 29.7778L31.3334 24.8056L36.3056 22.3889L31.3334 19.9722L28.9167 15Z" fill="#4264FB"/>
</g>
<defs>
<clipPath id="clip0">
<rect width="222.222" height="50" fill="white" transform="translate(0 0.222656)"/>
</clipPath>
</defs>
</svg>
