<svg width="275" height="70" viewBox="0 0 275 70" fill="none" xmlns="http://www.w3.org/2000/svg">
<g clip-path="url(#clip0)">
<rect width="20" height="10" rx="5" transform="matrix(-1 0 0 1 80 60)" fill="#8AC826"/>
<rect width="20" height="10" rx="5" fill="#140579"/>
<rect x="25" width="20" height="10" rx="5" fill="#FFC93A"/>
<rect x="50" width="30" height="10" rx="5" fill="#8AC826"/>
<rect width="25" height="10" rx="5" transform="matrix(-1 0 0 1 80 20)" fill="#8AC826"/>
<rect width="20" height="10" rx="5" transform="matrix(-1 0 0 1 50 20)" fill="#FFC93A"/>
<rect width="25" height="10" rx="5" transform="matrix(-1 0 0 1 25 20)" fill="#140579"/>
<rect width="35" height="10" rx="5" transform="matrix(-1 0 0 1 80 40)" fill="#8AC826"/>
<rect width="25" height="10" rx="5" transform="matrix(-1 0 0 1 40 40)" fill="#FFC93A"/>
<rect width="10" height="10" rx="5" transform="matrix(-1 0 0 1 10 40)" fill="#140579"/>
<path d="M109.025 20.3C107.925 20.3 106.925 20.125 106.025 19.775C105.142 19.425 104.408 18.9583 103.825 18.375C103.242 17.775 102.75 17.0833 102.35 16.3C101.967 15.5167 101.683 14.7083 101.5 13.875C101.333 13.025 101.25 12.15 101.25 11.25C101.25 10.35 101.333 9.48333 101.5 8.65C101.683 7.8 101.967 6.98333 102.35 6.2C102.75 5.41666 103.242 4.73333 103.825 4.15C104.408 3.55 105.142 3.075 106.025 2.725C106.925 2.375 107.925 2.2 109.025 2.2C110.375 2.2 111.567 2.46666 112.6 3C113.633 3.51666 114.442 4.225 115.025 5.125C115.608 6.00833 116.042 6.96666 116.325 8C116.625 9.03333 116.775 10.1167 116.775 11.25C116.775 12.3833 116.625 13.4667 116.325 14.5C116.042 15.5333 115.608 16.5 115.025 17.4C114.442 18.2833 113.633 18.9917 112.6 19.525C111.567 20.0417 110.375 20.3 109.025 20.3ZM109.025 16.625C109.892 16.625 110.625 16.3333 111.225 15.75C111.825 15.15 112.242 14.4667 112.475 13.7C112.708 12.9167 112.825 12.1 112.825 11.25C112.825 10.35 112.717 9.51666 112.5 8.75C112.283 7.96666 111.875 7.29166 111.275 6.725C110.675 6.14166 109.925 5.85 109.025 5.85C108.125 5.85 107.367 6.15 106.75 6.75C106.15 7.33333 105.742 8.01666 105.525 8.8C105.308 9.56666 105.2 10.3833 105.2 11.25C105.2 11.9 105.267 12.525 105.4 13.125C105.533 13.725 105.742 14.3 106.025 14.85C106.308 15.3833 106.708 15.8167 107.225 16.15C107.742 16.4667 108.342 16.625 109.025 16.625Z" fill="#0A1D43"/>
<path d="M126.268 20.3C125.168 20.3 124.326 19.925 123.743 19.175V23.35L120.118 24.975V7.225H123.743V8.1C124.31 7.31666 125.168 6.925 126.318 6.925C127.918 6.925 129.193 7.50833 130.143 8.675C131.11 9.825 131.593 11.475 131.593 13.625C131.593 15.675 131.093 17.3 130.093 18.5C129.093 19.7 127.818 20.3 126.268 20.3ZM125.693 16.8C126.41 16.8 126.968 16.525 127.368 15.975C127.768 15.4083 127.968 14.625 127.968 13.625C127.968 11.4917 127.21 10.425 125.693 10.425C124.876 10.425 124.226 10.6833 123.743 11.2V15.975C123.843 16.1917 124.068 16.3833 124.418 16.55C124.768 16.7167 125.193 16.8 125.693 16.8Z" fill="#0A1D43"/>
<path d="M140.418 20.3C138.534 20.3 137.051 19.7083 135.968 18.525C134.884 17.3417 134.343 15.7 134.343 13.6C134.343 11.55 134.884 9.925 135.968 8.725C137.068 7.525 138.551 6.925 140.418 6.925C142.118 6.925 143.501 7.44166 144.568 8.475C145.634 9.50833 146.168 11.0083 146.168 12.975C146.168 13.7917 146.134 14.4167 146.068 14.85H137.893C137.926 15.65 138.176 16.25 138.643 16.65C139.109 17.0333 139.701 17.225 140.418 17.225C141.584 17.225 142.543 16.775 143.293 15.875L145.393 17.975C144.109 19.525 142.451 20.3 140.418 20.3ZM137.918 12.125H142.693C142.509 10.7083 141.701 10 140.268 10C139.618 10 139.084 10.1917 138.668 10.575C138.251 10.9417 138.001 11.4583 137.918 12.125Z" fill="#0A1D43"/>
<path d="M157.327 20V13.35C157.327 12.3167 157.168 11.575 156.852 11.125C156.552 10.6583 156.035 10.425 155.302 10.425C154.518 10.425 153.943 10.6583 153.577 11.125C153.227 11.5917 153.052 12.3167 153.052 13.3V20H149.427V7.225H153.052V8.4C153.868 7.41666 155.027 6.925 156.527 6.925C157.71 6.925 158.743 7.3 159.627 8.05C160.51 8.8 160.952 10.0167 160.952 11.7V20H157.327Z" fill="#0A1D43"/>
<path d="M101.875 50V32.5H109.625C111.708 32.5 113.242 33.0417 114.225 34.125C115.225 35.2083 115.725 36.5417 115.725 38.125C115.725 38.8083 115.608 39.475 115.375 40.125C115.142 40.7583 114.792 41.35 114.325 41.9C113.858 42.45 113.217 42.8917 112.4 43.225C111.583 43.5583 110.658 43.725 109.625 43.725H105.675V50H101.875ZM109.775 40.15C110.442 40.15 110.942 39.95 111.275 39.55C111.608 39.15 111.775 38.675 111.775 38.125C111.775 37.5917 111.617 37.125 111.3 36.725C110.983 36.3083 110.475 36.1 109.775 36.1H105.675V40.15H109.775Z" fill="#0A1D43"/>
<path d="M118.314 50V33.65L121.939 31.95V50H118.314Z" fill="#0A1D43"/>
<path d="M133.282 50V49.05C132.515 49.8833 131.457 50.3 130.107 50.3C128.69 50.3 127.532 49.9417 126.632 49.225C125.748 48.4917 125.307 47.45 125.307 46.1C125.307 44.7833 125.823 43.775 126.857 43.075C127.89 42.3583 129.098 42 130.482 42C131.682 42 132.615 42.15 133.282 42.45V41.75C133.282 41.1667 133.098 40.725 132.732 40.425C132.365 40.1083 131.857 39.95 131.207 39.95C129.823 39.95 128.457 40.4 127.107 41.3L125.982 38.525C127.548 37.4583 129.373 36.925 131.457 36.925C135.073 36.925 136.882 38.5917 136.882 41.925V50H133.282ZM130.807 47.25C131.707 47.25 132.532 46.95 133.282 46.35V45.2C132.615 45 131.89 44.9 131.107 44.9C129.607 44.9 128.857 45.3083 128.857 46.125C128.857 46.875 129.507 47.25 130.807 47.25Z" fill="#0A1D43"/>
<path d="M145.988 50.3C144.171 50.3 142.721 49.7083 141.638 48.525C140.554 47.3417 140.013 45.7083 140.013 43.625C140.013 41.575 140.554 39.95 141.638 38.75C142.738 37.5333 144.188 36.925 145.988 36.925C148.888 36.925 150.754 38.2583 151.588 40.925L148.138 42.05C147.721 40.95 147.021 40.4 146.038 40.4C145.354 40.4 144.788 40.7 144.338 41.3C143.904 41.9 143.688 42.675 143.688 43.625C143.688 44.575 143.904 45.35 144.338 45.95C144.771 46.5333 145.321 46.825 145.988 46.825C147.038 46.825 147.754 46.2083 148.138 44.975L151.613 45.975C150.763 48.8583 148.888 50.3 145.988 50.3Z" fill="#0A1D43"/>
<path d="M160.254 50.3C158.37 50.3 156.887 49.7083 155.804 48.525C154.72 47.3417 154.179 45.7 154.179 43.6C154.179 41.55 154.72 39.925 155.804 38.725C156.904 37.525 158.387 36.925 160.254 36.925C161.954 36.925 163.337 37.4417 164.404 38.475C165.47 39.5083 166.004 41.0083 166.004 42.975C166.004 43.7917 165.97 44.4167 165.904 44.85H157.729C157.762 45.65 158.012 46.25 158.479 46.65C158.945 47.0333 159.537 47.225 160.254 47.225C161.42 47.225 162.379 46.775 163.129 45.875L165.229 47.975C163.945 49.525 162.287 50.3 160.254 50.3ZM157.754 42.125H162.529C162.345 40.7083 161.537 40 160.104 40C159.454 40 158.92 40.1917 158.504 40.575C158.087 40.9417 157.837 41.4583 157.754 42.125Z" fill="#0A1D43"/>
<path d="M175.958 50V32.5H184.483C186.583 32.5 188.1 33.025 189.033 34.075C189.983 35.125 190.458 36.4833 190.458 38.15C190.458 39.1833 190.175 40.1917 189.608 41.175C189.041 42.1583 188.266 42.85 187.283 43.25L190.558 50H186.308L183.133 43.825H179.758V50H175.958ZM179.758 40.225H184.533C185.85 40.225 186.508 39.5333 186.508 38.15C186.508 37.5667 186.35 37.0833 186.033 36.7C185.733 36.3 185.233 36.1 184.533 36.1H179.758V40.225Z" fill="#0A1D43"/>
<path d="M198.382 50.3C196.498 50.3 195.015 49.7083 193.932 48.525C192.848 47.3417 192.307 45.7 192.307 43.6C192.307 41.55 192.848 39.925 193.932 38.725C195.032 37.525 196.515 36.925 198.382 36.925C200.082 36.925 201.465 37.4417 202.532 38.475C203.598 39.5083 204.132 41.0083 204.132 42.975C204.132 43.7917 204.098 44.4167 204.032 44.85H195.857C195.89 45.65 196.14 46.25 196.607 46.65C197.073 47.0333 197.665 47.225 198.382 47.225C199.548 47.225 200.507 46.775 201.257 45.875L203.357 47.975C202.073 49.525 200.415 50.3 198.382 50.3ZM195.882 42.125H200.657C200.473 40.7083 199.665 40 198.232 40C197.582 40 197.048 40.1917 196.632 40.575C196.215 40.9417 195.965 41.4583 195.882 42.125Z" fill="#0A1D43"/>
<path d="M210.425 50L205.75 37.225H209.525L212.05 44.35C212.15 44.6 212.267 45 212.4 45.55C212.533 45 212.65 44.6 212.75 44.35L215.25 37.225H219.025L214.35 50H210.425Z" fill="#0A1D43"/>
<path d="M223.626 36C223.06 36 222.568 35.8 222.151 35.4C221.735 34.9833 221.526 34.4917 221.526 33.925C221.526 33.3583 221.726 32.875 222.126 32.475C222.543 32.075 223.043 31.875 223.626 31.875C224.21 31.875 224.701 32.075 225.101 32.475C225.501 32.8583 225.701 33.3417 225.701 33.925C225.701 34.4917 225.501 34.9833 225.101 35.4C224.701 35.8 224.21 36 223.626 36ZM221.801 50V37.225H225.426V50H221.801Z" fill="#0A1D43"/>
<path d="M234.898 50.3C233.015 50.3 231.532 49.7083 230.448 48.525C229.365 47.3417 228.823 45.7 228.823 43.6C228.823 41.55 229.365 39.925 230.448 38.725C231.548 37.525 233.032 36.925 234.898 36.925C236.598 36.925 237.982 37.4417 239.048 38.475C240.115 39.5083 240.648 41.0083 240.648 42.975C240.648 43.7917 240.615 44.4167 240.548 44.85H232.373C232.407 45.65 232.657 46.25 233.123 46.65C233.59 47.0333 234.182 47.225 234.898 47.225C236.065 47.225 237.023 46.775 237.773 45.875L239.873 47.975C238.59 49.525 236.932 50.3 234.898 50.3ZM232.398 42.125H237.173C236.99 40.7083 236.182 40 234.748 40C234.098 40 233.565 40.1917 233.148 40.575C232.732 40.9417 232.482 41.4583 232.398 42.125Z" fill="#0A1D43"/>
<path d="M246.509 50L242.834 37.225H246.409L247.734 42.475C247.767 42.6083 247.826 42.9083 247.909 43.375C247.992 43.8417 248.059 44.1667 248.109 44.35C248.142 44.2333 248.209 43.9333 248.309 43.45C248.409 42.9667 248.484 42.6417 248.534 42.475L249.884 37.225H253.134L254.459 42.475C254.492 42.6083 254.559 42.9083 254.659 43.375C254.759 43.8417 254.834 44.1667 254.884 44.35C254.917 44.2 254.967 43.8917 255.034 43.425C255.117 42.9417 255.184 42.625 255.234 42.475L256.634 37.225H260.209L256.509 50H253.309L251.959 44.2C251.959 44.15 251.892 43.8583 251.759 43.325C251.642 42.7917 251.567 42.3917 251.534 42.125C251.501 42.325 251.451 42.575 251.384 42.875C251.317 43.1583 251.251 43.4333 251.184 43.7C251.117 43.9667 251.076 44.1333 251.059 44.2L249.709 50H246.509Z" fill="#0A1D43"/>
<path d="M267.38 50.3C266.33 50.3 265.322 50.0833 264.355 49.65C263.388 49.2 262.647 48.6083 262.13 47.875L264.455 45.9C264.805 46.25 265.255 46.575 265.805 46.875C266.355 47.175 266.913 47.325 267.48 47.325C268.663 47.325 269.255 46.9917 269.255 46.325C269.255 46.025 269.097 45.7833 268.78 45.6C268.48 45.4 267.913 45.1417 267.08 44.825C265.497 44.2917 264.347 43.725 263.63 43.125C262.913 42.5083 262.555 41.65 262.555 40.55C262.555 39.4333 263.005 38.55 263.905 37.9C264.822 37.25 265.955 36.925 267.305 36.925C269.238 36.925 270.838 37.6333 272.105 39.05L269.755 40.975C268.972 40.2583 268.155 39.9 267.305 39.9C266.305 39.9 265.805 40.175 265.805 40.725C265.805 41.2417 266.638 41.7083 268.305 42.125C268.905 42.325 269.397 42.5167 269.78 42.7C270.18 42.8667 270.613 43.1167 271.08 43.45C271.547 43.7667 271.897 44.1667 272.13 44.65C272.38 45.1333 272.505 45.6917 272.505 46.325C272.505 47.575 272.038 48.55 271.105 49.25C270.188 49.95 268.947 50.3 267.38 50.3Z" fill="#0A1D43"/>
</g>
<defs>
<clipPath id="clip0">
<rect width="275" height="70" fill="white"/>
</clipPath>
</defs>
</svg>
