<svg width="183" height="52" viewBox="0 0 183 52" fill="none" xmlns="http://www.w3.org/2000/svg">
<path d="M6.00012 5H53.0001V42H47.6668H46.8343L46.2477 42.5907L40.3335 48.5463L34.4193 42.5907L33.8326 42H33.0001H4.00012C2.89555 42 2.00012 41.1046 2.00012 40V9C2.00012 6.79086 3.79098 5 6.00012 5Z" fill="#5BAB31" stroke="#0D2C54" stroke-width="4"/>
<path d="M0 36H11V40H0V36Z" fill="#5BAB31"/>
<path d="M0.00012207 36.2941V39.9706H3.67659C1.64613 39.9706 0.00012207 38.3246 0.00012207 36.2941Z" fill="#0D2C54"/>
<path d="M5.51483 0H11.0295V36H3.67659C1.64613 36 0.00012207 37.646 0.00012207 39.6765V5.5147C0.00012207 2.46902 2.46914 0 5.51483 0Z" fill="#FFC93A"/>
<path d="M74.149 19.5809C73.4211 19.5809 72.7593 19.4651 72.1637 19.2335C71.5792 19.0018 71.0939 18.693 70.7078 18.307C70.3218 17.9099 69.9964 17.4522 69.7317 16.9338C69.478 16.4154 69.2905 15.8805 69.1692 15.329C69.0589 14.7665 69.0038 14.1875 69.0038 13.5919C69.0038 12.9963 69.0589 12.4228 69.1692 11.8713C69.2905 11.3088 69.478 10.7684 69.7317 10.25C69.9964 9.73161 70.3218 9.27941 70.7078 8.89338C71.0939 8.49632 71.5792 8.18198 72.1637 7.95036C72.7593 7.71874 73.4211 7.60294 74.149 7.60294C75.0424 7.60294 75.831 7.77941 76.5148 8.13235C77.1986 8.47426 77.7336 8.94301 78.1196 9.5386C78.5056 10.1232 78.7924 10.7573 78.9799 11.4412C79.1784 12.125 79.2777 12.8419 79.2777 13.5919C79.2777 14.3419 79.1784 15.0588 78.9799 15.7426C78.7924 16.4265 78.5056 17.0662 78.1196 17.6618C77.7336 18.2463 77.1986 18.7151 76.5148 19.068C75.831 19.4099 75.0424 19.5809 74.149 19.5809ZM74.149 17.1489C74.7225 17.1489 75.2078 16.9559 75.6049 16.5698C76.0019 16.1728 76.2777 15.7206 76.4321 15.2132C76.5865 14.6948 76.6637 14.1544 76.6637 13.5919C76.6637 12.9963 76.592 12.4448 76.4486 11.9375C76.3053 11.4191 76.035 10.9724 75.638 10.5974C75.2409 10.2114 74.7446 10.0184 74.149 10.0184C73.5534 10.0184 73.0516 10.2169 72.6435 10.614C72.2464 11 71.9762 11.4522 71.8328 11.9706C71.6894 12.4779 71.6178 13.0184 71.6178 13.5919C71.6178 14.0221 71.6619 14.4357 71.7501 14.8327C71.8383 15.2298 71.9762 15.6103 72.1637 15.9743C72.3512 16.3272 72.6159 16.614 72.9578 16.8346C73.2997 17.0441 73.6968 17.1489 74.149 17.1489Z" fill="#0D2C54"/>
<path d="M85.5599 19.5809C84.832 19.5809 84.275 19.3327 83.889 18.8364V21.5993L81.4901 22.6746V10.9283H83.889V11.5073C84.264 10.989 84.832 10.7298 85.593 10.7298C86.6518 10.7298 87.4956 11.1158 88.1243 11.8879C88.764 12.6489 89.0838 13.7408 89.0838 15.1636C89.0838 16.5202 88.7529 17.5956 88.0912 18.3897C87.4294 19.1838 86.5857 19.5809 85.5599 19.5809ZM85.1794 17.2647C85.6537 17.2647 86.0232 17.0827 86.2879 16.7187C86.5526 16.3437 86.6849 15.8254 86.6849 15.1636C86.6849 13.7518 86.1831 13.046 85.1794 13.046C84.639 13.046 84.2088 13.2169 83.889 13.5588V16.7187C83.9552 16.8621 84.104 16.989 84.3357 17.0993C84.5673 17.2096 84.8485 17.2647 85.1794 17.2647Z" fill="#0D2C54"/>
<path d="M94.9236 19.5809C93.6773 19.5809 92.6957 19.1893 91.9788 18.4062C91.2619 17.6232 90.9034 16.5368 90.9034 15.1471C90.9034 13.7904 91.2619 12.7151 91.9788 11.921C92.7067 11.1268 93.6884 10.7298 94.9236 10.7298C96.0486 10.7298 96.9641 11.0717 97.67 11.7555C98.3759 12.4393 98.7288 13.432 98.7288 14.7335C98.7288 15.2739 98.7067 15.6875 98.6626 15.9743H93.2527C93.2747 16.5037 93.4402 16.9007 93.749 17.1654C94.0578 17.4191 94.4494 17.546 94.9236 17.546C95.6957 17.546 96.3299 17.2482 96.8262 16.6526L98.2159 18.0423C97.3667 19.068 96.2692 19.5809 94.9236 19.5809ZM93.2692 14.171H96.4292C96.3078 13.2335 95.7729 12.7647 94.8244 12.7647C94.3942 12.7647 94.0413 12.8915 93.7656 13.1452C93.4898 13.3879 93.3244 13.7298 93.2692 14.171Z" fill="#0D2C54"/>
<path d="M106.113 19.3823V14.9816C106.113 14.2978 106.009 13.807 105.799 13.5092C105.601 13.2004 105.259 13.046 104.773 13.046C104.255 13.046 103.874 13.2004 103.632 13.5092C103.4 13.818 103.284 14.2978 103.284 14.9485V19.3823H100.885V10.9283H103.284V11.7059C103.825 11.0551 104.591 10.7298 105.584 10.7298C106.367 10.7298 107.051 10.9779 107.635 11.4743C108.22 11.9706 108.512 12.7757 108.512 13.8897V19.3823H106.113Z" fill="#0D2C54"/>
<path d="M69.4174 37.7647V26.1838H74.5461C75.9247 26.1838 76.9394 26.5423 77.5902 27.2592C78.252 27.9761 78.5828 28.8585 78.5828 29.9062C78.5828 30.3585 78.5056 30.7996 78.3512 31.2298C78.1968 31.6489 77.9652 32.0404 77.6564 32.4044C77.3475 32.7684 76.9229 33.0607 76.3825 33.2812C75.842 33.5018 75.2299 33.6121 74.5461 33.6121H71.9321V37.7647H69.4174ZM74.6453 31.2463C75.0865 31.2463 75.4174 31.114 75.638 30.8493C75.8586 30.5846 75.9689 30.2702 75.9689 29.9062C75.9689 29.5533 75.8641 29.2445 75.6545 28.9798C75.445 28.704 75.1086 28.5662 74.6453 28.5662H71.9321V31.2463H74.6453Z" fill="#0D2C54"/>
<path d="M80.2964 37.7647V26.9449L82.6953 25.8198V37.7647H80.2964Z" fill="#0D2C54"/>
<path d="M90.2012 37.7647V37.136C89.6939 37.6875 88.9935 37.9632 88.1001 37.9632C87.1626 37.9632 86.3961 37.7261 85.8005 37.2518C85.2159 36.7665 84.9236 36.0772 84.9236 35.1838C84.9236 34.3125 85.2655 33.6452 85.9494 33.182C86.6332 32.7077 87.4328 32.4706 88.3483 32.4706C89.1424 32.4706 89.76 32.5698 90.2012 32.7684V32.3051C90.2012 31.9191 90.0799 31.6268 89.8372 31.4283C89.5946 31.2187 89.2582 31.114 88.828 31.114C87.9126 31.114 87.0082 31.4118 86.1148 32.0074L85.3703 30.171C86.4071 29.4651 87.6148 29.1121 88.9935 29.1121C91.3869 29.1121 92.5836 30.2151 92.5836 32.421V37.7647H90.2012ZM88.5633 35.9449C89.1589 35.9449 89.7049 35.7463 90.2012 35.3493V34.5882C89.76 34.4559 89.2802 34.3897 88.7619 34.3897C87.7692 34.3897 87.2729 34.6599 87.2729 35.2004C87.2729 35.6967 87.703 35.9449 88.5633 35.9449Z" fill="#0D2C54"/>
<path d="M98.6096 37.9632C97.4074 37.9632 96.4479 37.5717 95.7309 36.7886C95.014 36.0055 94.6556 34.9246 94.6556 33.546C94.6556 32.1893 95.014 31.114 95.7309 30.3199C96.4589 29.5147 97.4184 29.1121 98.6096 29.1121C100.529 29.1121 101.764 29.9945 102.316 31.7592L100.032 32.5037C99.7567 31.7757 99.2934 31.4118 98.6427 31.4118C98.1905 31.4118 97.8155 31.6103 97.5177 32.0074C97.2309 32.4044 97.0876 32.9173 97.0876 33.546C97.0876 34.1746 97.2309 34.6875 97.5177 35.0846C97.8045 35.4706 98.1684 35.6636 98.6096 35.6636C99.3045 35.6636 99.7787 35.2555 100.032 34.4393L102.332 35.1011C101.77 37.0092 100.529 37.9632 98.6096 37.9632Z" fill="#0D2C54"/>
<path d="M108.05 37.9632C106.804 37.9632 105.822 37.5717 105.106 36.7886C104.389 36.0055 104.03 34.9191 104.03 33.5294C104.03 32.1728 104.389 31.0974 105.106 30.3033C105.833 29.5092 106.815 29.1121 108.05 29.1121C109.175 29.1121 110.091 29.454 110.797 30.1379C111.503 30.8217 111.856 31.8143 111.856 33.1158C111.856 33.6562 111.833 34.0699 111.789 34.3566H106.379C106.401 34.886 106.567 35.2831 106.876 35.5478C107.185 35.8015 107.576 35.9283 108.05 35.9283C108.822 35.9283 109.457 35.6305 109.953 35.0349L111.343 36.4246C110.493 37.4504 109.396 37.9632 108.05 37.9632ZM106.396 32.5533H109.556C109.435 31.6158 108.9 31.1471 107.951 31.1471C107.521 31.1471 107.168 31.2739 106.892 31.5276C106.617 31.7702 106.451 32.1121 106.396 32.5533Z" fill="#0D2C54"/>
<path d="M118.443 37.7647V26.1838H124.084C125.474 26.1838 126.478 26.5312 127.096 27.2261C127.724 27.921 128.039 28.8199 128.039 29.9228C128.039 30.6066 127.851 31.2739 127.476 31.9246C127.101 32.5754 126.588 33.0331 125.937 33.2978L128.105 37.7647H125.292L123.191 33.6783H120.958V37.7647H118.443ZM120.958 31.296H124.118C124.989 31.296 125.425 30.8382 125.425 29.9228C125.425 29.5368 125.32 29.2169 125.11 28.9632C124.912 28.6985 124.581 28.5662 124.118 28.5662H120.958V31.296Z" fill="#0D2C54"/>
<path d="M133.282 37.9632C132.036 37.9632 131.054 37.5717 130.337 36.7886C129.62 36.0055 129.262 34.9191 129.262 33.5294C129.262 32.1728 129.62 31.0974 130.337 30.3033C131.065 29.5092 132.047 29.1121 133.282 29.1121C134.407 29.1121 135.323 29.454 136.028 30.1379C136.734 30.8217 137.087 31.8143 137.087 33.1158C137.087 33.6562 137.065 34.0699 137.021 34.3566H131.611C131.633 34.886 131.799 35.2831 132.107 35.5478C132.416 35.8015 132.808 35.9283 133.282 35.9283C134.054 35.9283 134.688 35.6305 135.185 35.0349L136.574 36.4246C135.725 37.4504 134.628 37.9632 133.282 37.9632ZM131.628 32.5533H134.788C134.666 31.6158 134.131 31.1471 133.183 31.1471C132.753 31.1471 132.4 31.2739 132.124 31.5276C131.848 31.7702 131.683 32.1121 131.628 32.5533Z" fill="#0D2C54"/>
<path d="M141.252 37.7647L138.158 29.3107H140.656L142.327 34.0257C142.394 34.1912 142.471 34.4559 142.559 34.8199C142.647 34.4559 142.724 34.1912 142.791 34.0257L144.445 29.3107H146.943L143.849 37.7647H141.252Z" fill="#0D2C54"/>
<path d="M149.988 28.5C149.613 28.5 149.288 28.3676 149.012 28.1029C148.736 27.8272 148.598 27.5018 148.598 27.1268C148.598 26.7518 148.731 26.432 148.996 26.1673C149.271 25.9026 149.602 25.7702 149.988 25.7702C150.374 25.7702 150.7 25.9026 150.964 26.1673C151.229 26.421 151.361 26.7408 151.361 27.1268C151.361 27.5018 151.229 27.8272 150.964 28.1029C150.7 28.3676 150.374 28.5 149.988 28.5ZM148.78 37.7647V29.3107H151.179V37.7647H148.78Z" fill="#0D2C54"/>
<path d="M157.448 37.9632C156.201 37.9632 155.22 37.5717 154.503 36.7886C153.786 36.0055 153.427 34.9191 153.427 33.5294C153.427 32.1728 153.786 31.0974 154.503 30.3033C155.231 29.5092 156.212 29.1121 157.448 29.1121C158.573 29.1121 159.488 29.454 160.194 30.1379C160.9 30.8217 161.253 31.8143 161.253 33.1158C161.253 33.6562 161.231 34.0699 161.186 34.3566H155.777C155.799 34.886 155.964 35.2831 156.273 35.5478C156.582 35.8015 156.973 35.9283 157.448 35.9283C158.22 35.9283 158.854 35.6305 159.35 35.0349L160.74 36.4246C159.891 37.4504 158.793 37.9632 157.448 37.9632ZM155.793 32.5533H158.953C158.832 31.6158 158.297 31.1471 157.348 31.1471C156.918 31.1471 156.565 31.2739 156.289 31.5276C156.014 31.7702 155.848 32.1121 155.793 32.5533Z" fill="#0D2C54"/>
<path d="M165.131 37.7647L162.699 29.3107H165.065L165.942 32.7849C165.964 32.8732 166.002 33.0717 166.058 33.3805C166.113 33.6893 166.157 33.9044 166.19 34.0257C166.212 33.9485 166.256 33.75 166.322 33.4301C166.388 33.1103 166.438 32.8952 166.471 32.7849L167.365 29.3107H169.515L170.392 32.7849C170.414 32.8732 170.458 33.0717 170.524 33.3805C170.591 33.6893 170.64 33.9044 170.673 34.0257C170.695 33.9265 170.729 33.7224 170.773 33.4136C170.828 33.0937 170.872 32.8842 170.905 32.7849L171.831 29.3107H174.197L171.749 37.7647H169.631L168.738 33.9265C168.738 33.8934 168.694 33.7004 168.605 33.3474C168.528 32.9945 168.479 32.7298 168.456 32.5533C168.434 32.6857 168.401 32.8511 168.357 33.0496C168.313 33.2371 168.269 33.4191 168.225 33.5956C168.181 33.7721 168.153 33.8824 168.142 33.9265L167.249 37.7647H165.131Z" fill="#0D2C54"/>
<path d="M178.943 37.9632C178.248 37.9632 177.581 37.8199 176.941 37.5331C176.301 37.2353 175.81 36.8438 175.468 36.3585L177.007 35.0515C177.239 35.2831 177.536 35.4982 177.9 35.6967C178.264 35.8952 178.634 35.9945 179.009 35.9945C179.792 35.9945 180.184 35.7739 180.184 35.3327C180.184 35.1342 180.079 34.9743 179.869 34.8529C179.671 34.7206 179.296 34.5496 178.744 34.3401C177.696 33.9871 176.935 33.6121 176.461 33.2151C175.987 32.807 175.75 32.239 175.75 31.511C175.75 30.7721 176.048 30.1875 176.643 29.7574C177.25 29.3272 178 29.1121 178.893 29.1121C180.173 29.1121 181.231 29.5809 182.07 30.5184L180.514 31.7923C179.996 31.318 179.456 31.0809 178.893 31.0809C178.231 31.0809 177.9 31.2629 177.9 31.6268C177.9 31.9687 178.452 32.2776 179.555 32.5533C179.952 32.6857 180.277 32.8125 180.531 32.9338C180.796 33.0441 181.082 33.2096 181.391 33.4301C181.7 33.6397 181.932 33.9044 182.086 34.2243C182.252 34.5441 182.334 34.9136 182.334 35.3327C182.334 36.1599 182.025 36.8051 181.408 37.2684C180.801 37.7316 179.979 37.9632 178.943 37.9632Z" fill="#0D2C54"/>
</svg>
