<svg width="18" height="18" viewBox="0 0 18 18" fill="none" xmlns="http://www.w3.org/2000/svg">
<g clip-path="url(#clip0_2294_5834)">
<path d="M17.0602 1.33691C17.0602 1.33691 15.9095 4.79764 12.3759 4.79764C8.40663 4.79764 8.21641 3.2822 5.54397 3.2822C3.0149 3.2822 1.44067 3.67563 1.44067 3.67563C1.44067 3.67563 3.2426 1.65749 5.54397 1.65749C7.84628 1.65749 9.83561 3.13042 12.3759 3.13042C15.4157 3.13042 17.0602 1.33691 17.0602 1.33691Z" fill="white"/>
<path d="M0.964844 5.73792C2.22052 5.73792 2.9184 7.07311 2.9184 7.07311C3.73176 6.54496 4.89026 5.73792 6.0128 5.73792C7.92913 5.73792 9.16777 7.5962 9.16777 7.5962C9.16777 7.5962 7.92913 9.45449 6.0128 9.45449C4.89026 9.45449 3.73176 8.65375 2.9184 8.12624C2.9184 8.12624 2.22241 9.45449 0.964844 9.45449C0.964844 9.45449 1.59584 8.43732 1.59584 7.5962C1.59584 6.75508 0.964844 5.73792 0.964844 5.73792V5.73792ZM6.95929 7.79875C7.24766 7.79875 7.48112 7.5697 7.48112 7.28575C7.48112 7.00306 7.24766 6.77338 6.95929 6.77338C6.67093 6.77338 6.43746 7.00243 6.43746 7.28575C6.43746 7.5697 6.67093 7.79875 6.95929 7.79875Z" fill="white"/>
<path d="M14.5015 5.21146C14.498 5.21232 14.4931 5.21519 14.4893 5.21834C13.2772 6.21496 12.4743 9.7073 12.0509 9.75376C8.76948 10.1138 6.01239 11.8264 4.97856 12.5462C4.68845 12.7605 4.76353 13.0032 4.99602 13.1387C5.25902 13.2879 5.62949 13.487 6.0912 13.7059C6.24782 13.7928 7.6578 13.4091 8.45797 13.7472C8.7274 13.8611 7.16878 14.2108 7.05712 14.1307C7.1538 14.279 9.34514 14.9786 10.7584 15.2123C10.7545 15.5632 12.565 18.3965 12.8125 17.8853C12.8467 17.8146 11.9328 15.3986 12.2588 15.4052C12.6352 15.435 13.0211 15.4512 13.4116 15.4512C15.078 15.4512 17.3292 15.0735 19.3399 14.59C19.3765 14.6641 20.2156 15.2629 20.4053 15.1182C20.516 15.0906 19.8809 14.4573 19.9896 14.4293C21.2097 14.1139 22.2989 13.7677 23.0551 13.4579C23.0551 13.4579 24.2004 15.8764 26.0681 16.7785C26.0681 16.7785 24.5173 14.0421 24.7476 12.7069C25.2319 9.9001 27.6803 6.46989 27.6803 6.46989C24.5311 8.49948 23.0132 11.7999 23.0132 11.7999C21.1184 11.1012 17.7021 10.5011 14.8928 9.63893C14.4083 9.49026 14.7257 5.1567 14.5015 5.21145V5.21146ZM6.77066 12.2844C6.90392 12.2844 7.01171 12.4261 7.01171 12.6013C7.01171 12.7765 6.90392 12.9205 6.77066 12.9205C6.6374 12.9205 6.52787 12.7765 6.52787 12.6013C6.52787 12.4261 6.6374 12.2844 6.77066 12.2844Z" fill="white"/>
<path d="M1.66049 13.5274C1.92535 13.5274 2.14006 13.3127 2.14006 13.0478C2.14006 12.783 1.92535 12.5682 1.66049 12.5682C1.39562 12.5682 1.18091 12.783 1.18091 13.0478C1.18091 13.3127 1.39562 13.5274 1.66049 13.5274Z" fill="white"/>
<path d="M4.34184 16.315C4.64389 16.315 4.88875 16.0701 4.88875 15.7681C4.88875 15.466 4.64389 15.2212 4.34184 15.2212C4.03978 15.2212 3.79492 15.466 3.79492 15.7681C3.79492 16.0701 4.03978 16.315 4.34184 16.315Z" fill="white"/>
<path d="M9.66461 6.68007C9.94806 6.68007 10.1778 6.45028 10.1778 6.16682C10.1778 5.88336 9.94806 5.65356 9.66461 5.65356C9.38115 5.65356 9.15137 5.88336 9.15137 6.16682C9.15137 6.45028 9.38115 6.68007 9.66461 6.68007Z" fill="white"/>
</g>
<defs>
<clipPath id="clip0_2294_5834">
<rect width="18" height="18" fill="white"/>
</clipPath>
</defs>
</svg>
