<svg width="18" height="18" viewBox="0 0 18 18" fill="none" xmlns="http://www.w3.org/2000/svg">
<path d="M2.95568 9.21534C2.87496 8.33206 2.25454 4.64595 4.38935 2.85133C6.52415 1.05672 10.9117 0.654982 13.1845 2.6141C15.4573 4.57321 15.9045 8.71716 13.8966 10.5455C11.8887 12.3738 8.62361 11.219 7.40527 9.73131C6.18694 8.24361 6.29348 6.43444 7.19543 5.37328C8.09738 4.31211 10.3676 4.06255 11.4233 4.93337C12.479 5.80418 12.6052 8.18323 11.7701 8.87851C10.935 9.57378 9.56145 8.61191 9.3033 8.19603C9.04515 7.78015 9.12714 8.0064 9.37451 7.82542C9.62189 7.64444 10.4309 8.39673 10.8261 7.99708C11.2213 7.59744 11.1267 6.57562 10.5805 6.1023C10.0343 5.62897 8.72352 5.53736 8.15503 6.13571C7.58654 6.73405 7.50402 7.73156 8.24946 8.66031C8.99489 9.58906 11.3731 10.9584 12.7186 9.82773C14.064 8.69707 13.7691 5.23176 12.2305 3.92229C10.692 2.61283 7.33712 2.77719 6.0528 4.40566C4.76848 6.03413 4.88571 7.70641 4.8967 8.30806C4.90768 8.90971 5.43813 10.3953 6.85857 11.3313C7.84149 11.9791 9.27345 12.7375 10.5578 12.8221C11.2692 12.8689 13.1242 12.7021 13.9382 12.7624C12.6404 13.2521 10.301 13.6819 9.63725 14.1883C9.31709 15.0851 9.54277 15.5918 9.66684 16.4887L7.61732 16.4608C7.67967 15.2211 8.33248 14.1858 7.61213 13.6204C6.03575 12.8062 3.23518 11.5647 2.95568 9.21534Z" fill="white"/>
</svg>
