<svg width="18" height="18" viewBox="0 0 18 18" fill="none" xmlns="http://www.w3.org/2000/svg">
<path fill-rule="evenodd" clip-rule="evenodd" d="M8.62364 4.18892C8.62311 4.19002 8.62257 4.19113 8.62203 4.19224C8.58316 4.27232 8.52628 4.38552 8.45326 4.5283C8.30749 4.81333 8.10087 5.20947 7.85332 5.67995C7.35839 6.62057 6.70202 7.85424 6.0466 9.08152C5.39124 10.3087 4.73713 11.5288 4.24683 12.4423C4.00169 12.899 3.79751 13.279 3.65462 13.5448L3.43016 13.9622L3.14893 14.4848L5.68673 14.4806L6.31776 14.4855L6.32086 14.4796L14.8434 14.4655L14.5691 13.9475L14.5691 13.9474L9.44407 4.22725L10.403 2.41563L9.77741 2.08447L9.0444 3.46924L8.28029 2.02002L7.65414 2.35016L8.62364 4.18892ZM9.3519 7.93309C9.30892 7.78223 9.26988 7.63861 9.23446 7.5019C9.19239 7.66799 9.14509 7.84385 9.09204 8.03008C8.52194 10.0312 7.63859 11.9237 6.68889 13.7711L11.8104 13.7627C11.3075 12.7706 9.93338 9.97418 9.3519 7.93309Z" fill="white"/>
</svg>
