<svg width="18" height="18" viewBox="0 0 18 18" fill="none" xmlns="http://www.w3.org/2000/svg">
<path fill-rule="evenodd" clip-rule="evenodd" d="M16.0921 4.02565C15.8879 3.41314 15.3147 3 14.6691 3H11.2502L9.75022 3.75L2.25024 3.75C1.0076 3.75 0.000244141 4.75735 0.000244141 5.99999L0.000298631 13.5H1.62828C1.93717 14.3739 2.77059 15 3.75023 15C4.72988 15 5.5633 14.3739 5.87218 13.5H12.1283C12.4372 14.3739 13.2706 15 14.2503 15C15.2299 15 16.0633 14.3739 16.3722 13.5H17.2502C17.6645 13.5 18.0002 13.1642 18.0002 12.75V10.5C18.0002 10.2599 17.9049 10.0296 17.7351 9.85985L17.6252 9.75002L16.5003 9.00002L15.0003 6.00003L15.7502 5.99999C16.1644 5.99999 16.5002 5.6642 16.5002 5.24999L16.0921 4.02565ZM1.50024 6.75002H5.25023V9.00001H1.50024V6.75002ZM3.75023 13.5C4.16445 13.5 4.50023 13.1642 4.50023 12.75C4.50023 12.3358 4.16445 12 3.75023 12C3.33602 12 3.00024 12.3358 3.00024 12.75C3.00024 13.1642 3.33602 13.5 3.75023 13.5ZM14.2502 13.5C14.6644 13.5 15.0002 13.1642 15.0002 12.75C15.0002 12.3358 14.6644 12 14.2502 12C13.836 12 13.5002 12.3358 13.5002 12.75C13.5002 13.1642 13.836 13.5 14.2502 13.5ZM6.75022 9.00001L10.5002 9.00001V6.75002H6.75022V9.00001ZM12.0002 6.75002H13.8752L15.0002 9.00001H12.0002V6.75002Z" fill="white"/>
</svg>
