<svg width="18" height="18" viewBox="0 0 18 18" fill="none" xmlns="http://www.w3.org/2000/svg">
<path d="M5.01962 2.09856C5.30646 2.09856 5.53899 1.86603 5.53899 1.57919C5.53899 1.29234 5.30646 1.05981 5.01962 1.05981C4.73277 1.05981 4.50024 1.29234 4.50024 1.57919C4.50024 1.86603 4.73277 2.09856 5.01962 2.09856Z" fill="white"/>
<path fill-rule="evenodd" clip-rule="evenodd" d="M2.89502 4.37804L4.5807 1.33667L5.45534 1.82144L3.76966 4.86281L2.89502 4.37804Z" fill="white"/>
<path fill-rule="evenodd" clip-rule="evenodd" d="M6.25856 4.86281L4.57288 1.82144L5.44752 1.33667L7.1332 4.37804L6.25856 4.86281Z" fill="white"/>
<path d="M13.6762 2.10547C13.6321 2.11037 13.5929 2.1226 13.5537 2.1422C13.4753 2.103 13.2769 2.103 13.1985 2.1422C13.1593 2.1814 13.0049 2.25736 12.9657 2.37497C12.8089 2.37497 12.7648 2.37987 12.6472 2.49748C12.5688 2.57588 12.5247 2.76699 12.5247 2.76699C12.5247 2.76699 12.2968 2.8895 12.2184 3.08551C12.14 3.20312 12.2184 3.44079 12.2184 3.44079C12.2184 3.44079 12.0983 3.5584 12.0591 3.6368C12.0199 3.676 12.0591 3.83282 12.0591 3.83282C12.0591 3.83282 12.0199 3.91122 12.0591 4.02883C12.0591 4.14644 12.1816 4.26159 12.1816 4.26159C12.1816 4.26159 12.1424 4.37675 12.1816 4.49436C12.1816 4.57276 12.2919 4.65362 12.2919 4.65362C12.2919 4.65362 12.1743 4.92559 12.4879 5.0824C12.4879 5.27841 12.6423 5.43767 12.7207 5.43767C12.6423 5.63369 12.7623 5.78805 12.8799 5.86645C12.8799 6.14087 12.7305 6.25603 12.5737 6.29523C12.4561 6.33443 10.099 6.69216 10.099 7.20179C11.2359 8.18186 11.6671 9.55395 11.6671 9.55395H15.5874C15.5874 9.55395 15.8226 8.37787 17.1555 7.20179C17.1555 6.80976 14.7641 6.29768 14.6073 6.25848C14.4505 6.18007 14.3378 6.09922 14.3378 5.9032C14.4162 5.8248 14.4872 5.70719 14.448 5.51118C14.5264 5.51118 14.6514 5.43522 14.7298 5.27841C14.769 5.20001 14.7275 5.0481 14.7665 5.00889C14.8057 4.96969 14.8866 4.89129 14.9258 4.81288C14.965 4.69527 14.9234 4.60952 14.9625 4.53111C14.9625 4.45271 15.0336 4.4184 15.0728 4.26159C15.112 4.06558 15.0728 3.86957 15.0728 3.86957C15.0728 3.86957 15.1585 3.67355 15.1585 3.47754C15.1585 3.28153 15.0017 3.16392 14.9625 3.08551C14.9625 3.00711 14.9944 2.84785 14.8768 2.73024C14.7592 2.61263 14.6073 2.61998 14.6073 2.61998C14.6073 2.61998 14.6073 2.41907 14.4112 2.30146C14.2152 2.18385 14.0192 2.22796 14.0192 2.22796C14.0192 2.22796 13.98 2.14465 13.8232 2.10545C13.7644 2.10545 13.7203 2.10055 13.6762 2.10545L13.6762 2.10547ZM12.0591 10.2555C12.2159 10.4907 12.1767 15.0206 12.0591 15.2166H15.1953C15.0385 14.9814 15.0777 10.4515 15.1953 10.2555H12.0591ZM11.5936 15.8589C11.2016 15.8589 10.8831 16.1774 10.8831 16.5695V16.643H16.3714V16.5695C16.3714 16.1774 16.0553 15.8589 15.6241 15.8589H11.5936Z" fill="white"/>
<path d="M1.65085 4.48633L2.52994 5.36542H7.55947L8.43856 4.48633H1.65085V4.48633ZM1.10229 5.03489V9.44881L2.16862 8.38243V6.10127L1.10229 5.03489ZM8.98712 5.03489L7.92079 6.10121V8.38249L8.98712 9.44881V5.03489ZM2.52994 9.11828L1.65085 9.99737H8.43856L7.55947 9.11828H2.52994Z" fill="white"/>
</svg>
