<svg width="18" height="18" viewBox="0 0 18 18" fill="none" xmlns="http://www.w3.org/2000/svg">
<g clip-path="url(#clip0_2294_5704)">
<path d="M13.9253 13.6437C14.3938 13.4129 14.839 12.8484 14.9363 12.362C15.0073 12.0071 15.0245 11.9981 15.6321 11.9981C16.1403 11.9981 16.3071 11.9461 16.5372 11.7159C17.1295 11.1236 16.7023 10.1591 15.8476 10.1591C15.5167 10.1591 15.4401 10.1158 15.4401 9.9292C15.4401 9.70188 15.3632 9.70008 8.54392 9.76656H1.64773V10.8487V11.9981H2.32456H3.00139L3.07806 12.4067C3.17993 12.9498 3.91425 13.6841 4.45727 13.786C4.68205 13.8281 5.04987 13.8281 5.27465 13.786C5.81767 13.6841 6.55198 12.9498 6.65385 12.4067C6.75997 11.8411 7.10965 11.8411 7.21577 12.4067C7.31764 12.9498 8.05196 13.6841 8.59498 13.786C8.81976 13.8281 9.18758 13.8281 9.41236 13.786C9.95538 13.6841 10.6897 12.9498 10.7916 12.4067C10.8927 11.8676 11.2419 11.8394 11.3465 12.362C11.5725 13.4921 12.8971 14.1504 13.9253 13.6437V13.6437ZM12.5437 13.0705C11.443 12.4203 11.8914 10.7376 13.1654 10.7376C14.128 10.7376 14.7123 11.7419 14.2594 12.6178C13.9602 13.1962 13.1283 13.4158 12.5437 13.0705V13.0705ZM8.42186 13.0489C7.34146 12.4107 7.7816 10.7592 9.03208 10.7592C9.97683 10.7592 10.5504 11.7449 10.1058 12.6046C9.81221 13.1724 8.9956 13.3879 8.42186 13.0489ZM4.28858 13.0429C3.21389 12.4081 3.65171 10.7652 4.89559 10.7652C5.83535 10.7652 6.40588 11.7458 5.96368 12.6009C5.67161 13.1657 4.8593 13.38 4.28858 13.0429ZM16.2478 8.7511C16.6715 7.81759 16.4569 6.65663 15.7904 6.27736C15.488 6.10526 15.1681 6.01378 15.1675 5.59034L15.1667 5.10187H14.2473H13.3278V5.56161V6.02136H9.92316H6.31243V7.63047V9.23958H11.1356H16.026L16.2478 8.7511H16.2478ZM5.78545 6.71098V4.18237H3.48672H1.18799V5.20738C1.18799 5.50334 1.26391 5.71802 1.41786 5.85734C1.62987 6.04921 1.64773 6.86813 1.64773 7.36094V9.23958H3.71659H5.78545V6.71098ZM3.02697 6.02136V5.10187H3.94646H4.86596V6.02136V6.94085H3.94646H3.02697V6.02136Z" fill="white"/>
</g>
<defs>
<clipPath id="clip0_2294_5704">
<rect width="18" height="18" fill="white"/>
</clipPath>
</defs>
</svg>
