<svg width="18" height="18" viewBox="0 0 18 18" fill="none" xmlns="http://www.w3.org/2000/svg">
<path d="M11.8863 2.3252L10.2851 3.72853L12.4497 5.867C11.6428 6.74261 10.8303 7.61433 10.0164 8.48456C10.2022 8.65778 10.3876 8.83097 10.5731 9.00439C11.3666 8.11182 12.1621 7.22052 12.9618 6.33446C13.1286 6.21564 14.0762 7.12534 14.1906 7.29653L16.8159 8.68047C16.6714 8.57719 15.4884 5.70097 15.302 5.53823C15.014 5.28575 14.6774 4.98567 14.3264 4.6683L14.8821 4.12713L14.4544 3.76539L13.9151 4.29491C13.1575 3.60071 12.3837 2.86322 11.8863 2.3252ZM7.69274 10.9693C7.56119 11.1103 7.4294 11.251 7.29802 11.3921L3.47302 15.4838L4.21106 16.1569L7.93422 11.9721C8.05704 11.8346 8.1791 11.6965 8.30179 11.5589C8.09874 11.3624 7.89598 11.1656 7.69274 10.9693V10.9693Z" fill="white"/>
<path d="M3.60034 4.70684C2.71732 5.60261 2.12421 6.74479 1.38306 7.75963L3.0224 8.95534L4.79652 6.39843C5.0097 6.28634 5.14839 6.56225 5.27723 6.68538C7.06431 8.45744 8.83061 10.2547 10.6096 12.0366L14.5588 16.0086L15.2585 15.2957L11.2128 11.4219C9.39775 9.67674 7.56762 7.94457 5.76224 6.19115C5.63671 6.06465 5.35824 5.93118 5.46631 5.71593L7.98938 3.89402L6.76304 2.27747C5.66943 3.04426 4.55758 3.76902 3.60034 4.70684Z" fill="white"/>
</svg>
