<svg width="18" height="18" viewBox="0 0 18 18" fill="none" xmlns="http://www.w3.org/2000/svg">
<path d="M9 3C9.41421 3 9.75 2.66421 9.75 2.25C9.75 1.83579 9.41421 1.5 9 1.5C8.58579 1.5 8.25 1.83579 8.25 2.25C8.25 2.66421 8.58579 3 9 3Z" fill="white"/>
<path d="M8.25 3.75H9.63281L9.75 4.5H10.5V5.25L9.75 6L10.5 10.5H7.5L8.25 6L7.5 5.25V4.5H8.25V3.75Z" fill="white"/>
<path d="M6 15.75C6 15.3358 6.33579 15 6.75 15H7.5V13.5C7.08579 13.5 6.75 13.1642 6.75 12.75C6.75 12.3358 7.08579 12 7.5 12H10.5C10.9142 12 11.25 12.3358 11.25 12.75C11.25 13.1642 10.9142 13.5 10.5 13.5V15H11.25C11.6642 15 12 15.3358 12 15.75V16.5H6V15.75Z" fill="white"/>
</svg>
