<svg width="18" height="18" viewBox="0 0 18 18" fill="none" xmlns="http://www.w3.org/2000/svg">
<path fill-rule="evenodd" clip-rule="evenodd" d="M10.1728 1.77417L6.72515 1.92742L5.49507 3.24987C4.60041 4.98718 4.76815 6.37521 4.72677 7.73684C4.66979 9.61194 4.7866 11.5324 5.16826 14.6657L9.75876 15.8755C9.75876 15.8755 11.9291 16.068 12.6696 14.6434C13.8191 12.4318 13.0106 5.82371 13.0106 5.82371L11.9591 4.20592C11.246 3.32773 11.4407 3.70069 10.1728 1.77417ZM8.53882 3.79996C8.6081 3.79816 8.6779 3.79962 8.7479 3.80402C9.86778 3.87432 11.0212 4.70946 11.6638 6.3332C11.9279 7.00075 12.2383 8.28858 12.2545 9.69767C12.2706 11.1068 11.99 12.6727 10.8183 13.6193C9.80199 14.4405 8.46385 14.3541 7.44473 13.8315C6.42562 13.3088 5.60231 12.329 5.64325 11.1612C5.67458 10.2672 5.93273 9.56609 6.39124 9.08872C6.84976 8.61135 7.46585 8.3965 8.08211 8.33057C9.15567 8.21572 9.98453 8.89579 10.2672 9.68651C10.5499 10.4772 10.3419 11.4974 9.48676 11.9305C8.80961 12.2734 8.14117 12.2055 7.7553 11.896C7.36943 11.5865 7.24582 11.1701 7.20318 11.0729C7.17235 11.0062 7.15512 10.934 7.1525 10.8606C7.14989 10.7872 7.16194 10.714 7.18795 10.6452C7.21396 10.5765 7.25341 10.5137 7.304 10.4604C7.35458 10.4071 7.41528 10.3644 7.48255 10.3349C7.54982 10.3053 7.62231 10.2895 7.69577 10.2883C7.76924 10.2871 7.84221 10.3005 7.91041 10.3279C7.97862 10.3552 8.04069 10.3958 8.093 10.4474C8.14531 10.499 8.1868 10.5605 8.21506 10.6284C8.29962 10.8212 8.38035 10.9813 8.44646 11.0343C8.51257 11.0873 8.54427 11.1679 8.9864 10.944C9.28837 10.7911 9.36493 10.4439 9.22694 10.058C9.08895 9.67201 8.79251 9.36633 8.19984 9.42973C7.75212 9.47763 7.42299 9.61135 7.18897 9.85498C6.95496 10.0986 6.77235 10.4903 6.74748 11.1998C6.72675 11.7911 7.22389 12.476 7.94915 12.848C8.67441 13.2199 9.50494 13.2592 10.1231 12.7597C10.8809 12.1474 11.1635 10.9545 11.1492 9.71087C11.1349 8.46727 10.8208 7.20811 10.6357 6.74019C10.1072 5.4048 9.30842 4.94676 8.67888 4.90724C8.04934 4.86772 7.55475 5.20653 7.42748 5.83488C7.21334 6.89216 7.77806 7.01716 7.90855 7.01828C8.06283 7.0196 8.11249 6.9886 8.12372 6.98072C8.13494 6.97285 8.1346 6.97828 8.14503 6.94013C8.1659 6.86382 8.13317 6.61849 8.0679 6.48646C8.03567 6.42134 8.01658 6.35052 8.01173 6.27803C8.00688 6.20554 8.01636 6.1328 8.03963 6.06397C8.06289 5.99514 8.0995 5.93158 8.14734 5.8769C8.19518 5.82222 8.25333 5.77751 8.31846 5.74531C8.38359 5.71311 8.45442 5.69406 8.52692 5.68925C8.59941 5.68443 8.67214 5.69395 8.74096 5.71725C8.80977 5.74056 8.87332 5.77719 8.92798 5.82506C8.98263 5.87293 9.02731 5.9311 9.05948 5.99625C9.22743 6.33598 9.34101 6.75866 9.21172 7.23141C9.14707 7.46779 8.99724 7.71801 8.75906 7.88502C8.52088 8.05203 8.2212 8.12629 7.89942 8.12353C6.99569 8.11576 6.03434 7.1423 6.34354 5.61565C6.56144 4.53982 7.49965 3.82694 8.53882 3.79996V3.79996Z" fill="white"/>
<path opacity="0.0790514" d="M8.53929 3.80043C7.50012 3.82741 6.56191 4.54029 6.34401 5.61612C6.03481 7.14276 6.99515 8.11622 7.89888 8.12399C8.22066 8.12676 8.52034 8.05249 8.75852 7.88549C8.9967 7.71848 9.14653 7.46825 9.21118 7.23188C9.34047 6.75913 9.22689 6.33644 9.05894 5.99672C9.02839 5.92913 8.98454 5.86837 8.93002 5.81808C8.8755 5.76779 8.81141 5.72899 8.74158 5.70399C8.67174 5.67899 8.59759 5.6683 8.52354 5.67256C8.44948 5.67682 8.37705 5.69594 8.31054 5.72879C8.24403 5.76163 8.18482 5.80753 8.13642 5.86374C8.08802 5.91995 8.05144 5.98533 8.02884 6.05597C8.00624 6.12662 7.9981 6.2011 8.00489 6.27496C8.01168 6.34882 8.03327 6.42057 8.06837 6.48591C8.13365 6.61795 8.16637 6.86428 8.1455 6.94059C8.13507 6.97875 8.13542 6.97231 8.12419 6.98018C8.11297 6.98805 8.0633 7.02007 7.90903 7.01874C7.77854 7.01762 7.2128 6.89263 7.42694 5.83534C7.5542 5.207 8.04981 4.86717 8.67935 4.90669C9.3089 4.94621 10.1077 5.40426 10.6361 6.73964C10.8213 7.20756 11.1354 8.46672 11.1497 9.71032C11.164 10.9539 10.8814 12.1469 10.1236 12.7591C9.50541 13.2586 8.67489 13.2204 7.94962 12.8485C7.22436 12.4765 6.72722 11.7915 6.74795 11.2002C6.77282 10.4907 6.95441 10.0981 7.18843 9.85443C7.42245 9.61079 7.75158 9.47708 8.19929 9.42918C8.79197 9.36578 9.08942 9.67247 9.22741 10.0584C9.36541 10.4444 9.28885 10.7915 8.98688 10.9445C8.54474 11.1684 8.51305 11.0868 8.44694 11.0338C8.38083 10.9807 8.3001 10.8216 8.21553 10.6288C8.18805 10.56 8.14699 10.4974 8.09482 10.4447C8.04264 10.392 7.9804 10.3504 7.9118 10.3223C7.84321 10.2942 7.76966 10.2802 7.69554 10.2811C7.62141 10.282 7.54823 10.2978 7.48033 10.3275C7.41244 10.3573 7.35122 10.4004 7.30033 10.4543C7.24944 10.5082 7.20991 10.5718 7.1841 10.6413C7.15828 10.7108 7.14671 10.7847 7.15007 10.8588C7.15343 10.9329 7.17165 11.0055 7.20365 11.0723C7.24629 11.1696 7.36889 11.587 7.75476 11.8965C8.14063 12.2059 8.80907 12.2729 9.48622 11.9299C10.3413 11.4969 10.5504 10.4767 10.2677 9.68596C9.98501 8.89524 9.15513 8.21619 8.08156 8.33104C7.4653 8.39696 6.85023 8.61182 6.39171 9.08918C5.9332 9.56655 5.67404 10.2676 5.6427 11.1617C5.60176 12.3294 6.42609 13.3093 7.44521 13.8319C8.46432 14.3546 9.80145 14.4399 10.8178 13.6188C11.9895 12.6721 12.2711 11.1072 12.2549 9.69814C12.2388 8.28904 11.9274 7.00122 11.6632 6.33367C11.0207 4.70993 9.86826 3.87377 8.74837 3.80347C8.67838 3.79908 8.60857 3.79863 8.53929 3.80043V3.80043Z" fill="white"/>
</svg>
