<svg width="18" height="18" viewBox="0 0 18 18" fill="none" xmlns="http://www.w3.org/2000/svg">
<path d="M16.8731 9.35693C16.8731 9.35693 14.5383 9.37019 13.3187 9.37342L12.5273 10.3413H7.74603L7.2068 9.36469C5.60808 9.3461 1.12695 9.37633 1.12695 9.37633C1.21305 10.4354 1.93869 11.8438 2.5623 12.7057C3.1859 13.5677 3.8174 13.5272 4.05098 13.5272H14.7627C14.9963 13.5272 15.2958 13.3801 15.461 13.2149C16.6143 11.3198 16.567 10.6713 16.8731 9.35693ZM15.6453 11.0182L15.622 11.2626H3.8706V11.0221L15.6453 11.0182Z" fill="white"/>
<path d="M7.57389 8.86211L14.1713 8.85718L13.1578 9.66667H7.18103L7.57389 8.86211Z" fill="white"/>
<path d="M7.85059 9.58105H8.17678V10.3856H7.85059V9.58105Z" fill="white"/>
<path d="M8.86047 9.59265H9.18666V10.3972H8.86047V9.59265Z" fill="white"/>
<path d="M9.87024 9.56421H10.1964V10.3688H9.87024V9.56421Z" fill="white"/>
<path d="M11.8899 9.58105H12.2161V10.3856H11.8899V9.58105Z" fill="white"/>
<path d="M7.95469 1.82104H8.31783L8.62088 9.05951H7.92102L7.95469 1.82104Z" fill="white"/>
<path d="M10.8801 9.58105H11.2063V10.3856H10.8801V9.58105Z" fill="white"/>
<path d="M13.4354 7.87463H13.9085L14.2478 8.11868L14.8926 8.14844L14.8866 9.67324H13.4354V7.87463Z" fill="white"/>
<path d="M11.4747 3.21838H11.821L12.0231 9.00897L11.3064 8.94162L11.4747 3.21838Z" fill="white"/>
<path fill-rule="evenodd" clip-rule="evenodd" d="M6.78779 3.33473C6.8906 3.07844 7.18171 2.95402 7.438 3.05683L9.11594 3.72994C9.37223 3.83275 9.49665 4.12385 9.39384 4.38014C9.29103 4.63643 8.99992 4.76085 8.74363 4.65804L7.06569 3.98494C6.8094 3.88213 6.68498 3.59102 6.78779 3.33473Z" fill="white"/>
<path fill-rule="evenodd" clip-rule="evenodd" d="M6.48368 5.68871C6.62631 5.45226 6.93362 5.3762 7.17008 5.51884L9.65079 7.01525C9.88725 7.15788 9.9633 7.46519 9.82067 7.70165C9.67804 7.9381 9.37073 8.01416 9.13427 7.87152L6.65356 6.37511C6.4171 6.23248 6.34105 5.92517 6.48368 5.68871Z" fill="white"/>
<path fill-rule="evenodd" clip-rule="evenodd" d="M10.3925 4.48777C10.5104 4.23804 10.8084 4.13114 11.0581 4.249L12.5855 4.96983C12.8352 5.08769 12.9421 5.38568 12.8243 5.63541C12.7064 5.88514 12.4084 5.99204 12.1587 5.87418L10.6313 5.15334C10.3816 5.03548 10.2747 4.73749 10.3925 4.48777Z" fill="white"/>
<path fill-rule="evenodd" clip-rule="evenodd" d="M10.1554 6.14003C10.2878 5.89772 10.5916 5.80867 10.8339 5.94113L12.8791 7.05913C13.1214 7.19158 13.2105 7.49538 13.078 7.73768C12.9456 7.97999 12.6418 8.06904 12.3995 7.93659L10.3543 6.81858C10.112 6.68613 10.0229 6.38233 10.1554 6.14003Z" fill="white"/>
</svg>
