<svg width="18" height="18" viewBox="0 0 18 18" fill="none" xmlns="http://www.w3.org/2000/svg">
<path fill-rule="evenodd" clip-rule="evenodd" d="M10.4475 1.46045L6.81685 1.62135L5.52155 3.01381L4.77315 6.59327L6.65362 6.94499L4.68038 7.95905L4.34363 8.34703L5.11845 14.7081L10.0111 16.309C10.0111 16.309 12.2971 16.5118 13.0768 15.0116C14.2873 12.6828 13.2257 5.70368 13.2257 5.70368L12.3284 4.02112L11.6052 4.12106L9.41569 3.78878L11.419 3.48062L11.6217 3.24454L10.4475 1.46045ZM11.2284 6.35385L10.8105 9.00322L11.2882 10.975L10.4856 15.313L10.1297 12.9949L10.6641 10.975L10.4354 8.83757L11.2284 6.35385Z" fill="white"/>
</svg>
