<svg width="18" height="18" viewBox="0 0 18 18" fill="none" xmlns="http://www.w3.org/2000/svg">
<path d="M8.1953 8.84058L7.98566 11.4439H10.0144L9.82858 8.8882L8.1953 8.84058ZM6.87619 11.951C6.59597 11.9772 6.39003 12.2256 6.4163 12.5058C6.44257 12.786 6.69109 12.9918 6.97128 12.9654V14.9942H11.0288V12.9654C11.3117 12.9694 11.5432 12.7412 11.5432 12.4582C11.5432 12.1753 11.3117 11.947 11.0288 11.951H6.97128C6.95545 11.9503 6.93959 11.9503 6.92376 11.951C6.90793 11.9503 6.89207 11.9503 6.87624 11.951H6.87619ZM6.87619 15.5014C6.369 15.5014 5.95691 15.9134 5.95691 16.4206V17.0229H12.0432V16.4206C12.0432 15.9134 11.6342 15.5014 11.0763 15.5014H6.87619Z" fill="white"/>
<path d="M8.40164 0.887329L8.18182 2.27952C7.84809 2.36158 7.52832 2.48576 7.24148 2.65809L6.09353 1.83988L5.2631 2.67031L6.06911 3.81825C5.89521 4.10626 5.76234 4.42251 5.67832 4.75859L4.29834 4.99062V6.16299L5.67832 6.40723C5.76156 6.74253 5.89443 7.05917 6.06911 7.34757L5.25089 8.49551L6.08132 9.32594L7.22927 8.51994C7.51689 8.69267 7.83548 8.81606 8.16961 8.89851L8.40164 10.2907H9.57401L9.83047 8.89851C10.163 8.81449 10.4733 8.68124 10.7586 8.50772L11.9188 9.32594L12.7492 8.49551L11.9188 7.34757C12.0899 7.06229 12.2275 6.75122 12.3095 6.41944L13.7017 6.16299V4.99062L12.3095 4.75859C12.2267 4.42681 12.0899 4.11574 11.9188 3.83046L12.737 2.67031L11.9065 1.83988L10.7586 2.67031C10.4725 2.49719 10.1524 2.36275 9.81825 2.27952L9.57401 0.887329H8.40164ZM9.00004 4.14784C9.79529 4.14784 10.4412 4.79376 10.4412 5.58901C10.4412 6.38427 9.79529 7.03019 9.00004 7.03019C8.20478 7.03019 7.55886 6.38405 7.55886 5.58901C7.55886 4.79398 8.20478 4.14784 9.00004 4.14784Z" fill="white"/>
</svg>
