<svg width="18" height="18" viewBox="0 0 18 18" fill="none" xmlns="http://www.w3.org/2000/svg">
<path opacity="0.5" d="M2.38327 3.18921V5.57789H1.71021V6.19858H2.38327V7.68824H1.71021V8.30893H2.38327V9.79858H1.71021V10.4193H2.38327V11.9089H1.71021V12.5296H2.38327V14.0193H1.71021V14.64H2.38327V15.347H3.00395V14.64H4.49361V15.347H5.1143V14.64H6.54188V15.347H7.16257V14.64H8.65223V15.347H9.27292V14.64H10.7626V15.347H11.3833V14.64H12.8729V15.347H13.4936V14.64H14.9833V15.347H15.6039V12.3133H14.9833V12.3182L14.1647 11.9089H13.4936V11.7547H12.8729V11.9089H11.3833V10.3892H11.1854V9.79858H9.27292V8.15472H8.70266V7.68824H7.16257V5.85817H6.90266V5.57789H5.1143V3.9961H4.49361V5.57789H3.00395V3.18921H2.38327ZM3.00395 6.19858H4.49361V7.68824H3.00395V6.19858ZM5.1143 6.19858H6.54188V7.68824H5.1143V6.19858ZM3.00395 8.30893H4.49361V9.79858H3.00395V8.30893ZM5.1143 8.30893H6.54188V9.79858H5.1143V8.30893ZM7.16257 8.30893H8.65223V9.79858H7.16257V8.30893ZM3.00395 10.4193H4.49361V11.9089H3.00395V10.4193ZM5.1143 10.4193H6.54188V11.9089H5.1143V10.4193ZM7.16257 10.4193H8.65223V11.9089H7.16257V10.4193ZM9.27292 10.4193H10.7626V11.9089H9.27292V10.4193ZM3.00395 12.5296H4.49361V14.0193H3.00395V12.5296ZM5.1143 12.5296H6.54188V14.0193H5.1143V12.5296ZM7.16257 12.5296H8.65223V14.0193H7.16257V12.5296ZM9.27292 12.5296H10.7626V14.0193H9.27292V12.5296ZM11.3833 12.5296H12.8729V14.0193H11.3833V12.5296ZM13.4936 12.5296H14.9833V14.0193H13.4936V12.5296Z" fill="white"/>
<path d="M9.36117 3.44256C9.38314 3.38939 9.39442 3.33242 9.39435 3.27489C9.39442 3.21737 9.38314 3.16039 9.36117 3.10723C9.3392 3.05406 9.30697 3.00575 9.26632 2.96505C9.22566 2.92435 9.17739 2.89207 9.12425 2.87004C9.07111 2.84801 9.01415 2.83667 8.95662 2.83667C8.8991 2.83667 8.84213 2.84801 8.78899 2.87004C8.73585 2.89207 8.68758 2.92435 8.64692 2.96505C8.60627 3.00575 8.57404 3.05406 8.55207 3.10723C8.5301 3.16039 8.51882 3.21737 8.51889 3.27489C8.51882 3.33242 8.5301 3.38939 8.55207 3.44256C8.57404 3.49572 8.60627 3.54403 8.64692 3.58473C8.68758 3.62543 8.73585 3.65772 8.78899 3.67975C8.84213 3.70178 8.8991 3.71312 8.95662 3.71312C9.01415 3.71312 9.07111 3.70178 9.12425 3.67975C9.17739 3.65772 9.22566 3.62543 9.26632 3.58473C9.30697 3.54403 9.3392 3.49572 9.36117 3.44256Z" fill="white"/>
<path d="M4.56706 4.19037C3.44569 3.50747 2.55174 3.37383 1.82085 3.56521C1.67328 3.60385 1.52233 3.51555 1.48369 3.36798C1.44504 3.22041 1.53335 3.06946 1.68092 3.03082C2.60016 2.79011 3.6491 2.98455 4.85439 3.71856C5.3271 4.00643 5.82718 4.37914 6.35747 4.84551L6.36393 4.83124C6.54867 4.42333 6.73342 4.01541 7.36961 3.9837L7.73779 3.61551C7.98322 3.37009 8.38113 3.37009 8.62655 3.61551C8.87198 3.86094 8.87198 4.25885 8.62655 4.50427L8.25887 4.87196L8.49142 5.11186L8.73965 4.86362C8.91236 4.69092 9.19237 4.69092 9.36508 4.86362C9.53778 5.03633 9.53778 5.31634 9.36508 5.48905L9.10711 5.74701L9.32961 5.97655C9.12456 6.66936 8.76256 6.81285 8.39476 6.93602C8.60457 7.17918 8.8184 7.43481 9.03637 7.70327C10.6152 9.64789 11.9123 10.7287 13.0501 11.3342C14.1819 11.9365 15.1751 12.0788 16.1719 12.1133C16.3244 12.1186 16.4437 12.2465 16.4384 12.399C16.4331 12.5514 16.3052 12.6707 16.1528 12.6654C15.1062 12.6291 14.0218 12.477 12.7906 11.8218C11.5654 11.1698 10.2139 10.03 8.60751 8.05147C7.02418 6.10136 5.69212 4.87551 4.56706 4.19037Z" fill="white"/>
<path d="M10.1688 4.55969C10.1689 4.61722 10.1576 4.67419 10.1356 4.72735C10.1137 4.78052 10.0814 4.82883 10.0408 4.86953C10.0001 4.91023 9.95183 4.94252 9.89869 4.96455C9.84555 4.98658 9.78859 4.99791 9.73107 4.99791C9.67354 4.99791 9.61658 4.98658 9.56344 4.96455C9.5103 4.94252 9.46202 4.91023 9.42137 4.86953C9.38072 4.82883 9.34848 4.78052 9.32651 4.72735C9.30455 4.67419 9.29327 4.61722 9.29334 4.55969C9.29327 4.50217 9.30455 4.44519 9.32651 4.39203C9.34848 4.33886 9.38072 4.29055 9.42137 4.24985C9.46202 4.20915 9.5103 4.17686 9.56344 4.15484C9.61658 4.13281 9.67354 4.12147 9.73107 4.12147C9.78859 4.12147 9.84555 4.13281 9.89869 4.15484C9.95183 4.17686 10.0001 4.20915 10.0408 4.24985C10.0814 4.29055 10.1137 4.33886 10.1356 4.39203C10.1576 4.44519 10.1689 4.50217 10.1688 4.55969Z" fill="white"/>
<path d="M11.4846 9.8929L10.8582 9.34952C10.7511 9.32933 10.6479 9.281 10.5602 9.20379C10.4748 9.12866 10.4146 9.03551 10.3804 8.93505L10.0973 8.68941C10.1167 8.64066 10.1354 8.59134 10.154 8.54202C10.3126 8.12257 10.4712 7.70311 11.1063 7.63177L11.3528 7.35157C11.5821 7.091 11.9792 7.06562 12.2397 7.29489C12.5003 7.52417 12.5257 7.92127 12.2964 8.18185L12.049 8.46302L12.2964 8.6876L12.4322 8.53325C12.5935 8.34988 12.873 8.33202 13.0563 8.49336C13.2397 8.6547 13.2576 8.93414 13.0962 9.11751L12.9513 9.2822L13.1867 9.49587C13.0201 10.2274 12.6468 10.3786 12.2735 10.5298C12.2611 10.5348 12.2487 10.5399 12.2362 10.5449L11.8744 10.2311C11.7843 10.2229 11.6959 10.187 11.6228 10.1227C11.5513 10.0598 11.505 9.97897 11.4846 9.8929Z" fill="white"/>
<path d="M12.9802 6.90217C12.9839 6.95957 12.9763 7.01715 12.9577 7.07161C12.9392 7.12606 12.9101 7.17634 12.8721 7.21954C12.8342 7.26275 12.7881 7.29805 12.7364 7.32343C12.6848 7.3488 12.6287 7.36375 12.5713 7.36742C12.5139 7.37108 12.4563 7.3634 12.4019 7.34481C12.3474 7.32621 12.2972 7.29707 12.254 7.25905C12.2108 7.22102 12.1756 7.17486 12.1503 7.12321C12.125 7.07155 12.1101 7.01541 12.1065 6.958C12.1027 6.9006 12.1104 6.84302 12.1289 6.78856C12.1474 6.73411 12.1765 6.68383 12.2145 6.64063C12.2525 6.59742 12.2986 6.56212 12.3502 6.53674C12.4018 6.51137 12.458 6.49642 12.5154 6.49275C12.5728 6.48909 12.6303 6.49677 12.6848 6.51536C12.7392 6.53396 12.7895 6.5631 12.8326 6.60112C12.8758 6.63915 12.911 6.68531 12.9364 6.73696C12.9617 6.78862 12.9766 6.84476 12.9802 6.90217Z" fill="white"/>
<path d="M13.8127 8.30836C13.8312 8.2539 13.8388 8.19633 13.8351 8.13892C13.8315 8.08151 13.8166 8.02537 13.7913 7.97372C13.766 7.92206 13.7307 7.8759 13.6876 7.83788C13.6444 7.79985 13.5942 7.77071 13.5397 7.75212C13.4853 7.73352 13.4277 7.72584 13.3703 7.72951C13.3129 7.73318 13.2568 7.74812 13.2052 7.7735C13.1535 7.79887 13.1074 7.83417 13.0694 7.87738C13.0315 7.92059 13.0024 7.97086 12.9838 8.02532C12.9653 8.07977 12.9577 8.13735 12.9614 8.19475C12.965 8.25217 12.9799 8.30831 13.0052 8.35996C13.0305 8.41162 13.0658 8.45778 13.1089 8.4958C13.1521 8.53382 13.2024 8.56297 13.2568 8.58156C13.3112 8.60016 13.3688 8.60784 13.4262 8.60417C13.4836 8.6005 13.5397 8.58555 13.5914 8.56018C13.643 8.53481 13.6891 8.49951 13.7271 8.4563C13.7651 8.41309 13.7941 8.36282 13.8127 8.30836Z" fill="white"/>
</svg>
