<svg width="18" height="18" viewBox="0 0 18 18" fill="none" xmlns="http://www.w3.org/2000/svg">
<path fill-rule="evenodd" clip-rule="evenodd" d="M13.5829 4.84718C14.0436 4.15864 13.8588 3.22703 13.1703 2.76638C12.4817 2.30573 11.5501 2.49047 11.0895 3.17901L11.0455 3.2447C10.5222 4.02694 10.1284 4.88843 9.87928 5.79602L9 8.99946L8.12072 5.79602C7.87161 4.88843 7.47781 4.02694 6.95447 3.2447L6.91053 3.17901C6.44987 2.49047 5.51827 2.30573 4.82973 2.76638C4.14118 3.22703 3.95644 4.15864 4.41709 4.84718L4.46103 4.91286C4.98437 5.6951 5.6304 6.38786 6.37424 6.96446L8.99991 8.99979L8.99987 8.99993L5.84805 7.94932C4.95519 7.6517 4.02019 7.49997 3.07903 7.49997H3C2.17157 7.49997 1.5 8.17154 1.5 8.99997C1.5 9.82839 2.17157 10.5 3 10.5H3.07903C4.02019 10.5 4.95519 10.3482 5.84805 10.0506L8.99987 9L6.37397 11.0355C5.63012 11.6121 4.9841 12.3049 4.46076 13.0871L4.41682 13.1528C3.95617 13.8413 4.14091 14.7729 4.82945 15.2336C5.518 15.6942 6.4496 15.5095 6.91025 14.821L6.9542 14.7553C7.47753 13.973 7.87134 13.1115 8.12045 12.204L8.99987 9L9 8.99997L9.00013 9L9.87955 12.204C10.1287 13.1115 10.5225 13.973 11.0458 14.7553L11.0897 14.821C11.5504 15.5095 12.482 15.6942 13.1705 15.2336C13.8591 14.7729 14.0438 13.8413 13.5832 13.1528L13.5392 13.0871C13.0159 12.3049 12.3699 11.6121 11.626 11.0355L9.00013 9L12.1519 10.0506C13.0448 10.3482 13.9798 10.5 14.921 10.5H15C15.8284 10.5 16.5 9.82839 16.5 8.99997C16.5 8.17154 15.8284 7.49997 15 7.49997H14.921C13.9798 7.49997 13.0448 7.6517 12.1519 7.94932L9.00013 8.99993L9.00009 8.99979L11.6258 6.96446C12.3696 6.38786 13.0156 5.6951 13.539 4.91286L13.5829 4.84718ZM9 8.99997L8.9999 8.99994L9 8.99986L9.0001 8.99994L9 8.99997Z" fill="white"/>
</svg>
