<svg width="18" height="18" viewBox="0 0 18 18" fill="none" xmlns="http://www.w3.org/2000/svg">
<path d="M16.9088 16.0851C16.5682 16.0851 16.2427 16.0094 15.9513 15.8789C15.6523 15.7407 15.3154 15.6593 14.9616 15.6593C14.6096 15.6593 14.2746 15.7407 13.9756 15.8789C13.6842 16.0094 13.3587 16.0851 13.0143 16.0851C12.6737 16.0851 12.3482 16.0094 12.053 15.8789C11.754 15.7407 11.4171 15.6593 11.067 15.6593C10.7169 15.6593 10.3801 15.7407 10.0773 15.8789C9.78967 16.0094 9.46039 16.0851 9.11976 16.0851C8.77913 16.0851 8.44986 16.0094 8.15843 15.8789C7.85943 15.7407 7.52259 15.6593 7.1725 15.6593C6.81673 15.6593 6.48177 15.7407 6.18278 15.8789C5.89135 16.0094 5.56586 16.0851 5.22523 16.0851C4.88081 16.0851 4.55532 16.0094 4.26011 15.8789C3.9649 15.7407 3.62427 15.6593 3.27417 15.6593C2.92408 15.6593 2.58724 15.7407 2.28824 15.8789C1.99681 16.0094 1.66753 16.0851 1.3269 16.0851V14.6469C1.66753 14.6469 1.99681 14.5693 2.28824 14.4388C2.58724 14.3006 2.92408 14.2192 3.27417 14.2192C3.62427 14.2192 3.9649 14.3006 4.26011 14.4388C4.55532 14.5693 4.88081 14.6469 5.22523 14.6469C5.56586 14.6469 5.89135 14.5693 6.18278 14.4388C6.48177 14.3006 6.81862 14.2192 7.1725 14.2192C7.52448 14.2192 7.85943 14.3006 8.15843 14.4388C8.44986 14.5693 8.77913 14.6469 9.11976 14.6469C9.46039 14.6469 9.78967 14.5693 10.0773 14.4388C10.3801 14.3006 10.7169 14.2192 11.067 14.2192C11.4171 14.2192 11.754 14.3006 12.053 14.4388C12.3482 14.5693 12.6737 14.6469 13.0143 14.6469C13.3587 14.6469 13.6842 14.5693 13.9756 14.4388C14.2746 14.3006 14.6115 14.2192 14.9616 14.2192C15.3173 14.2192 15.6523 14.3006 15.9513 14.4388C16.2427 14.5693 16.5682 14.6469 16.9088 14.6469V16.0851Z" fill="white"/>
<path d="M9.69509 10.0938L8.28715 6.74051L9.70644 6.14441L9.34121 5.27202C8.8675 5.4714 8.39363 5.67037 7.92003 5.87002L7.21417 4.18958L6.34178 4.55481L7.04764 6.23714C6.30204 6.54938 5.52616 6.87677 5.52616 6.87677L5.89139 7.74916L7.41476 7.10953L8.8227 10.4609C5.92167 11.6759 3.09823 12.8756 3.27043 12.8756C3.62242 12.8756 3.96116 12.957 4.25637 13.0952C4.55158 13.2257 4.87707 13.3014 5.22149 13.3014C5.56212 13.3014 5.88761 13.2257 6.17903 13.0952C6.47803 12.957 6.81488 12.8756 7.16875 12.8756C7.52074 12.8756 7.85569 12.957 8.15469 13.0952C8.44611 13.2257 8.77539 13.3014 9.11602 13.3014C9.45665 13.3014 9.78592 13.2257 10.0736 13.0952C10.3763 12.957 10.7132 12.8756 11.0633 12.8756C11.4134 12.8756 11.7502 12.957 12.0492 13.0952C12.3444 13.2257 12.6699 13.3014 13.0106 13.3014C13.1071 13.3014 13.1998 13.2806 13.2944 13.2693C13.4647 13.2314 13.6388 13.2163 13.8054 13.15C13.8091 13.1481 13.8129 13.1462 13.8167 13.1444C14.1252 11.4166 14.8367 7.95732 14.8367 7.95732C14.8367 7.95732 12.3596 8.9811 9.69509 10.0938Z" fill="white"/>
</svg>
