<svg width="18" height="18" viewBox="0 0 18 18" fill="none" xmlns="http://www.w3.org/2000/svg">
<path d="M3.00556 11.5079C3.18076 11.5596 3.61105 11.5161 3.46357 11.2254C3.38174 11.0641 2.99674 10.8611 2.82668 10.813C2.57042 10.7404 2.13988 11.0554 2.46891 11.2575L2.39735 11.4721C2.12182 11.3405 2.04329 10.9375 2.06572 10.6492C2.0815 10.4465 2.26456 10.2327 2.33709 10.041C2.53521 9.51743 2.69795 9.00285 2.85205 8.46684C2.91364 8.25257 2.93189 7.84707 3.11817 7.70579C3.29271 7.57338 3.56075 7.55409 3.75674 7.45656C3.90121 7.38465 3.99559 7.23671 4.15097 7.18866C4.48459 7.08552 4.81327 7.1121 4.9733 6.74954C5.31118 7.25961 5.59325 7.73491 5.64931 8.35951C5.68917 8.80354 5.38606 9.2588 5.28374 9.68326C5.21222 9.97996 5.23426 10.2822 5.15634 10.5777C5.05913 10.9462 4.86955 11.2868 4.77706 11.651C4.72125 11.8707 4.77127 12.1207 4.70268 12.3307C4.57993 12.7067 3.87917 12.9314 3.96249 13.4039C4.00099 13.6223 4.25558 13.6652 4.43665 13.7022C4.8571 13.7883 5.30971 13.7352 5.72462 13.6702C5.86279 13.6486 6.03055 13.6753 6.13842 13.5674C6.39884 13.3071 6.09116 12.815 6.17552 12.5097C6.23595 12.2908 6.44295 12.1001 6.55107 11.9014C6.78613 11.4694 6.98515 11.0143 7.11993 10.5419H7.1557C7.16429 10.9583 7.26479 11.4801 7.42453 11.8657C7.52539 12.1091 7.78509 12.4583 7.77801 12.7243C7.76585 13.1801 7.07524 13.4782 7.40647 14.0116C7.73969 14.5482 8.52729 14.0084 8.94456 13.9139C9.17332 13.8622 9.48007 13.9299 9.59234 13.653C9.74732 13.2707 9.43274 12.9084 9.37997 12.5454C9.31954 12.1301 9.39757 11.7121 9.32147 11.2932C9.2658 10.9867 9.01626 10.6299 9.02463 10.3272C9.0305 10.1143 9.18169 9.86207 9.23078 9.64748L10.5903 10.2859L11.1627 10.6135C11.1652 10.9176 11.1569 11.2809 11.2103 11.5794C11.2358 11.722 11.3697 11.8661 11.3289 12.0134C11.2492 12.3006 10.5464 12.5952 10.7046 12.8994C10.7915 13.0667 11.0315 13.1239 11.1985 13.1669C11.6215 13.2756 12.7296 13.439 13.0405 13.0424C13.1776 12.8677 13.1662 12.5769 13.1663 12.3665C13.1665 11.8364 13.2224 11.2747 13.0947 10.7566C13.5551 11.0405 13.6598 11.611 13.8905 12.0803C13.9705 12.2429 14.137 12.5007 14.0825 12.688C13.9984 12.9769 13.1367 13.4279 13.5354 13.8179C13.646 13.9261 13.8469 13.9341 13.9891 13.9774C14.4006 14.1026 15.6497 14.307 15.8442 13.7613C16.026 13.2513 15.9796 12.3508 15.8531 11.8299C15.7787 11.5233 15.6057 11.2574 15.5755 10.9355C15.5477 10.6393 15.7529 10.3395 15.7748 10.041C15.8052 9.62555 15.6768 9.2607 15.664 8.86039C15.6558 8.60286 15.7422 8.33768 15.7422 8.07329C16.1352 9.11494 15.7238 10.2357 16.0099 11.2932C16.0515 11.4472 16.0678 12.3202 16.3761 12.2323C16.4918 12.1994 16.526 11.9989 16.5028 11.9014C16.4015 11.4763 16.2181 11.1005 16.2171 10.6492C16.2166 10.4248 16.3191 10.1936 16.3442 9.96948C16.4923 8.64601 16.6991 6.80549 15.5632 5.83504C15.0566 5.40231 14.508 5.08625 13.9534 4.72796C13.5193 4.44759 13.0752 4.12026 12.558 4.00866C12.1787 3.92681 11.7629 4.04778 11.3774 4.02904C10.5368 3.98817 9.71108 3.82906 8.873 3.75033C8.49162 3.7145 8.11385 3.78803 7.72814 3.71549C6.89936 3.55962 6.28639 2.93334 5.47418 2.7285C5.21691 2.66362 4.77105 2.70808 4.5082 2.75426C4.25998 2.79787 4.12853 2.97174 3.93523 3.10938C3.37388 3.50912 2.6377 4.15012 2.32687 4.78177C2.13607 5.16952 2.11561 5.6877 1.9932 6.10555C1.81479 6.71458 1.47584 7.22129 1.37552 7.85863C1.27046 8.52612 1.43141 9.22728 1.43137 9.89792C1.43134 10.4021 1.14931 11.0188 1.32882 11.5079C1.57974 12.1916 2.9118 12.4175 3.00556 11.5079Z" fill="white"/>
</svg>
