<svg width="1240" height="1240" viewBox="0 0 1240 1240" fill="none" xmlns="http://www.w3.org/2000/svg">
<circle cx="620" cy="620" r="617" fill="#FFC93A" fill-opacity="0.2" stroke="#FFC93A" stroke-width="6"/>
<circle cx="256" cy="523" r="115" fill="#87CC2E"/>
<circle cx="256" cy="523" r="115" fill="url(#paint0_linear)" fill-opacity="0.5" style="mix-blend-mode:soft-light"/>
<path d="M208.423 523.05H211.498V530.025C210.598 530.742 209.548 531.292 208.348 531.675C207.148 532.058 205.914 532.25 204.648 532.25C202.864 532.25 201.256 531.867 199.823 531.1C198.389 530.317 197.264 529.242 196.448 527.875C195.631 526.508 195.223 524.967 195.223 523.25C195.223 521.533 195.631 519.992 196.448 518.625C197.264 517.258 198.389 516.192 199.823 515.425C201.273 514.642 202.898 514.25 204.698 514.25C206.164 514.25 207.498 514.492 208.698 514.975C209.898 515.458 210.906 516.167 211.723 517.1L209.673 519.1C208.339 517.767 206.731 517.1 204.848 517.1C203.614 517.1 202.514 517.358 201.548 517.875C200.598 518.392 199.848 519.117 199.298 520.05C198.764 520.983 198.498 522.05 198.498 523.25C198.498 524.417 198.764 525.467 199.298 526.4C199.848 527.333 200.598 528.067 201.548 528.6C202.514 529.133 203.606 529.4 204.823 529.4C206.189 529.4 207.389 529.1 208.423 528.5V523.05ZM228.034 525.4C228.034 525.617 228.018 525.925 227.984 526.325H217.509C217.693 527.308 218.168 528.092 218.934 528.675C219.718 529.242 220.684 529.525 221.834 529.525C223.301 529.525 224.509 529.042 225.459 528.075L227.134 530C226.534 530.717 225.776 531.258 224.859 531.625C223.943 531.992 222.909 532.175 221.759 532.175C220.293 532.175 219.001 531.883 217.884 531.3C216.768 530.717 215.901 529.908 215.284 528.875C214.684 527.825 214.384 526.642 214.384 525.325C214.384 524.025 214.676 522.858 215.259 521.825C215.859 520.775 216.684 519.958 217.734 519.375C218.784 518.792 219.968 518.5 221.284 518.5C222.584 518.5 223.743 518.792 224.759 519.375C225.793 519.942 226.593 520.75 227.159 521.8C227.743 522.833 228.034 524.033 228.034 525.4ZM221.284 521C220.284 521 219.434 521.3 218.734 521.9C218.051 522.483 217.634 523.267 217.484 524.25H225.059C224.926 523.283 224.518 522.5 223.834 521.9C223.151 521.3 222.301 521 221.284 521ZM237.036 532.175C235.686 532.175 234.469 531.883 233.386 531.3C232.303 530.717 231.453 529.908 230.836 528.875C230.236 527.825 229.936 526.642 229.936 525.325C229.936 524.008 230.236 522.833 230.836 521.8C231.453 520.767 232.303 519.958 233.386 519.375C234.469 518.792 235.686 518.5 237.036 518.5C238.403 518.5 239.628 518.792 240.711 519.375C241.794 519.958 242.636 520.767 243.236 521.8C243.853 522.833 244.161 524.008 244.161 525.325C244.161 526.642 243.853 527.825 243.236 528.875C242.636 529.908 241.794 530.717 240.711 531.3C239.628 531.883 238.403 532.175 237.036 532.175ZM237.036 529.5C238.186 529.5 239.136 529.117 239.886 528.35C240.636 527.583 241.011 526.575 241.011 525.325C241.011 524.075 240.636 523.067 239.886 522.3C239.136 521.533 238.186 521.15 237.036 521.15C235.886 521.15 234.936 521.533 234.186 522.3C233.453 523.067 233.086 524.075 233.086 525.325C233.086 526.575 233.453 527.583 234.186 528.35C234.936 529.117 235.886 529.5 237.036 529.5ZM265.709 527.95H256.959L255.234 532H251.884L259.759 514.5H262.959L270.859 532H267.459L265.709 527.95ZM264.634 525.4L261.334 517.75L258.059 525.4H264.634ZM280.184 518.5C281.484 518.5 282.642 518.783 283.659 519.35C284.692 519.917 285.501 520.717 286.084 521.75C286.667 522.783 286.959 523.975 286.959 525.325C286.959 526.675 286.667 527.875 286.084 528.925C285.501 529.958 284.692 530.758 283.659 531.325C282.642 531.892 281.484 532.175 280.184 532.175C278.384 532.175 276.959 531.575 275.909 530.375V536.85H272.784V518.65H275.759V520.4C276.276 519.767 276.909 519.292 277.659 518.975C278.426 518.658 279.267 518.5 280.184 518.5ZM279.834 529.5C280.984 529.5 281.926 529.117 282.659 528.35C283.409 527.583 283.784 526.575 283.784 525.325C283.784 524.075 283.409 523.067 282.659 522.3C281.926 521.533 280.984 521.15 279.834 521.15C279.084 521.15 278.409 521.325 277.809 521.675C277.209 522.008 276.734 522.492 276.384 523.125C276.034 523.758 275.859 524.492 275.859 525.325C275.859 526.158 276.034 526.892 276.384 527.525C276.734 528.158 277.209 528.65 277.809 529C278.409 529.333 279.084 529.5 279.834 529.5ZM297.323 518.5C298.623 518.5 299.781 518.783 300.798 519.35C301.831 519.917 302.639 520.717 303.223 521.75C303.806 522.783 304.098 523.975 304.098 525.325C304.098 526.675 303.806 527.875 303.223 528.925C302.639 529.958 301.831 530.758 300.798 531.325C299.781 531.892 298.623 532.175 297.323 532.175C295.523 532.175 294.098 531.575 293.048 530.375V536.85H289.923V518.65H292.898V520.4C293.414 519.767 294.048 519.292 294.798 518.975C295.564 518.658 296.406 518.5 297.323 518.5ZM296.973 529.5C298.123 529.5 299.064 529.117 299.798 528.35C300.548 527.583 300.923 526.575 300.923 525.325C300.923 524.075 300.548 523.067 299.798 522.3C299.064 521.533 298.123 521.15 296.973 521.15C296.223 521.15 295.548 521.325 294.948 521.675C294.348 522.008 293.873 522.492 293.523 523.125C293.173 523.758 292.998 524.492 292.998 525.325C292.998 526.158 293.173 526.892 293.523 527.525C293.873 528.158 294.348 528.65 294.948 529C295.548 529.333 296.223 529.5 296.973 529.5ZM311.186 532.175C310.103 532.175 309.045 532.033 308.011 531.75C306.978 531.467 306.153 531.108 305.536 530.675L306.736 528.3C307.336 528.7 308.053 529.025 308.886 529.275C309.736 529.508 310.57 529.625 311.386 529.625C313.253 529.625 314.186 529.133 314.186 528.15C314.186 527.683 313.945 527.358 313.461 527.175C312.995 526.992 312.236 526.817 311.186 526.65C310.086 526.483 309.186 526.292 308.486 526.075C307.803 525.858 307.203 525.483 306.686 524.95C306.186 524.4 305.936 523.642 305.936 522.675C305.936 521.408 306.461 520.4 307.511 519.65C308.578 518.883 310.011 518.5 311.811 518.5C312.728 518.5 313.645 518.608 314.561 518.825C315.478 519.025 316.228 519.3 316.811 519.65L315.611 522.025C314.478 521.358 313.203 521.025 311.786 521.025C310.87 521.025 310.17 521.167 309.686 521.45C309.22 521.717 308.986 522.075 308.986 522.525C308.986 523.025 309.236 523.383 309.736 523.6C310.253 523.8 311.045 523.992 312.111 524.175C313.178 524.342 314.053 524.533 314.736 524.75C315.42 524.967 316.003 525.333 316.486 525.85C316.986 526.367 317.236 527.1 317.236 528.05C317.236 529.3 316.695 530.3 315.611 531.05C314.528 531.8 313.053 532.175 311.186 532.175Z" fill="white"/>
<path d="M398.086 628.415C397.305 627.634 397.305 626.368 398.086 625.587L410.814 612.859C411.595 612.078 412.861 612.078 413.642 612.859C414.423 613.64 414.423 614.906 413.642 615.687L402.328 627.001L413.642 638.315C414.423 639.096 414.423 640.362 413.642 641.143C412.861 641.924 411.595 641.924 410.814 641.143L398.086 628.415ZM858.5 629L399.5 629.001L399.5 625.001L858.5 625L858.5 629Z" fill="url(#paint1_linear)"/>
<path d="M430.6 606L429.2 601.88L423.56 601.88L422.16 606L420.46 606L425.34 592.04L427.48 592.04L432.36 606L430.6 606ZM426.42 593.6L426.32 593.6L423.96 600.4L428.78 600.4L426.42 593.6ZM434.712 606L434.712 595.68L436.312 595.68L436.312 597.36L436.392 597.36C436.512 597.093 436.646 596.847 436.792 596.62C436.952 596.38 437.139 596.173 437.352 596C437.579 595.827 437.839 595.693 438.132 595.6C438.426 595.493 438.772 595.44 439.172 595.44C439.852 595.44 440.479 595.607 441.052 595.94C441.626 596.26 442.052 596.793 442.332 597.54L442.372 597.54C442.559 596.98 442.906 596.493 443.412 596.08C443.932 595.653 444.632 595.44 445.512 595.44C446.566 595.44 447.386 595.787 447.972 596.48C448.572 597.16 448.872 598.127 448.872 599.38L448.872 606L447.272 606L447.272 599.66C447.272 598.74 447.092 598.047 446.732 597.58C446.372 597.113 445.799 596.88 445.012 596.88C444.692 596.88 444.386 596.92 444.092 597C443.812 597.08 443.559 597.2 443.332 597.36C443.106 597.52 442.926 597.727 442.792 597.98C442.659 598.22 442.592 598.507 442.592 598.84L442.592 606L440.992 606L440.992 599.66C440.992 598.74 440.812 598.047 440.452 597.58C440.092 597.113 439.532 596.88 438.772 596.88C438.452 596.88 438.146 596.92 437.852 597C437.559 597.08 437.299 597.2 437.072 597.36C436.846 597.52 436.659 597.727 436.512 597.98C436.379 598.22 436.312 598.507 436.312 598.84L436.312 606L434.712 606ZM452.373 591.2L453.973 591.2L453.973 597.36L454.053 597.36C454.32 596.707 454.707 596.227 455.213 595.92C455.733 595.6 456.353 595.44 457.073 595.44C457.713 595.44 458.293 595.567 458.813 595.82C459.333 596.073 459.773 596.433 460.133 596.9C460.507 597.367 460.787 597.933 460.973 598.6C461.173 599.267 461.273 600.013 461.273 600.84C461.273 601.667 461.173 602.413 460.973 603.08C460.787 603.747 460.507 604.313 460.133 604.78C459.773 605.247 459.333 605.607 458.813 605.86C458.293 606.113 457.713 606.24 457.073 606.24C455.673 606.24 454.667 605.6 454.053 604.32L453.973 604.32L453.973 606L452.373 606L452.373 591.2ZM456.633 604.8C457.54 604.8 458.253 604.52 458.773 603.96C459.293 603.387 459.553 602.64 459.553 601.72L459.553 599.96C459.553 599.04 459.293 598.3 458.773 597.74C458.253 597.167 457.54 596.88 456.633 596.88C456.273 596.88 455.927 596.933 455.593 597.04C455.273 597.133 454.993 597.267 454.753 597.44C454.513 597.613 454.32 597.827 454.173 598.08C454.04 598.32 453.973 598.58 453.973 598.86L453.973 602.7C453.973 603.033 454.04 603.333 454.173 603.6C454.32 603.853 454.513 604.073 454.753 604.26C454.993 604.433 455.273 604.567 455.593 604.66C455.927 604.753 456.273 604.8 456.633 604.8ZM471.675 606C471.075 606 470.642 605.84 470.375 605.52C470.122 605.2 469.962 604.8 469.895 604.32L469.795 604.32C469.568 604.96 469.195 605.44 468.675 605.76C468.155 606.08 467.535 606.24 466.815 606.24C465.722 606.24 464.868 605.96 464.255 605.4C463.655 604.84 463.355 604.08 463.355 603.12C463.355 602.147 463.708 601.4 464.415 600.88C465.135 600.36 466.248 600.1 467.755 600.1L469.795 600.1L469.795 599.08C469.795 598.347 469.595 597.787 469.195 597.4C468.795 597.013 468.182 596.82 467.355 596.82C466.728 596.82 466.202 596.96 465.775 597.24C465.362 597.52 465.015 597.893 464.735 598.36L463.775 597.46C464.055 596.9 464.502 596.427 465.115 596.04C465.728 595.64 466.502 595.44 467.435 595.44C468.688 595.44 469.662 595.747 470.355 596.36C471.048 596.973 471.395 597.827 471.395 598.92L471.395 604.6L472.575 604.6L472.575 606L471.675 606ZM467.075 604.88C467.475 604.88 467.842 604.833 468.175 604.74C468.508 604.647 468.795 604.513 469.035 604.34C469.275 604.167 469.462 603.967 469.595 603.74C469.728 603.513 469.795 603.267 469.795 603L469.795 601.3L467.675 601.3C466.755 601.3 466.082 601.433 465.655 601.7C465.242 601.967 465.035 602.353 465.035 602.86L465.035 603.28C465.035 603.787 465.215 604.18 465.575 604.46C465.948 604.74 466.448 604.88 467.075 604.88ZM478.159 606.24C477.199 606.24 476.392 606.06 475.739 605.7C475.099 605.327 474.545 604.833 474.079 604.22L475.219 603.3C475.619 603.807 476.065 604.2 476.559 604.48C477.052 604.747 477.625 604.88 478.279 604.88C478.959 604.88 479.485 604.733 479.859 604.44C480.245 604.147 480.439 603.733 480.439 603.2C480.439 602.8 480.305 602.46 480.039 602.18C479.785 601.887 479.319 601.687 478.639 601.58L477.819 601.46C477.339 601.393 476.899 601.293 476.499 601.16C476.099 601.013 475.745 600.827 475.439 600.6C475.145 600.36 474.912 600.067 474.739 599.72C474.579 599.373 474.499 598.96 474.499 598.48C474.499 597.973 474.592 597.533 474.779 597.16C474.965 596.773 475.219 596.453 475.539 596.2C475.872 595.947 476.265 595.76 476.719 595.64C477.172 595.507 477.659 595.44 478.179 595.44C479.019 595.44 479.719 595.587 480.279 595.88C480.852 596.173 481.352 596.58 481.779 597.1L480.719 598.06C480.492 597.74 480.159 597.453 479.719 597.2C479.279 596.933 478.725 596.8 478.059 596.8C477.392 596.8 476.885 596.947 476.539 597.24C476.205 597.52 476.039 597.907 476.039 598.4C476.039 598.907 476.205 599.273 476.539 599.5C476.885 599.727 477.379 599.893 478.019 600L478.819 600.12C479.965 600.293 480.779 600.627 481.259 601.12C481.739 601.6 481.979 602.233 481.979 603.02C481.979 604.02 481.639 604.807 480.959 605.38C480.279 605.953 479.345 606.24 478.159 606.24ZM487.987 606.24C487.027 606.24 486.221 606.06 485.567 605.7C484.927 605.327 484.374 604.833 483.907 604.22L485.047 603.3C485.447 603.807 485.894 604.2 486.387 604.48C486.881 604.747 487.454 604.88 488.107 604.88C488.787 604.88 489.314 604.733 489.687 604.44C490.074 604.147 490.267 603.733 490.267 603.2C490.267 602.8 490.134 602.46 489.867 602.18C489.614 601.887 489.147 601.687 488.467 601.58L487.647 601.46C487.167 601.393 486.727 601.293 486.327 601.16C485.927 601.013 485.574 600.827 485.267 600.6C484.974 600.36 484.741 600.067 484.567 599.72C484.407 599.373 484.327 598.96 484.327 598.48C484.327 597.973 484.421 597.533 484.607 597.16C484.794 596.773 485.047 596.453 485.367 596.2C485.701 595.947 486.094 595.76 486.547 595.64C487.001 595.507 487.487 595.44 488.007 595.44C488.847 595.44 489.547 595.587 490.107 595.88C490.681 596.173 491.181 596.58 491.607 597.1L490.547 598.06C490.321 597.74 489.987 597.453 489.547 597.2C489.107 596.933 488.554 596.8 487.887 596.8C487.221 596.8 486.714 596.947 486.367 597.24C486.034 597.52 485.867 597.907 485.867 598.4C485.867 598.907 486.034 599.273 486.367 599.5C486.714 599.727 487.207 599.893 487.847 600L488.647 600.12C489.794 600.293 490.607 600.627 491.087 601.12C491.567 601.6 491.807 602.233 491.807 603.02C491.807 604.02 491.467 604.807 490.787 605.38C490.107 605.953 489.174 606.24 487.987 606.24ZM502.334 606C501.734 606 501.3 605.84 501.034 605.52C500.78 605.2 500.62 604.8 500.554 604.32L500.454 604.32C500.227 604.96 499.854 605.44 499.334 605.76C498.814 606.08 498.194 606.24 497.474 606.24C496.38 606.24 495.527 605.96 494.914 605.4C494.314 604.84 494.014 604.08 494.014 603.12C494.014 602.147 494.367 601.4 495.074 600.88C495.794 600.36 496.907 600.1 498.414 600.1L500.454 600.1L500.454 599.08C500.454 598.347 500.254 597.787 499.854 597.4C499.454 597.013 498.84 596.82 498.014 596.82C497.387 596.82 496.86 596.96 496.434 597.24C496.02 597.52 495.674 597.893 495.394 598.36L494.434 597.46C494.714 596.9 495.16 596.427 495.774 596.04C496.387 595.64 497.16 595.44 498.094 595.44C499.347 595.44 500.32 595.747 501.014 596.36C501.707 596.973 502.054 597.827 502.054 598.92L502.054 604.6L503.234 604.6L503.234 606L502.334 606ZM497.734 604.88C498.134 604.88 498.5 604.833 498.834 604.74C499.167 604.647 499.454 604.513 499.694 604.34C499.934 604.167 500.12 603.967 500.254 603.74C500.387 603.513 500.454 603.267 500.454 603L500.454 601.3L498.334 601.3C497.414 601.3 496.74 601.433 496.314 601.7C495.9 601.967 495.694 602.353 495.694 602.86L495.694 603.28C495.694 603.787 495.874 604.18 496.234 604.46C496.607 604.74 497.107 604.88 497.734 604.88ZM512.317 604.32L512.237 604.32C511.611 605.6 510.604 606.24 509.217 606.24C508.577 606.24 507.997 606.113 507.477 605.86C506.957 605.607 506.511 605.247 506.137 604.78C505.777 604.313 505.497 603.747 505.297 603.08C505.111 602.413 505.017 601.667 505.017 600.84C505.017 600.013 505.111 599.267 505.297 598.6C505.497 597.933 505.777 597.367 506.137 596.9C506.511 596.433 506.957 596.073 507.477 595.82C507.997 595.567 508.577 595.44 509.217 595.44C509.937 595.44 510.551 595.6 511.057 595.92C511.577 596.227 511.971 596.707 512.237 597.36L512.317 597.36L512.317 591.2L513.917 591.2L513.917 606L512.317 606L512.317 604.32ZM509.657 604.8C510.017 604.8 510.357 604.753 510.677 604.66C511.011 604.567 511.297 604.433 511.537 604.26C511.777 604.073 511.964 603.853 512.097 603.6C512.244 603.333 512.317 603.033 512.317 602.7L512.317 598.86C512.317 598.58 512.244 598.32 512.097 598.08C511.964 597.827 511.777 597.613 511.537 597.44C511.297 597.267 511.011 597.133 510.677 597.04C510.357 596.933 510.017 596.88 509.657 596.88C508.751 596.88 508.037 597.167 507.517 597.74C506.997 598.3 506.737 599.04 506.737 599.96L506.737 601.72C506.737 602.64 506.997 603.387 507.517 603.96C508.037 604.52 508.751 604.8 509.657 604.8ZM521.419 606.24C520.725 606.24 520.092 606.113 519.519 605.86C518.945 605.607 518.452 605.247 518.039 604.78C517.639 604.3 517.325 603.733 517.099 603.08C516.872 602.413 516.759 601.667 516.759 600.84C516.759 600.027 516.872 599.287 517.099 598.62C517.325 597.953 517.639 597.387 518.039 596.92C518.452 596.44 518.945 596.073 519.519 595.82C520.092 595.567 520.725 595.44 521.419 595.44C522.112 595.44 522.739 595.567 523.299 595.82C523.872 596.073 524.365 596.44 524.779 596.92C525.192 597.387 525.512 597.953 525.739 598.62C525.965 599.287 526.079 600.027 526.079 600.84C526.079 601.667 525.965 602.413 525.739 603.08C525.512 603.733 525.192 604.3 524.779 604.78C524.365 605.247 523.872 605.607 523.299 605.86C522.739 606.113 522.112 606.24 521.419 606.24ZM521.419 604.82C522.285 604.82 522.992 604.553 523.539 604.02C524.085 603.487 524.359 602.673 524.359 601.58L524.359 600.1C524.359 599.007 524.085 598.193 523.539 597.66C522.992 597.127 522.285 596.86 521.419 596.86C520.552 596.86 519.845 597.127 519.299 597.66C518.752 598.193 518.479 599.007 518.479 600.1L518.479 601.58C518.479 602.673 518.752 603.487 519.299 604.02C519.845 604.553 520.552 604.82 521.419 604.82ZM528.91 606L528.91 595.68L530.51 595.68L530.51 597.58L530.61 597.58C530.797 597.087 531.13 596.647 531.61 596.26C532.09 595.873 532.75 595.68 533.59 595.68L534.21 595.68L534.21 597.28L533.27 597.28C532.403 597.28 531.723 597.447 531.23 597.78C530.75 598.1 530.51 598.507 530.51 599L530.51 606L528.91 606ZM539.554 606.24C538.594 606.24 537.787 606.06 537.134 605.7C536.494 605.327 535.941 604.833 535.474 604.22L536.614 603.3C537.014 603.807 537.461 604.2 537.954 604.48C538.447 604.747 539.021 604.88 539.674 604.88C540.354 604.88 540.881 604.733 541.254 604.44C541.641 604.147 541.834 603.733 541.834 603.2C541.834 602.8 541.701 602.46 541.434 602.18C541.181 601.887 540.714 601.687 540.034 601.58L539.214 601.46C538.734 601.393 538.294 601.293 537.894 601.16C537.494 601.013 537.141 600.827 536.834 600.6C536.541 600.36 536.307 600.067 536.134 599.72C535.974 599.373 535.894 598.96 535.894 598.48C535.894 597.973 535.987 597.533 536.174 597.16C536.361 596.773 536.614 596.453 536.934 596.2C537.267 595.947 537.661 595.76 538.114 595.64C538.567 595.507 539.054 595.44 539.574 595.44C540.414 595.44 541.114 595.587 541.674 595.88C542.247 596.173 542.747 596.58 543.174 597.1L542.114 598.06C541.887 597.74 541.554 597.453 541.114 597.2C540.674 596.933 540.121 596.8 539.454 596.8C538.787 596.8 538.281 596.947 537.934 597.24C537.601 597.52 537.434 597.907 537.434 598.4C537.434 598.907 537.601 599.273 537.934 599.5C538.281 599.727 538.774 599.893 539.414 600L540.214 600.12C541.361 600.293 542.174 600.627 542.654 601.12C543.134 601.6 543.374 602.233 543.374 603.02C543.374 604.02 543.034 604.807 542.354 605.38C541.674 605.953 540.741 606.24 539.554 606.24Z" fill="black"/>
<path d="M843.901 437.9L842.68 439.484L843.901 437.9ZM854.015 447.484C855.111 447.342 855.884 446.339 855.742 445.244L853.434 427.392C853.292 426.297 852.289 425.524 851.194 425.665C850.098 425.807 849.325 426.81 849.467 427.905L851.519 443.773L835.651 445.825C834.555 445.967 833.782 446.969 833.924 448.065C834.065 449.16 835.068 449.933 836.164 449.792L854.015 447.484ZM842.68 439.484L852.537 447.084L854.98 443.916L845.122 436.316L842.68 439.484ZM403.62 446.545C530.425 342.108 712.582 339.178 842.68 439.484L845.122 436.316C713.547 334.872 529.322 337.835 401.077 443.458L403.62 446.545Z" fill="url(#paint2_linear)"/>
<path d="M724.947 451L723.547 446.88L717.907 446.88L716.507 451L714.807 451L719.687 437.04L721.827 437.04L726.707 451L724.947 451ZM720.767 438.6L720.667 438.6L718.307 445.4L723.127 445.4L720.767 438.6ZM732.899 451.24C732.179 451.24 731.533 451.113 730.959 450.86C730.386 450.607 729.899 450.247 729.499 449.78C729.113 449.313 728.813 448.747 728.599 448.08C728.399 447.413 728.299 446.667 728.299 445.84C728.299 445.013 728.399 444.267 728.599 443.6C728.813 442.933 729.113 442.367 729.499 441.9C729.899 441.433 730.386 441.073 730.959 440.82C731.533 440.567 732.179 440.44 732.899 440.44C733.926 440.44 734.746 440.667 735.359 441.12C735.986 441.56 736.453 442.14 736.759 442.86L735.419 443.54C735.233 443.007 734.926 442.593 734.499 442.3C734.073 442.007 733.539 441.86 732.899 441.86C732.419 441.86 731.999 441.94 731.639 442.1C731.279 442.247 730.979 442.46 730.739 442.74C730.499 443.007 730.319 443.333 730.199 443.72C730.079 444.093 730.019 444.507 730.019 444.96L730.019 446.72C730.019 447.627 730.259 448.373 730.739 448.96C731.233 449.533 731.953 449.82 732.899 449.82C734.193 449.82 735.126 449.22 735.699 448.02L736.859 448.8C736.526 449.547 736.026 450.14 735.359 450.58C734.706 451.02 733.886 451.24 732.899 451.24ZM741.598 451C741.038 451 740.611 450.847 740.318 450.54C740.038 450.22 739.898 449.807 739.898 449.3L739.898 442.08L738.198 442.08L738.198 440.68L739.158 440.68C739.505 440.68 739.738 440.613 739.858 440.48C739.991 440.333 740.058 440.087 740.058 439.74L740.058 437.82L741.498 437.82L741.498 440.68L743.758 440.68L743.758 442.08L741.498 442.08L741.498 449.6L743.598 449.6L743.598 451L741.598 451ZM747.33 438.26C746.983 438.26 746.73 438.18 746.57 438.02C746.423 437.847 746.35 437.627 746.35 437.36L746.35 437.1C746.35 436.833 746.423 436.62 746.57 436.46C746.73 436.287 746.983 436.2 747.33 436.2C747.676 436.2 747.923 436.287 748.07 436.46C748.23 436.62 748.31 436.833 748.31 437.1L748.31 437.36C748.31 437.627 748.23 437.847 748.07 438.02C747.923 438.18 747.676 438.26 747.33 438.26ZM746.53 440.68L748.13 440.68L748.13 451L746.53 451L746.53 440.68ZM754.01 451L750.39 440.68L751.99 440.68L753.79 445.8L754.91 449.32L755.01 449.32L756.13 445.8L757.97 440.68L759.51 440.68L755.87 451L754.01 451ZM765.497 451.24C764.791 451.24 764.151 451.113 763.577 450.86C763.017 450.607 762.531 450.247 762.117 449.78C761.717 449.3 761.404 448.733 761.177 448.08C760.964 447.413 760.857 446.667 760.857 445.84C760.857 445.027 760.964 444.287 761.177 443.62C761.404 442.953 761.717 442.387 762.117 441.92C762.531 441.44 763.017 441.073 763.577 440.82C764.151 440.567 764.791 440.44 765.497 440.44C766.191 440.44 766.811 440.567 767.357 440.82C767.904 441.073 768.371 441.427 768.757 441.88C769.144 442.32 769.437 442.847 769.637 443.46C769.851 444.073 769.957 444.747 769.957 445.48L769.957 446.24L762.537 446.24L762.537 446.72C762.537 447.16 762.604 447.573 762.737 447.96C762.884 448.333 763.084 448.66 763.337 448.94C763.604 449.22 763.924 449.44 764.297 449.6C764.684 449.76 765.117 449.84 765.597 449.84C766.251 449.84 766.817 449.687 767.297 449.38C767.791 449.073 768.171 448.633 768.437 448.06L769.577 448.88C769.244 449.587 768.724 450.16 768.017 450.6C767.311 451.027 766.471 451.24 765.497 451.24ZM765.497 441.78C765.057 441.78 764.657 441.86 764.297 442.02C763.937 442.167 763.624 442.38 763.357 442.66C763.104 442.94 762.904 443.273 762.757 443.66C762.611 444.033 762.537 444.447 762.537 444.9L762.537 445.04L768.237 445.04L768.237 444.82C768.237 443.9 767.984 443.167 767.477 442.62C766.984 442.06 766.324 441.78 765.497 441.78ZM784.08 449.32L784 449.32C783.894 449.56 783.76 449.8 783.6 450.04C783.454 450.267 783.267 450.473 783.04 450.66C782.814 450.833 782.54 450.973 782.22 451.08C781.9 451.187 781.527 451.24 781.1 451.24C780.034 451.24 779.187 450.9 778.56 450.22C777.934 449.527 777.62 448.553 777.62 447.3L777.62 440.68L779.22 440.68L779.22 447.02C779.22 448.873 780.007 449.8 781.58 449.8C781.9 449.8 782.207 449.76 782.5 449.68C782.807 449.6 783.074 449.48 783.3 449.32C783.54 449.16 783.727 448.96 783.86 448.72C784.007 448.467 784.08 448.167 784.08 447.82L784.08 440.68L785.68 440.68L785.68 451L784.08 451L784.08 449.32ZM792.388 451.24C791.428 451.24 790.621 451.06 789.968 450.7C789.328 450.327 788.774 449.833 788.308 449.22L789.448 448.3C789.848 448.807 790.294 449.2 790.788 449.48C791.281 449.747 791.854 449.88 792.508 449.88C793.188 449.88 793.714 449.733 794.088 449.44C794.474 449.147 794.668 448.733 794.668 448.2C794.668 447.8 794.534 447.46 794.268 447.18C794.014 446.887 793.548 446.687 792.868 446.58L792.048 446.46C791.568 446.393 791.128 446.293 790.728 446.16C790.328 446.013 789.974 445.827 789.668 445.6C789.374 445.36 789.141 445.067 788.968 444.72C788.808 444.373 788.728 443.96 788.728 443.48C788.728 442.973 788.821 442.533 789.008 442.16C789.194 441.773 789.448 441.453 789.768 441.2C790.101 440.947 790.494 440.76 790.948 440.64C791.401 440.507 791.888 440.44 792.408 440.44C793.248 440.44 793.948 440.587 794.508 440.88C795.081 441.173 795.581 441.58 796.008 442.1L794.948 443.06C794.721 442.74 794.388 442.453 793.948 442.2C793.508 441.933 792.954 441.8 792.288 441.8C791.621 441.8 791.114 441.947 790.768 442.24C790.434 442.52 790.268 442.907 790.268 443.4C790.268 443.907 790.434 444.273 790.768 444.5C791.114 444.727 791.608 444.893 792.248 445L793.048 445.12C794.194 445.293 795.008 445.627 795.488 446.12C795.968 446.6 796.208 447.233 796.208 448.02C796.208 449.02 795.868 449.807 795.188 450.38C794.508 450.953 793.574 451.24 792.388 451.24ZM803.114 451.24C802.407 451.24 801.767 451.113 801.194 450.86C800.634 450.607 800.147 450.247 799.734 449.78C799.334 449.3 799.02 448.733 798.794 448.08C798.58 447.413 798.474 446.667 798.474 445.84C798.474 445.027 798.58 444.287 798.794 443.62C799.02 442.953 799.334 442.387 799.734 441.92C800.147 441.44 800.634 441.073 801.194 440.82C801.767 440.567 802.407 440.44 803.114 440.44C803.807 440.44 804.427 440.567 804.974 440.82C805.52 441.073 805.987 441.427 806.374 441.88C806.76 442.32 807.054 442.847 807.254 443.46C807.467 444.073 807.574 444.747 807.574 445.48L807.574 446.24L800.154 446.24L800.154 446.72C800.154 447.16 800.22 447.573 800.354 447.96C800.5 448.333 800.7 448.66 800.954 448.94C801.22 449.22 801.54 449.44 801.914 449.6C802.3 449.76 802.734 449.84 803.214 449.84C803.867 449.84 804.434 449.687 804.914 449.38C805.407 449.073 805.787 448.633 806.054 448.06L807.194 448.88C806.86 449.587 806.34 450.16 805.634 450.6C804.927 451.027 804.087 451.24 803.114 451.24ZM803.114 441.78C802.674 441.78 802.274 441.86 801.914 442.02C801.554 442.167 801.24 442.38 800.974 442.66C800.72 442.94 800.52 443.273 800.374 443.66C800.227 444.033 800.154 444.447 800.154 444.9L800.154 445.04L805.854 445.04L805.854 444.82C805.854 443.9 805.6 443.167 805.094 442.62C804.6 442.06 803.94 441.78 803.114 441.78ZM810.41 451L810.41 440.68L812.01 440.68L812.01 442.58L812.11 442.58C812.297 442.087 812.63 441.647 813.11 441.26C813.59 440.873 814.25 440.68 815.09 440.68L815.71 440.68L815.71 442.28L814.77 442.28C813.904 442.28 813.224 442.447 812.73 442.78C812.25 443.1 812.01 443.507 812.01 444L812.01 451L810.41 451ZM821.054 451.24C820.094 451.24 819.287 451.06 818.634 450.7C817.994 450.327 817.441 449.833 816.974 449.22L818.114 448.3C818.514 448.807 818.961 449.2 819.454 449.48C819.947 449.747 820.521 449.88 821.174 449.88C821.854 449.88 822.381 449.733 822.754 449.44C823.141 449.147 823.334 448.733 823.334 448.2C823.334 447.8 823.201 447.46 822.934 447.18C822.681 446.887 822.214 446.687 821.534 446.58L820.714 446.46C820.234 446.393 819.794 446.293 819.394 446.16C818.994 446.013 818.641 445.827 818.334 445.6C818.041 445.36 817.807 445.067 817.634 444.72C817.474 444.373 817.394 443.96 817.394 443.48C817.394 442.973 817.487 442.533 817.674 442.16C817.861 441.773 818.114 441.453 818.434 441.2C818.767 440.947 819.161 440.76 819.614 440.64C820.067 440.507 820.554 440.44 821.074 440.44C821.914 440.44 822.614 440.587 823.174 440.88C823.747 441.173 824.247 441.58 824.674 442.1L823.614 443.06C823.387 442.74 823.054 442.453 822.614 442.2C822.174 441.933 821.621 441.8 820.954 441.8C820.287 441.8 819.781 441.947 819.434 442.24C819.101 442.52 818.934 442.907 818.934 443.4C818.934 443.907 819.101 444.273 819.434 444.5C819.781 444.727 820.274 444.893 820.914 445L821.714 445.12C822.861 445.293 823.674 445.627 824.154 446.12C824.634 446.6 824.874 447.233 824.874 448.02C824.874 449.02 824.534 449.807 823.854 450.38C823.174 450.953 822.241 451.24 821.054 451.24Z" fill="black"/>
<circle cx="984.993" cy="572" r="115" fill="#1DAFCE"/>
<circle cx="984.993" cy="572" r="115" fill="url(#paint3_linear)" fill-opacity="0.5"/>
<path d="M919.649 581.25C917.883 581.25 916.283 580.867 914.849 580.1C913.433 579.317 912.316 578.242 911.499 576.875C910.699 575.508 910.299 573.967 910.299 572.25C910.299 570.533 910.708 568.992 911.524 567.625C912.341 566.258 913.458 565.192 914.874 564.425C916.308 563.642 917.908 563.25 919.674 563.25C921.108 563.25 922.416 563.5 923.599 564C924.783 564.5 925.783 565.225 926.599 566.175L924.499 568.15C923.233 566.783 921.674 566.1 919.824 566.1C918.624 566.1 917.549 566.367 916.599 566.9C915.649 567.417 914.908 568.142 914.374 569.075C913.841 570.008 913.574 571.067 913.574 572.25C913.574 573.433 913.841 574.492 914.374 575.425C914.908 576.358 915.649 577.092 916.599 577.625C917.549 578.142 918.624 578.4 919.824 578.4C921.674 578.4 923.233 577.708 924.499 576.325L926.599 578.325C925.783 579.275 924.774 580 923.574 580.5C922.391 581 921.083 581.25 919.649 581.25ZM934.925 581.175C933.575 581.175 932.358 580.883 931.275 580.3C930.192 579.717 929.342 578.908 928.725 577.875C928.125 576.825 927.825 575.642 927.825 574.325C927.825 573.008 928.125 571.833 928.725 570.8C929.342 569.767 930.192 568.958 931.275 568.375C932.358 567.792 933.575 567.5 934.925 567.5C936.292 567.5 937.517 567.792 938.6 568.375C939.683 568.958 940.525 569.767 941.125 570.8C941.742 571.833 942.05 573.008 942.05 574.325C942.05 575.642 941.742 576.825 941.125 577.875C940.525 578.908 939.683 579.717 938.6 580.3C937.517 580.883 936.292 581.175 934.925 581.175ZM934.925 578.5C936.075 578.5 937.025 578.117 937.775 577.35C938.525 576.583 938.9 575.575 938.9 574.325C938.9 573.075 938.525 572.067 937.775 571.3C937.025 570.533 936.075 570.15 934.925 570.15C933.775 570.15 932.825 570.533 932.075 571.3C931.342 572.067 930.975 573.075 930.975 574.325C930.975 575.575 931.342 576.583 932.075 577.35C932.825 578.117 933.775 578.5 934.925 578.5ZM961.888 567.5C963.572 567.5 964.905 567.992 965.888 568.975C966.872 569.942 967.363 571.4 967.363 573.35V581H964.238V573.75C964.238 572.583 963.98 571.708 963.463 571.125C962.947 570.525 962.205 570.225 961.238 570.225C960.188 570.225 959.347 570.575 958.713 571.275C958.08 571.958 957.763 572.942 957.763 574.225V581H954.638V573.75C954.638 572.583 954.38 571.708 953.863 571.125C953.347 570.525 952.605 570.225 951.638 570.225C950.572 570.225 949.722 570.567 949.088 571.25C948.472 571.933 948.163 572.925 948.163 574.225V581H945.038V567.65H948.013V569.35C948.513 568.75 949.138 568.292 949.888 567.975C950.638 567.658 951.472 567.5 952.388 567.5C953.388 567.5 954.272 567.692 955.038 568.075C955.822 568.442 956.438 568.992 956.888 569.725C957.438 569.025 958.147 568.483 959.013 568.1C959.88 567.7 960.838 567.5 961.888 567.5ZM988.207 567.5C989.89 567.5 991.223 567.992 992.207 568.975C993.19 569.942 993.682 571.4 993.682 573.35V581H990.557V573.75C990.557 572.583 990.298 571.708 989.782 571.125C989.265 570.525 988.523 570.225 987.557 570.225C986.507 570.225 985.665 570.575 985.032 571.275C984.398 571.958 984.082 572.942 984.082 574.225V581H980.957V573.75C980.957 572.583 980.698 571.708 980.182 571.125C979.665 570.525 978.923 570.225 977.957 570.225C976.89 570.225 976.04 570.567 975.407 571.25C974.79 571.933 974.482 572.925 974.482 574.225V581H971.357V567.65H974.332V569.35C974.832 568.75 975.457 568.292 976.207 567.975C976.957 567.658 977.79 567.5 978.707 567.5C979.707 567.5 980.59 567.692 981.357 568.075C982.14 568.442 982.757 568.992 983.207 569.725C983.757 569.025 984.465 568.483 985.332 568.1C986.198 567.7 987.157 567.5 988.207 567.5ZM1010.6 567.65V581H1007.63V579.3C1007.13 579.9 1006.5 580.367 1005.75 580.7C1005 581.017 1004.19 581.175 1003.33 581.175C1001.54 581.175 1000.13 580.683 999.1 579.7C998.083 578.7 997.575 577.225 997.575 575.275V567.65H1000.7V574.85C1000.7 576.05 1000.97 576.95 1001.5 577.55C1002.05 578.133 1002.83 578.425 1003.83 578.425C1004.94 578.425 1005.83 578.083 1006.48 577.4C1007.14 576.7 1007.48 575.7 1007.48 574.4V567.65H1010.6ZM1022.27 567.5C1023.95 567.5 1025.3 567.992 1026.32 568.975C1027.33 569.958 1027.84 571.417 1027.84 573.35V581H1024.72V573.75C1024.72 572.583 1024.44 571.708 1023.89 571.125C1023.34 570.525 1022.56 570.225 1021.54 570.225C1020.39 570.225 1019.48 570.575 1018.82 571.275C1018.15 571.958 1017.82 572.95 1017.82 574.25V581H1014.69V567.65H1017.67V569.375C1018.18 568.758 1018.83 568.292 1019.62 567.975C1020.4 567.658 1021.28 567.5 1022.27 567.5ZM1031.81 567.65H1034.93V581H1031.81V567.65ZM1033.38 565.45C1032.81 565.45 1032.34 565.275 1031.96 564.925C1031.57 564.558 1031.38 564.108 1031.38 563.575C1031.38 563.042 1031.57 562.6 1031.96 562.25C1032.34 561.883 1032.81 561.7 1033.38 561.7C1033.95 561.7 1034.42 561.875 1034.81 562.225C1035.19 562.558 1035.38 562.983 1035.38 563.5C1035.38 564.05 1035.19 564.517 1034.81 564.9C1034.44 565.267 1033.96 565.45 1033.38 565.45ZM1047.06 580.275C1046.69 580.575 1046.24 580.8 1045.71 580.95C1045.19 581.1 1044.64 581.175 1044.06 581.175C1042.59 581.175 1041.46 580.792 1040.66 580.025C1039.86 579.258 1039.46 578.142 1039.46 576.675V570.25H1037.26V567.75H1039.46V564.7H1042.58V567.75H1046.16V570.25H1042.58V576.6C1042.58 577.25 1042.74 577.75 1043.06 578.1C1043.37 578.433 1043.83 578.6 1044.43 578.6C1045.13 578.6 1045.72 578.417 1046.18 578.05L1047.06 580.275ZM1061.88 567.65L1055.63 582.075C1055.05 583.525 1054.34 584.542 1053.51 585.125C1052.68 585.725 1051.67 586.025 1050.48 586.025C1049.82 586.025 1049.16 585.917 1048.51 585.7C1047.86 585.483 1047.33 585.183 1046.91 584.8L1048.16 582.5C1048.46 582.783 1048.81 583.008 1049.21 583.175C1049.63 583.342 1050.04 583.425 1050.46 583.425C1051.01 583.425 1051.46 583.283 1051.81 583C1052.18 582.717 1052.51 582.242 1052.81 581.575L1053.03 581.05L1047.21 567.65H1050.46L1054.66 577.525L1058.88 567.65H1061.88Z" fill="white"/>
<path d="M743.2 966.998L743.2 965.598L745.16 965.598L745.16 954.438L743.2 954.438L743.2 953.038L748.8 953.038L748.8 954.438L746.84 954.438L746.84 965.598L748.8 965.598L748.8 966.998L743.2 966.998ZM751.908 966.998L751.908 956.678L753.508 956.678L753.508 958.358L753.588 958.358C753.841 957.771 754.194 957.305 754.648 956.958C755.114 956.611 755.734 956.438 756.508 956.438C757.574 956.438 758.414 956.785 759.028 957.478C759.654 958.158 759.968 959.125 759.968 960.378L759.968 966.998L758.368 966.998L758.368 960.658C758.368 958.805 757.588 957.878 756.028 957.878C755.708 957.878 755.394 957.918 755.088 957.998C754.794 958.078 754.528 958.198 754.288 958.358C754.048 958.518 753.854 958.725 753.708 958.978C753.574 959.218 753.508 959.505 753.508 959.838L753.508 966.998L751.908 966.998ZM770.075 965.318L769.995 965.318C769.368 966.598 768.362 967.238 766.975 967.238C766.335 967.238 765.755 967.111 765.235 966.858C764.715 966.605 764.268 966.245 763.895 965.778C763.535 965.311 763.255 964.745 763.055 964.078C762.868 963.411 762.775 962.665 762.775 961.838C762.775 961.011 762.868 960.265 763.055 959.598C763.255 958.931 763.535 958.365 763.895 957.898C764.268 957.431 764.715 957.071 765.235 956.818C765.755 956.565 766.335 956.438 766.975 956.438C767.695 956.438 768.308 956.598 768.815 956.918C769.335 957.225 769.728 957.705 769.995 958.358L770.075 958.358L770.075 952.198L771.675 952.198L771.675 966.998L770.075 966.998L770.075 965.318ZM767.415 965.798C767.775 965.798 768.115 965.751 768.435 965.658C768.768 965.565 769.055 965.431 769.295 965.258C769.535 965.071 769.722 964.851 769.855 964.598C770.002 964.331 770.075 964.031 770.075 963.698L770.075 959.858C770.075 959.578 770.002 959.318 769.855 959.078C769.722 958.825 769.535 958.611 769.295 958.438C769.055 958.265 768.768 958.131 768.435 958.038C768.115 957.931 767.775 957.878 767.415 957.878C766.508 957.878 765.795 958.165 765.275 958.738C764.755 959.298 764.495 960.038 764.495 960.958L764.495 962.718C764.495 963.638 764.755 964.385 765.275 964.958C765.795 965.518 766.508 965.798 767.415 965.798ZM776.077 954.258C775.73 954.258 775.477 954.178 775.317 954.018C775.17 953.845 775.097 953.625 775.097 953.358L775.097 953.098C775.097 952.831 775.17 952.618 775.317 952.458C775.477 952.285 775.73 952.198 776.077 952.198C776.423 952.198 776.67 952.285 776.817 952.458C776.977 952.618 777.057 952.831 777.057 953.098L777.057 953.358C777.057 953.625 776.977 953.845 776.817 954.018C776.67 954.178 776.423 954.258 776.077 954.258ZM775.277 956.678L776.877 956.678L776.877 966.998L775.277 966.998L775.277 956.678ZM782.757 966.998L779.137 956.678L780.737 956.678L782.537 961.798L783.657 965.318L783.757 965.318L784.877 961.798L786.717 956.678L788.257 956.678L784.617 966.998L782.757 966.998ZM791.32 954.258C790.974 954.258 790.72 954.178 790.56 954.018C790.414 953.845 790.34 953.625 790.34 953.358L790.34 953.098C790.34 952.831 790.414 952.618 790.56 952.458C790.72 952.285 790.974 952.198 791.32 952.198C791.667 952.198 791.914 952.285 792.06 952.458C792.22 952.618 792.3 952.831 792.3 953.098L792.3 953.358C792.3 953.625 792.22 953.845 792.06 954.018C791.914 954.178 791.667 954.258 791.32 954.258ZM790.52 956.678L792.12 956.678L792.12 966.998L790.52 966.998L790.52 956.678ZM802.32 965.318L802.24 965.318C801.614 966.598 800.607 967.238 799.22 967.238C798.58 967.238 798 967.111 797.48 966.858C796.96 966.605 796.514 966.245 796.14 965.778C795.78 965.311 795.5 964.745 795.3 964.078C795.114 963.411 795.02 962.665 795.02 961.838C795.02 961.011 795.114 960.265 795.3 959.598C795.5 958.931 795.78 958.365 796.14 957.898C796.514 957.431 796.96 957.071 797.48 956.818C798 956.565 798.58 956.438 799.22 956.438C799.94 956.438 800.554 956.598 801.06 956.918C801.58 957.225 801.974 957.705 802.24 958.358L802.32 958.358L802.32 952.198L803.92 952.198L803.92 966.998L802.32 966.998L802.32 965.318ZM799.66 965.798C800.02 965.798 800.36 965.751 800.68 965.658C801.014 965.565 801.3 965.431 801.54 965.258C801.78 965.071 801.967 964.851 802.1 964.598C802.247 964.331 802.32 964.031 802.32 963.698L802.32 959.858C802.32 959.578 802.247 959.318 802.1 959.078C801.967 958.825 801.78 958.611 801.54 958.438C801.3 958.265 801.014 958.131 800.68 958.038C800.36 957.931 800.02 957.878 799.66 957.878C798.754 957.878 798.04 958.165 797.52 958.738C797 959.298 796.74 960.038 796.74 960.958L796.74 962.718C796.74 963.638 797 964.385 797.52 964.958C798.04 965.518 798.754 965.798 799.66 965.798ZM813.882 965.318L813.802 965.318C813.695 965.558 813.562 965.798 813.402 966.038C813.255 966.265 813.069 966.471 812.842 966.658C812.615 966.831 812.342 966.971 812.022 967.078C811.702 967.185 811.329 967.238 810.902 967.238C809.835 967.238 808.989 966.898 808.362 966.218C807.735 965.525 807.422 964.551 807.422 963.298L807.422 956.678L809.022 956.678L809.022 963.018C809.022 964.871 809.809 965.798 811.382 965.798C811.702 965.798 812.009 965.758 812.302 965.678C812.609 965.598 812.875 965.478 813.102 965.318C813.342 965.158 813.529 964.958 813.662 964.718C813.809 964.465 813.882 964.165 813.882 963.818L813.882 956.678L815.482 956.678L815.482 966.998L813.882 966.998L813.882 965.318ZM826.589 966.998C825.989 966.998 825.556 966.838 825.289 966.518C825.036 966.198 824.876 965.798 824.809 965.318L824.709 965.318C824.482 965.958 824.109 966.438 823.589 966.758C823.069 967.078 822.449 967.238 821.729 967.238C820.636 967.238 819.782 966.958 819.169 966.398C818.569 965.838 818.269 965.078 818.269 964.118C818.269 963.145 818.622 962.398 819.329 961.878C820.049 961.358 821.162 961.098 822.669 961.098L824.709 961.098L824.709 960.078C824.709 959.345 824.509 958.785 824.109 958.398C823.709 958.011 823.096 957.818 822.269 957.818C821.642 957.818 821.116 957.958 820.689 958.238C820.276 958.518 819.929 958.891 819.649 959.358L818.689 958.458C818.969 957.898 819.416 957.425 820.029 957.038C820.642 956.638 821.416 956.438 822.349 956.438C823.602 956.438 824.576 956.745 825.269 957.358C825.962 957.971 826.309 958.825 826.309 959.918L826.309 965.598L827.489 965.598L827.489 966.998L826.589 966.998ZM821.989 965.878C822.389 965.878 822.756 965.831 823.089 965.738C823.422 965.645 823.709 965.511 823.949 965.338C824.189 965.165 824.376 964.965 824.509 964.738C824.642 964.511 824.709 964.265 824.709 963.998L824.709 962.298L822.589 962.298C821.669 962.298 820.996 962.431 820.569 962.698C820.156 962.965 819.949 963.351 819.949 963.858L819.949 964.278C819.949 964.785 820.129 965.178 820.489 965.458C820.862 965.738 821.362 965.878 821.989 965.878ZM831.673 966.998C831.113 966.998 830.686 966.845 830.393 966.538C830.113 966.218 829.973 965.818 829.973 965.338L829.973 952.198L831.573 952.198L831.573 965.598L833.093 965.598L833.093 966.998L831.673 966.998ZM746.8 991.238C745.84 991.238 745.033 991.058 744.38 990.698C743.74 990.325 743.187 989.831 742.72 989.218L743.86 988.298C744.26 988.805 744.707 989.198 745.2 989.478C745.693 989.745 746.267 989.878 746.92 989.878C747.6 989.878 748.127 989.731 748.5 989.438C748.887 989.145 749.08 988.731 749.08 988.198C749.08 987.798 748.947 987.458 748.68 987.178C748.427 986.885 747.96 986.685 747.28 986.578L746.46 986.458C745.98 986.391 745.54 986.291 745.14 986.158C744.74 986.011 744.387 985.825 744.08 985.598C743.787 985.358 743.553 985.065 743.38 984.718C743.22 984.371 743.14 983.958 743.14 983.478C743.14 982.971 743.233 982.531 743.42 982.158C743.607 981.771 743.86 981.451 744.18 981.198C744.513 980.945 744.907 980.758 745.36 980.638C745.813 980.505 746.3 980.438 746.82 980.438C747.66 980.438 748.36 980.585 748.92 980.878C749.493 981.171 749.993 981.578 750.42 982.098L749.36 983.058C749.133 982.738 748.8 982.451 748.36 982.198C747.92 981.931 747.367 981.798 746.7 981.798C746.033 981.798 745.527 981.945 745.18 982.238C744.847 982.518 744.68 982.905 744.68 983.398C744.68 983.905 744.847 984.271 745.18 984.498C745.527 984.725 746.02 984.891 746.66 984.998L747.46 985.118C748.607 985.291 749.42 985.625 749.9 986.118C750.38 986.598 750.62 987.231 750.62 988.018C750.62 989.018 750.28 989.805 749.6 990.378C748.92 990.951 747.987 991.238 746.8 991.238ZM761.146 990.998C760.546 990.998 760.113 990.838 759.846 990.518C759.593 990.198 759.433 989.798 759.366 989.318L759.266 989.318C759.039 989.958 758.666 990.438 758.146 990.758C757.626 991.078 757.006 991.238 756.286 991.238C755.193 991.238 754.339 990.958 753.726 990.398C753.126 989.838 752.826 989.078 752.826 988.118C752.826 987.145 753.179 986.398 753.886 985.878C754.606 985.358 755.719 985.098 757.226 985.098L759.266 985.098L759.266 984.078C759.266 983.345 759.066 982.785 758.666 982.398C758.266 982.011 757.653 981.818 756.826 981.818C756.199 981.818 755.673 981.958 755.246 982.238C754.833 982.518 754.486 982.891 754.206 983.358L753.246 982.458C753.526 981.898 753.973 981.425 754.586 981.038C755.199 980.638 755.973 980.438 756.906 980.438C758.159 980.438 759.133 980.745 759.826 981.358C760.519 981.971 760.866 982.825 760.866 983.918L760.866 989.598L762.046 989.598L762.046 990.998L761.146 990.998ZM756.546 989.878C756.946 989.878 757.313 989.831 757.646 989.738C757.979 989.645 758.266 989.511 758.506 989.338C758.746 989.165 758.933 988.965 759.066 988.738C759.199 988.511 759.266 988.265 759.266 987.998L759.266 986.298L757.146 986.298C756.226 986.298 755.553 986.431 755.126 986.698C754.713 986.965 754.506 987.351 754.506 987.858L754.506 988.278C754.506 988.785 754.686 989.178 755.046 989.458C755.419 989.738 755.919 989.878 756.546 989.878ZM766.23 990.998C765.67 990.998 765.243 990.845 764.95 990.538C764.67 990.218 764.53 989.818 764.53 989.338L764.53 976.198L766.13 976.198L766.13 989.598L767.65 989.598L767.65 990.998L766.23 990.998ZM774.059 991.238C773.352 991.238 772.712 991.111 772.139 990.858C771.579 990.605 771.092 990.245 770.679 989.778C770.279 989.298 769.966 988.731 769.739 988.078C769.526 987.411 769.419 986.665 769.419 985.838C769.419 985.025 769.526 984.285 769.739 983.618C769.966 982.951 770.279 982.385 770.679 981.918C771.092 981.438 771.579 981.071 772.139 980.818C772.712 980.565 773.352 980.438 774.059 980.438C774.752 980.438 775.372 980.565 775.919 980.818C776.466 981.071 776.932 981.425 777.319 981.878C777.706 982.318 777.999 982.845 778.199 983.458C778.412 984.071 778.519 984.745 778.519 985.478L778.519 986.238L771.099 986.238L771.099 986.718C771.099 987.158 771.166 987.571 771.299 987.958C771.446 988.331 771.646 988.658 771.899 988.938C772.166 989.218 772.486 989.438 772.859 989.598C773.246 989.758 773.679 989.838 774.159 989.838C774.812 989.838 775.379 989.685 775.859 989.378C776.352 989.071 776.732 988.631 776.999 988.058L778.139 988.878C777.806 989.585 777.286 990.158 776.579 990.598C775.872 991.025 775.032 991.238 774.059 991.238ZM774.059 981.778C773.619 981.778 773.219 981.858 772.859 982.018C772.499 982.165 772.186 982.378 771.919 982.658C771.666 982.938 771.466 983.271 771.319 983.658C771.172 984.031 771.099 984.445 771.099 984.898L771.099 985.038L776.799 985.038L776.799 984.818C776.799 983.898 776.546 983.165 776.039 982.618C775.546 982.058 774.886 981.778 774.059 981.778ZM784.455 991.238C783.495 991.238 782.689 991.058 782.035 990.698C781.395 990.325 780.842 989.831 780.375 989.218L781.515 988.298C781.915 988.805 782.362 989.198 782.855 989.478C783.349 989.745 783.922 989.878 784.575 989.878C785.255 989.878 785.782 989.731 786.155 989.438C786.542 989.145 786.735 988.731 786.735 988.198C786.735 987.798 786.602 987.458 786.335 987.178C786.082 986.885 785.615 986.685 784.935 986.578L784.115 986.458C783.635 986.391 783.195 986.291 782.795 986.158C782.395 986.011 782.042 985.825 781.735 985.598C781.442 985.358 781.209 985.065 781.035 984.718C780.875 984.371 780.795 983.958 780.795 983.478C780.795 982.971 780.889 982.531 781.075 982.158C781.262 981.771 781.515 981.451 781.835 981.198C782.169 980.945 782.562 980.758 783.015 980.638C783.469 980.505 783.955 980.438 784.475 980.438C785.315 980.438 786.015 980.585 786.575 980.878C787.149 981.171 787.649 981.578 788.075 982.098L787.015 983.058C786.789 982.738 786.455 982.451 786.015 982.198C785.575 981.931 785.022 981.798 784.355 981.798C783.689 981.798 783.182 981.945 782.835 982.238C782.502 982.518 782.335 982.905 782.335 983.398C782.335 983.905 782.502 984.271 782.835 984.498C783.182 984.725 783.675 984.891 784.315 984.998L785.115 985.118C786.262 985.291 787.075 985.625 787.555 986.118C788.035 986.598 788.275 987.231 788.275 988.018C788.275 989.018 787.935 989.805 787.255 990.378C786.575 990.951 785.642 991.238 784.455 991.238ZM791.302 990.998L791.302 980.678L792.902 980.678L792.902 982.358L792.982 982.358C793.102 982.091 793.235 981.845 793.382 981.618C793.542 981.378 793.728 981.171 793.942 980.998C794.168 980.825 794.428 980.691 794.722 980.598C795.015 980.491 795.362 980.438 795.762 980.438C796.442 980.438 797.068 980.605 797.642 980.938C798.215 981.258 798.642 981.791 798.922 982.538L798.962 982.538C799.148 981.978 799.495 981.491 800.002 981.078C800.522 980.651 801.222 980.438 802.102 980.438C803.155 980.438 803.975 980.785 804.562 981.478C805.162 982.158 805.462 983.125 805.462 984.378L805.462 990.998L803.862 990.998L803.862 984.658C803.862 983.738 803.682 983.045 803.322 982.578C802.962 982.111 802.388 981.878 801.602 981.878C801.282 981.878 800.975 981.918 800.682 981.998C800.402 982.078 800.148 982.198 799.922 982.358C799.695 982.518 799.515 982.725 799.382 982.978C799.248 983.218 799.182 983.505 799.182 983.838L799.182 990.998L797.582 990.998L797.582 984.658C797.582 983.738 797.402 983.045 797.042 982.578C796.682 982.111 796.122 981.878 795.362 981.878C795.042 981.878 794.735 981.918 794.442 981.998C794.148 982.078 793.888 982.198 793.662 982.358C793.435 982.518 793.248 982.725 793.102 982.978C792.968 983.218 792.902 983.505 792.902 983.838L792.902 990.998L791.302 990.998ZM812.842 991.238C812.136 991.238 811.496 991.111 810.922 990.858C810.362 990.605 809.876 990.245 809.462 989.778C809.062 989.298 808.749 988.731 808.522 988.078C808.309 987.411 808.202 986.665 808.202 985.838C808.202 985.025 808.309 984.285 808.522 983.618C808.749 982.951 809.062 982.385 809.462 981.918C809.876 981.438 810.362 981.071 810.922 980.818C811.496 980.565 812.136 980.438 812.842 980.438C813.536 980.438 814.156 980.565 814.702 980.818C815.249 981.071 815.716 981.425 816.102 981.878C816.489 982.318 816.782 982.845 816.982 983.458C817.196 984.071 817.302 984.745 817.302 985.478L817.302 986.238L809.882 986.238L809.882 986.718C809.882 987.158 809.949 987.571 810.082 987.958C810.229 988.331 810.429 988.658 810.682 988.938C810.949 989.218 811.269 989.438 811.642 989.598C812.029 989.758 812.462 989.838 812.942 989.838C813.596 989.838 814.162 989.685 814.642 989.378C815.136 989.071 815.516 988.631 815.782 988.058L816.922 988.878C816.589 989.585 816.069 990.158 815.362 990.598C814.656 991.025 813.816 991.238 812.842 991.238ZM812.842 981.778C812.402 981.778 812.002 981.858 811.642 982.018C811.282 982.165 810.969 982.378 810.702 982.658C810.449 982.938 810.249 983.271 810.102 983.658C809.956 984.031 809.882 984.445 809.882 984.898L809.882 985.038L815.582 985.038L815.582 984.818C815.582 983.898 815.329 983.165 814.822 982.618C814.329 982.058 813.669 981.778 812.842 981.778ZM820.139 990.998L820.139 980.678L821.739 980.678L821.739 982.358L821.819 982.358C822.072 981.771 822.426 981.305 822.879 980.958C823.346 980.611 823.966 980.438 824.739 980.438C825.806 980.438 826.646 980.785 827.259 981.478C827.886 982.158 828.199 983.125 828.199 984.378L828.199 990.998L826.599 990.998L826.599 984.658C826.599 982.805 825.819 981.878 824.259 981.878C823.939 981.878 823.626 981.918 823.319 981.998C823.026 982.078 822.759 982.198 822.519 982.358C822.279 982.518 822.086 982.725 821.939 982.978C821.806 983.218 821.739 983.505 821.739 983.838L821.739 990.998L820.139 990.998Z" fill="black"/>
<path d="M717.528 946.335C717.713 947.424 718.746 948.157 719.835 947.972L737.581 944.955C738.67 944.77 739.402 943.737 739.217 942.649C739.032 941.56 737.999 940.827 736.91 941.012L721.137 943.693L718.455 927.919C718.27 926.83 717.237 926.098 716.149 926.283C715.06 926.468 714.327 927.501 714.512 928.59L717.528 946.335ZM905.869 679.843L717.869 944.843L721.131 947.157L909.131 682.157L905.869 679.843Z" fill="url(#paint4_linear)"/>
<circle cx="620" cy="1045" r="115" fill="#2D69E0"/>
<circle cx="620" cy="1045" r="115" fill="url(#paint5_linear)" fill-opacity="0.5"/>
<path d="M574.301 1018.5C575.817 1018.5 577.134 1018.75 578.251 1019.25C579.384 1019.75 580.251 1020.47 580.851 1021.4C581.451 1022.33 581.751 1023.44 581.751 1024.72C581.751 1025.99 581.451 1027.1 580.851 1028.05C580.251 1028.98 579.384 1029.7 578.251 1030.2C577.134 1030.7 575.817 1030.95 574.301 1030.95H570.351V1036H567.101V1018.5H574.301ZM574.151 1028.2C575.567 1028.2 576.642 1027.9 577.376 1027.3C578.109 1026.7 578.476 1025.84 578.476 1024.72C578.476 1023.61 578.109 1022.75 577.376 1022.15C576.642 1021.55 575.567 1021.25 574.151 1021.25H570.351V1028.2H574.151ZM589.674 1022.5C591.641 1022.5 593.141 1022.97 594.174 1023.92C595.224 1024.86 595.749 1026.27 595.749 1028.17V1036H592.799V1034.37C592.416 1034.96 591.866 1035.41 591.149 1035.72C590.449 1036.02 589.599 1036.18 588.599 1036.18C587.599 1036.18 586.724 1036.01 585.974 1035.67C585.224 1035.32 584.641 1034.85 584.224 1034.25C583.824 1033.63 583.624 1032.94 583.624 1032.17C583.624 1030.97 584.066 1030.02 584.949 1029.3C585.849 1028.57 587.258 1028.2 589.174 1028.2H592.624V1028C592.624 1027.07 592.341 1026.35 591.774 1025.85C591.224 1025.35 590.399 1025.1 589.299 1025.1C588.549 1025.1 587.808 1025.22 587.074 1025.45C586.358 1025.68 585.749 1026.01 585.249 1026.42L584.024 1024.15C584.724 1023.62 585.566 1023.21 586.549 1022.92C587.533 1022.64 588.574 1022.5 589.674 1022.5ZM589.249 1033.9C590.033 1033.9 590.724 1033.72 591.324 1033.37C591.941 1033.01 592.374 1032.49 592.624 1031.82V1030.27H589.399C587.599 1030.27 586.699 1030.87 586.699 1032.05C586.699 1032.62 586.924 1033.07 587.374 1033.4C587.824 1033.73 588.449 1033.9 589.249 1033.9ZM602.735 1024.6C603.635 1023.2 605.218 1022.5 607.485 1022.5V1025.47C607.218 1025.42 606.976 1025.4 606.76 1025.4C605.543 1025.4 604.593 1025.76 603.91 1026.47C603.226 1027.17 602.885 1028.19 602.885 1029.52V1036H599.76V1022.65H602.735V1024.6ZM618.649 1035.27C618.282 1035.57 617.832 1035.8 617.299 1035.95C616.782 1036.1 616.232 1036.18 615.649 1036.18C614.182 1036.18 613.049 1035.79 612.249 1035.02C611.449 1034.26 611.049 1033.14 611.049 1031.67V1025.25H608.849V1022.75H611.049V1019.7H614.174V1022.75H617.749V1025.25H614.174V1031.6C614.174 1032.25 614.332 1032.75 614.649 1033.1C614.966 1033.43 615.424 1033.6 616.024 1033.6C616.724 1033.6 617.307 1033.42 617.774 1033.05L618.649 1035.27ZM628.795 1022.5C630.478 1022.5 631.828 1022.99 632.845 1023.97C633.861 1024.96 634.37 1026.42 634.37 1028.35V1036H631.245V1028.75C631.245 1027.58 630.97 1026.71 630.42 1026.12C629.87 1025.52 629.086 1025.22 628.07 1025.22C626.92 1025.22 626.011 1025.57 625.345 1026.27C624.678 1026.96 624.345 1027.95 624.345 1029.25V1036H621.22V1022.65H624.195V1024.37C624.711 1023.76 625.361 1023.29 626.145 1022.97C626.928 1022.66 627.811 1022.5 628.795 1022.5ZM651.006 1029.4C651.006 1029.62 650.989 1029.92 650.956 1030.32H640.481C640.664 1031.31 641.139 1032.09 641.906 1032.67C642.689 1033.24 643.656 1033.52 644.806 1033.52C646.273 1033.52 647.481 1033.04 648.431 1032.07L650.106 1034C649.506 1034.72 648.748 1035.26 647.831 1035.62C646.914 1035.99 645.881 1036.18 644.731 1036.18C643.264 1036.18 641.973 1035.88 640.856 1035.3C639.739 1034.72 638.873 1033.91 638.256 1032.88C637.656 1031.82 637.356 1030.64 637.356 1029.32C637.356 1028.02 637.648 1026.86 638.231 1025.82C638.831 1024.77 639.656 1023.96 640.706 1023.38C641.756 1022.79 642.939 1022.5 644.256 1022.5C645.556 1022.5 646.714 1022.79 647.731 1023.38C648.764 1023.94 649.564 1024.75 650.131 1025.8C650.714 1026.83 651.006 1028.03 651.006 1029.4ZM644.256 1025C643.256 1025 642.406 1025.3 641.706 1025.9C641.023 1026.48 640.606 1027.27 640.456 1028.25H648.031C647.898 1027.28 647.489 1026.5 646.806 1025.9C646.123 1025.3 645.273 1025 644.256 1025ZM656.983 1024.6C657.883 1023.2 659.466 1022.5 661.733 1022.5V1025.47C661.466 1025.42 661.224 1025.4 661.008 1025.4C659.791 1025.4 658.841 1025.76 658.158 1026.47C657.474 1027.17 657.133 1028.19 657.133 1029.52V1036H654.008V1022.65H656.983V1024.6ZM668.558 1036.18C667.474 1036.18 666.416 1036.03 665.383 1035.75C664.349 1035.47 663.524 1035.11 662.908 1034.67L664.108 1032.3C664.708 1032.7 665.424 1033.02 666.258 1033.27C667.108 1033.51 667.941 1033.62 668.758 1033.62C670.624 1033.62 671.558 1033.13 671.558 1032.15C671.558 1031.68 671.316 1031.36 670.833 1031.17C670.366 1030.99 669.608 1030.82 668.558 1030.65C667.458 1030.48 666.558 1030.29 665.858 1030.07C665.174 1029.86 664.574 1029.48 664.058 1028.95C663.558 1028.4 663.308 1027.64 663.308 1026.67C663.308 1025.41 663.833 1024.4 664.883 1023.65C665.949 1022.88 667.383 1022.5 669.183 1022.5C670.099 1022.5 671.016 1022.61 671.933 1022.82C672.849 1023.02 673.599 1023.3 674.183 1023.65L672.983 1026.02C671.849 1025.36 670.574 1025.02 669.158 1025.02C668.241 1025.02 667.541 1025.17 667.058 1025.45C666.591 1025.72 666.358 1026.07 666.358 1026.52C666.358 1027.02 666.608 1027.38 667.108 1027.6C667.624 1027.8 668.416 1027.99 669.483 1028.17C670.549 1028.34 671.424 1028.53 672.108 1028.75C672.791 1028.97 673.374 1029.33 673.858 1029.85C674.358 1030.37 674.608 1031.1 674.608 1032.05C674.608 1033.3 674.066 1034.3 672.983 1035.05C671.899 1035.8 670.424 1036.18 668.558 1036.18ZM563.217 1061.9C564.183 1062.22 564.95 1062.75 565.517 1063.5C566.083 1064.23 566.367 1065.15 566.367 1066.25C566.367 1067.77 565.783 1068.94 564.617 1069.77C563.45 1070.59 561.75 1071 559.517 1071H550.817V1053.5H559.017C561.083 1053.5 562.675 1053.91 563.792 1054.72C564.908 1055.52 565.467 1056.63 565.467 1058.05C565.467 1058.92 565.267 1059.68 564.867 1060.35C564.467 1061.02 563.917 1061.53 563.217 1061.9ZM554.067 1056.05V1060.87H558.667C559.8 1060.87 560.667 1060.67 561.267 1060.27C561.883 1059.86 562.192 1059.26 562.192 1058.47C562.192 1057.67 561.883 1057.07 561.267 1056.67C560.667 1056.26 559.8 1056.05 558.667 1056.05H554.067ZM559.317 1068.45C561.833 1068.45 563.092 1067.61 563.092 1065.92C563.092 1064.24 561.833 1063.4 559.317 1063.4H554.067V1068.45H559.317ZM582.46 1057.65V1071H579.485V1069.3C578.985 1069.9 578.36 1070.37 577.61 1070.7C576.86 1071.02 576.052 1071.18 575.185 1071.18C573.402 1071.18 571.993 1070.68 570.96 1069.7C569.943 1068.7 569.435 1067.22 569.435 1065.27V1057.65H572.56V1064.85C572.56 1066.05 572.827 1066.95 573.36 1067.55C573.91 1068.13 574.685 1068.42 575.685 1068.42C576.802 1068.42 577.685 1068.08 578.335 1067.4C579.002 1066.7 579.335 1065.7 579.335 1064.4V1057.65H582.46ZM590.677 1071.18C589.593 1071.18 588.535 1071.03 587.502 1070.75C586.468 1070.47 585.643 1070.11 585.027 1069.67L586.227 1067.3C586.827 1067.7 587.543 1068.02 588.377 1068.27C589.227 1068.51 590.06 1068.62 590.877 1068.62C592.743 1068.62 593.677 1068.13 593.677 1067.15C593.677 1066.68 593.435 1066.36 592.952 1066.17C592.485 1065.99 591.727 1065.82 590.677 1065.65C589.577 1065.48 588.677 1065.29 587.977 1065.07C587.293 1064.86 586.693 1064.48 586.177 1063.95C585.677 1063.4 585.427 1062.64 585.427 1061.67C585.427 1060.41 585.952 1059.4 587.002 1058.65C588.068 1057.88 589.502 1057.5 591.302 1057.5C592.218 1057.5 593.135 1057.61 594.052 1057.82C594.968 1058.02 595.718 1058.3 596.302 1058.65L595.102 1061.02C593.968 1060.36 592.693 1060.02 591.277 1060.02C590.36 1060.02 589.66 1060.17 589.177 1060.45C588.71 1060.72 588.477 1061.07 588.477 1061.52C588.477 1062.02 588.727 1062.38 589.227 1062.6C589.743 1062.8 590.535 1062.99 591.602 1063.17C592.668 1063.34 593.543 1063.53 594.227 1063.75C594.91 1063.97 595.493 1064.33 595.977 1064.85C596.477 1065.37 596.727 1066.1 596.727 1067.05C596.727 1068.3 596.185 1069.3 595.102 1070.05C594.018 1070.8 592.543 1071.18 590.677 1071.18ZM599.418 1057.65H602.543V1071H599.418V1057.65ZM600.993 1055.45C600.426 1055.45 599.951 1055.27 599.568 1054.92C599.185 1054.56 598.993 1054.11 598.993 1053.57C598.993 1053.04 599.185 1052.6 599.568 1052.25C599.951 1051.88 600.426 1051.7 600.993 1051.7C601.56 1051.7 602.035 1051.87 602.418 1052.22C602.801 1052.56 602.993 1052.98 602.993 1053.5C602.993 1054.05 602.801 1054.52 602.418 1054.9C602.051 1055.27 601.576 1055.45 600.993 1055.45ZM614.219 1057.5C615.903 1057.5 617.253 1057.99 618.269 1058.97C619.286 1059.96 619.794 1061.42 619.794 1063.35V1071H616.669V1063.75C616.669 1062.58 616.394 1061.71 615.844 1061.12C615.294 1060.52 614.511 1060.22 613.494 1060.22C612.344 1060.22 611.436 1060.57 610.769 1061.27C610.103 1061.96 609.769 1062.95 609.769 1064.25V1071H606.644V1057.65H609.619V1059.37C610.136 1058.76 610.786 1058.29 611.569 1057.97C612.353 1057.66 613.236 1057.5 614.219 1057.5ZM636.431 1064.4C636.431 1064.62 636.414 1064.92 636.381 1065.32H625.906C626.089 1066.31 626.564 1067.09 627.331 1067.67C628.114 1068.24 629.081 1068.52 630.231 1068.52C631.697 1068.52 632.906 1068.04 633.856 1067.07L635.531 1069C634.931 1069.72 634.172 1070.26 633.256 1070.62C632.339 1070.99 631.306 1071.18 630.156 1071.18C628.689 1071.18 627.397 1070.88 626.281 1070.3C625.164 1069.72 624.297 1068.91 623.681 1067.88C623.081 1066.82 622.781 1065.64 622.781 1064.32C622.781 1063.02 623.072 1061.86 623.656 1060.82C624.256 1059.77 625.081 1058.96 626.131 1058.38C627.181 1057.79 628.364 1057.5 629.681 1057.5C630.981 1057.5 632.139 1057.79 633.156 1058.38C634.189 1058.94 634.989 1059.75 635.556 1060.8C636.139 1061.83 636.431 1063.03 636.431 1064.4ZM629.681 1060C628.681 1060 627.831 1060.3 627.131 1060.9C626.447 1061.48 626.031 1062.27 625.881 1063.25H633.456C633.322 1062.28 632.914 1061.5 632.231 1060.9C631.547 1060.3 630.697 1060 629.681 1060ZM643.558 1071.18C642.474 1071.18 641.416 1071.03 640.383 1070.75C639.349 1070.47 638.524 1070.11 637.908 1069.67L639.108 1067.3C639.708 1067.7 640.424 1068.02 641.258 1068.27C642.108 1068.51 642.941 1068.62 643.758 1068.62C645.624 1068.62 646.558 1068.13 646.558 1067.15C646.558 1066.68 646.316 1066.36 645.833 1066.17C645.366 1065.99 644.608 1065.82 643.558 1065.65C642.458 1065.48 641.558 1065.29 640.858 1065.07C640.174 1064.86 639.574 1064.48 639.058 1063.95C638.558 1063.4 638.308 1062.64 638.308 1061.67C638.308 1060.41 638.833 1059.4 639.883 1058.65C640.949 1057.88 642.383 1057.5 644.183 1057.5C645.099 1057.5 646.016 1057.61 646.933 1057.82C647.849 1058.02 648.599 1058.3 649.183 1058.65L647.983 1061.02C646.849 1060.36 645.574 1060.02 644.158 1060.02C643.241 1060.02 642.541 1060.17 642.058 1060.45C641.591 1060.72 641.358 1061.07 641.358 1061.52C641.358 1062.02 641.608 1062.38 642.108 1062.6C642.624 1062.8 643.416 1062.99 644.483 1063.17C645.549 1063.34 646.424 1063.53 647.108 1063.75C647.791 1063.97 648.374 1064.33 648.858 1064.85C649.358 1065.37 649.608 1066.1 649.608 1067.05C649.608 1068.3 649.066 1069.3 647.983 1070.05C646.899 1070.8 645.424 1071.18 643.558 1071.18ZM656.424 1071.18C655.34 1071.18 654.282 1071.03 653.249 1070.75C652.215 1070.47 651.39 1070.11 650.774 1069.67L651.974 1067.3C652.574 1067.7 653.29 1068.02 654.124 1068.27C654.974 1068.51 655.807 1068.62 656.624 1068.62C658.49 1068.62 659.424 1068.13 659.424 1067.15C659.424 1066.68 659.182 1066.36 658.699 1066.17C658.232 1065.99 657.474 1065.82 656.424 1065.65C655.324 1065.48 654.424 1065.29 653.724 1065.07C653.04 1064.86 652.44 1064.48 651.924 1063.95C651.424 1063.4 651.174 1062.64 651.174 1061.67C651.174 1060.41 651.699 1059.4 652.749 1058.65C653.815 1057.88 655.249 1057.5 657.049 1057.5C657.965 1057.5 658.882 1057.61 659.799 1057.82C660.715 1058.02 661.465 1058.3 662.049 1058.65L660.849 1061.02C659.715 1060.36 658.44 1060.02 657.024 1060.02C656.107 1060.02 655.407 1060.17 654.924 1060.45C654.457 1060.72 654.224 1061.07 654.224 1061.52C654.224 1062.02 654.474 1062.38 654.974 1062.6C655.49 1062.8 656.282 1062.99 657.349 1063.17C658.415 1063.34 659.29 1063.53 659.974 1063.75C660.657 1063.97 661.24 1064.33 661.724 1064.85C662.224 1065.37 662.474 1066.1 662.474 1067.05C662.474 1068.3 661.932 1069.3 660.849 1070.05C659.765 1070.8 658.29 1071.18 656.424 1071.18ZM677.715 1064.4C677.715 1064.62 677.698 1064.92 677.665 1065.32H667.19C667.373 1066.31 667.848 1067.09 668.615 1067.67C669.398 1068.24 670.365 1068.52 671.515 1068.52C672.982 1068.52 674.19 1068.04 675.14 1067.07L676.815 1069C676.215 1069.72 675.457 1070.26 674.54 1070.62C673.623 1070.99 672.59 1071.18 671.44 1071.18C669.973 1071.18 668.682 1070.88 667.565 1070.3C666.448 1069.72 665.582 1068.91 664.965 1067.88C664.365 1066.82 664.065 1065.64 664.065 1064.32C664.065 1063.02 664.357 1061.86 664.94 1060.82C665.54 1059.77 666.365 1058.96 667.415 1058.38C668.465 1057.79 669.648 1057.5 670.965 1057.5C672.265 1057.5 673.423 1057.79 674.44 1058.38C675.473 1058.94 676.273 1059.75 676.84 1060.8C677.423 1061.83 677.715 1063.03 677.715 1064.4ZM670.965 1060C669.965 1060 669.115 1060.3 668.415 1060.9C667.732 1061.48 667.315 1062.27 667.165 1063.25H674.74C674.607 1062.28 674.198 1061.5 673.515 1060.9C672.832 1060.3 671.982 1060 670.965 1060ZM684.842 1071.18C683.758 1071.18 682.7 1071.03 681.667 1070.75C680.633 1070.47 679.808 1070.11 679.192 1069.67L680.392 1067.3C680.992 1067.7 681.708 1068.02 682.542 1068.27C683.392 1068.51 684.225 1068.62 685.042 1068.62C686.908 1068.62 687.842 1068.13 687.842 1067.15C687.842 1066.68 687.6 1066.36 687.117 1066.17C686.65 1065.99 685.892 1065.82 684.842 1065.65C683.742 1065.48 682.842 1065.29 682.142 1065.07C681.458 1064.86 680.858 1064.48 680.342 1063.95C679.842 1063.4 679.592 1062.64 679.592 1061.67C679.592 1060.41 680.117 1059.4 681.167 1058.65C682.233 1057.88 683.667 1057.5 685.467 1057.5C686.383 1057.5 687.3 1057.61 688.217 1057.82C689.133 1058.02 689.883 1058.3 690.467 1058.65L689.267 1061.02C688.133 1060.36 686.858 1060.02 685.442 1060.02C684.525 1060.02 683.825 1060.17 683.342 1060.45C682.875 1060.72 682.642 1061.07 682.642 1061.52C682.642 1062.02 682.892 1062.38 683.392 1062.6C683.908 1062.8 684.7 1062.99 685.767 1063.17C686.833 1063.34 687.708 1063.53 688.392 1063.75C689.075 1063.97 689.658 1064.33 690.142 1064.85C690.642 1065.37 690.892 1066.1 690.892 1067.05C690.892 1068.3 690.35 1069.3 689.267 1070.05C688.183 1070.8 686.708 1071.18 684.842 1071.18Z" fill="white"/>
<path d="M418.129 972.24C416.356 972.24 414.976 971.64 413.989 970.44C413.003 969.227 412.509 967.447 412.509 965.1C412.509 962.753 413.003 960.953 413.989 959.7C414.976 958.433 416.356 957.8 418.129 957.8C419.303 957.8 420.283 958.067 421.069 958.6C421.869 959.133 422.489 959.887 422.929 960.86L421.569 961.68C421.289 960.96 420.863 960.387 420.289 959.96C419.716 959.52 418.996 959.3 418.129 959.3C417.529 959.3 416.989 959.413 416.509 959.64C416.043 959.867 415.643 960.193 415.309 960.62C414.989 961.033 414.743 961.533 414.569 962.12C414.396 962.693 414.309 963.34 414.309 964.06V966.14C414.309 967.58 414.643 968.707 415.309 969.52C415.976 970.333 416.916 970.74 418.129 970.74C419.023 970.74 419.769 970.513 420.369 970.06C420.969 969.593 421.409 968.98 421.689 968.22L423.029 969.06C422.589 970.047 421.956 970.827 421.129 971.4C420.303 971.96 419.303 972.24 418.129 972.24ZM432.031 970.32H431.951C431.844 970.56 431.711 970.8 431.551 971.04C431.404 971.267 431.218 971.473 430.991 971.66C430.764 971.833 430.491 971.973 430.171 972.08C429.851 972.187 429.478 972.24 429.051 972.24C427.984 972.24 427.138 971.9 426.511 971.22C425.884 970.527 425.571 969.553 425.571 968.3V961.68H427.171V968.02C427.171 969.873 427.958 970.8 429.531 970.8C429.851 970.8 430.158 970.76 430.451 970.68C430.758 970.6 431.024 970.48 431.251 970.32C431.491 970.16 431.678 969.96 431.811 969.72C431.958 969.467 432.031 969.167 432.031 968.82V961.68H433.631V972H432.031V970.32ZM440.338 972.24C439.378 972.24 438.572 972.06 437.918 971.7C437.278 971.327 436.725 970.833 436.258 970.22L437.398 969.3C437.798 969.807 438.245 970.2 438.738 970.48C439.232 970.747 439.805 970.88 440.458 970.88C441.138 970.88 441.665 970.733 442.038 970.44C442.425 970.147 442.618 969.733 442.618 969.2C442.618 968.8 442.485 968.46 442.218 968.18C441.965 967.887 441.498 967.687 440.818 967.58L439.998 967.46C439.518 967.393 439.078 967.293 438.678 967.16C438.278 967.013 437.925 966.827 437.618 966.6C437.325 966.36 437.092 966.067 436.918 965.72C436.758 965.373 436.678 964.96 436.678 964.48C436.678 963.973 436.772 963.533 436.958 963.16C437.145 962.773 437.398 962.453 437.718 962.2C438.052 961.947 438.445 961.76 438.898 961.64C439.352 961.507 439.838 961.44 440.358 961.44C441.198 961.44 441.898 961.587 442.458 961.88C443.032 962.173 443.532 962.58 443.958 963.1L442.898 964.06C442.672 963.74 442.338 963.453 441.898 963.2C441.458 962.933 440.905 962.8 440.238 962.8C439.572 962.8 439.065 962.947 438.718 963.24C438.385 963.52 438.218 963.907 438.218 964.4C438.218 964.907 438.385 965.273 438.718 965.5C439.065 965.727 439.558 965.893 440.198 966L440.998 966.12C442.145 966.293 442.958 966.627 443.438 967.12C443.918 967.6 444.158 968.233 444.158 969.02C444.158 970.02 443.818 970.807 443.138 971.38C442.458 971.953 441.525 972.24 440.338 972.24ZM449.328 972C448.768 972 448.341 971.847 448.048 971.54C447.768 971.22 447.628 970.807 447.628 970.3V963.08H445.928V961.68H446.888C447.234 961.68 447.468 961.613 447.588 961.48C447.721 961.333 447.788 961.087 447.788 960.74V958.82H449.228V961.68H451.488V963.08H449.228V970.6H451.328V972H449.328ZM458.081 972.24C457.388 972.24 456.755 972.113 456.181 971.86C455.608 971.607 455.115 971.247 454.701 970.78C454.301 970.3 453.988 969.733 453.761 969.08C453.535 968.413 453.421 967.667 453.421 966.84C453.421 966.027 453.535 965.287 453.761 964.62C453.988 963.953 454.301 963.387 454.701 962.92C455.115 962.44 455.608 962.073 456.181 961.82C456.755 961.567 457.388 961.44 458.081 961.44C458.775 961.44 459.401 961.567 459.961 961.82C460.535 962.073 461.028 962.44 461.441 962.92C461.855 963.387 462.175 963.953 462.401 964.62C462.628 965.287 462.741 966.027 462.741 966.84C462.741 967.667 462.628 968.413 462.401 969.08C462.175 969.733 461.855 970.3 461.441 970.78C461.028 971.247 460.535 971.607 459.961 971.86C459.401 972.113 458.775 972.24 458.081 972.24ZM458.081 970.82C458.948 970.82 459.655 970.553 460.201 970.02C460.748 969.487 461.021 968.673 461.021 967.58V966.1C461.021 965.007 460.748 964.193 460.201 963.66C459.655 963.127 458.948 962.86 458.081 962.86C457.215 962.86 456.508 963.127 455.961 963.66C455.415 964.193 455.141 965.007 455.141 966.1V967.58C455.141 968.673 455.415 969.487 455.961 970.02C456.508 970.553 457.215 970.82 458.081 970.82ZM465.573 972V961.68H467.173V963.36H467.253C467.373 963.093 467.506 962.847 467.653 962.62C467.813 962.38 467.999 962.173 468.213 962C468.439 961.827 468.699 961.693 468.993 961.6C469.286 961.493 469.633 961.44 470.033 961.44C470.713 961.44 471.339 961.607 471.913 961.94C472.486 962.26 472.913 962.793 473.193 963.54H473.233C473.419 962.98 473.766 962.493 474.273 962.08C474.793 961.653 475.493 961.44 476.373 961.44C477.426 961.44 478.246 961.787 478.833 962.48C479.433 963.16 479.733 964.127 479.733 965.38V972H478.133V965.66C478.133 964.74 477.953 964.047 477.593 963.58C477.233 963.113 476.659 962.88 475.873 962.88C475.553 962.88 475.246 962.92 474.953 963C474.673 963.08 474.419 963.2 474.193 963.36C473.966 963.52 473.786 963.727 473.653 963.98C473.519 964.22 473.453 964.507 473.453 964.84V972H471.853V965.66C471.853 964.74 471.673 964.047 471.313 963.58C470.953 963.113 470.393 962.88 469.633 962.88C469.313 962.88 469.006 962.92 468.713 963C468.419 963.08 468.159 963.2 467.933 963.36C467.706 963.52 467.519 963.727 467.373 963.98C467.239 964.22 467.173 964.507 467.173 964.84V972H465.573ZM487.114 972.24C486.407 972.24 485.767 972.113 485.194 971.86C484.634 971.607 484.147 971.247 483.734 970.78C483.334 970.3 483.02 969.733 482.794 969.08C482.58 968.413 482.474 967.667 482.474 966.84C482.474 966.027 482.58 965.287 482.794 964.62C483.02 963.953 483.334 963.387 483.734 962.92C484.147 962.44 484.634 962.073 485.194 961.82C485.767 961.567 486.407 961.44 487.114 961.44C487.807 961.44 488.427 961.567 488.974 961.82C489.52 962.073 489.987 962.427 490.374 962.88C490.76 963.32 491.054 963.847 491.254 964.46C491.467 965.073 491.574 965.747 491.574 966.48V967.24H484.154V967.72C484.154 968.16 484.22 968.573 484.354 968.96C484.5 969.333 484.7 969.66 484.954 969.94C485.22 970.22 485.54 970.44 485.914 970.6C486.3 970.76 486.734 970.84 487.214 970.84C487.867 970.84 488.434 970.687 488.914 970.38C489.407 970.073 489.787 969.633 490.054 969.06L491.194 969.88C490.86 970.587 490.34 971.16 489.634 971.6C488.927 972.027 488.087 972.24 487.114 972.24ZM487.114 962.78C486.674 962.78 486.274 962.86 485.914 963.02C485.554 963.167 485.24 963.38 484.974 963.66C484.72 963.94 484.52 964.273 484.374 964.66C484.227 965.033 484.154 965.447 484.154 965.9V966.04H489.854V965.82C489.854 964.9 489.6 964.167 489.094 963.62C488.6 963.06 487.94 962.78 487.114 962.78ZM494.41 972V961.68H496.01V963.58H496.11C496.297 963.087 496.63 962.647 497.11 962.26C497.59 961.873 498.25 961.68 499.09 961.68H499.71V963.28H498.77C497.903 963.28 497.223 963.447 496.73 963.78C496.25 964.1 496.01 964.507 496.01 965V972H494.41ZM505.054 972.24C504.094 972.24 503.287 972.06 502.634 971.7C501.994 971.327 501.441 970.833 500.974 970.22L502.114 969.3C502.514 969.807 502.961 970.2 503.454 970.48C503.947 970.747 504.521 970.88 505.174 970.88C505.854 970.88 506.381 970.733 506.754 970.44C507.141 970.147 507.334 969.733 507.334 969.2C507.334 968.8 507.201 968.46 506.934 968.18C506.681 967.887 506.214 967.687 505.534 967.58L504.714 967.46C504.234 967.393 503.794 967.293 503.394 967.16C502.994 967.013 502.641 966.827 502.334 966.6C502.041 966.36 501.807 966.067 501.634 965.72C501.474 965.373 501.394 964.96 501.394 964.48C501.394 963.973 501.487 963.533 501.674 963.16C501.861 962.773 502.114 962.453 502.434 962.2C502.767 961.947 503.161 961.76 503.614 961.64C504.067 961.507 504.554 961.44 505.074 961.44C505.914 961.44 506.614 961.587 507.174 961.88C507.747 962.173 508.247 962.58 508.674 963.1L507.614 964.06C507.387 963.74 507.054 963.453 506.614 963.2C506.174 962.933 505.621 962.8 504.954 962.8C504.287 962.8 503.781 962.947 503.434 963.24C503.101 963.52 502.934 963.907 502.934 964.4C502.934 964.907 503.101 965.273 503.434 965.5C503.781 965.727 504.274 965.893 504.914 966L505.714 966.12C506.861 966.293 507.674 966.627 508.154 967.12C508.634 967.6 508.874 968.233 508.874 969.02C508.874 970.02 508.534 970.807 507.854 971.38C507.174 971.953 506.241 972.24 505.054 972.24Z" fill="black"/>
<path d="M521.95 946.443C521.706 947.52 520.634 948.195 519.557 947.95L502.004 943.966C500.927 943.721 500.252 942.65 500.496 941.573C500.741 940.496 501.812 939.821 502.889 940.065L518.492 943.607L522.034 928.004C522.279 926.927 523.35 926.252 524.427 926.496C525.504 926.741 526.179 927.812 525.935 928.889L521.95 946.443ZM332.692 644.934L521.692 944.934L518.308 947.066L329.308 647.066L332.692 644.934Z" fill="url(#paint6_linear)"/>
<circle cx="620" cy="166" r="130" fill="#FFC93A"/>
<circle cx="620" cy="166" r="130" fill="url(#paint7_linear)" fill-opacity="0.5" style="mix-blend-mode:soft-light"/>
<path d="M560.322 140.25C558.539 140.25 556.93 139.867 555.497 139.1C554.064 138.317 552.939 137.242 552.122 135.875C551.305 134.492 550.897 132.95 550.897 131.25C550.897 129.55 551.305 128.017 552.122 126.65C552.939 125.267 554.064 124.192 555.497 123.425C556.93 122.642 558.539 122.25 560.322 122.25C562.105 122.25 563.714 122.642 565.147 123.425C566.58 124.192 567.705 125.258 568.522 126.625C569.339 127.992 569.747 129.533 569.747 131.25C569.747 132.967 569.339 134.508 568.522 135.875C567.705 137.242 566.58 138.317 565.147 139.1C563.714 139.867 562.105 140.25 560.322 140.25ZM560.322 137.4C561.489 137.4 562.539 137.142 563.472 136.625C564.405 136.092 565.139 135.358 565.672 134.425C566.205 133.475 566.472 132.417 566.472 131.25C566.472 130.083 566.205 129.033 565.672 128.1C565.139 127.15 564.405 126.417 563.472 125.9C562.539 125.367 561.489 125.1 560.322 125.1C559.155 125.1 558.105 125.367 557.172 125.9C556.239 126.417 555.505 127.15 554.972 128.1C554.439 129.033 554.172 130.083 554.172 131.25C554.172 132.417 554.439 133.475 554.972 134.425C555.505 135.358 556.239 136.092 557.172 136.625C558.105 137.142 559.155 137.4 560.322 137.4ZM580.292 126.5C581.592 126.5 582.75 126.783 583.767 127.35C584.8 127.917 585.609 128.717 586.192 129.75C586.775 130.783 587.067 131.975 587.067 133.325C587.067 134.675 586.775 135.875 586.192 136.925C585.609 137.958 584.8 138.758 583.767 139.325C582.75 139.892 581.592 140.175 580.292 140.175C578.492 140.175 577.067 139.575 576.017 138.375V144.85H572.892V126.65H575.867V128.4C576.384 127.767 577.017 127.292 577.767 126.975C578.534 126.658 579.375 126.5 580.292 126.5ZM579.942 137.5C581.092 137.5 582.034 137.117 582.767 136.35C583.517 135.583 583.892 134.575 583.892 133.325C583.892 132.075 583.517 131.067 582.767 130.3C582.034 129.533 581.092 129.15 579.942 129.15C579.192 129.15 578.517 129.325 577.917 129.675C577.317 130.008 576.842 130.492 576.492 131.125C576.142 131.758 575.967 132.492 575.967 133.325C575.967 134.158 576.142 134.892 576.492 135.525C576.842 136.158 577.317 136.65 577.917 137C578.517 137.333 579.192 137.5 579.942 137.5ZM602.581 133.4C602.581 133.617 602.564 133.925 602.531 134.325H592.056C592.239 135.308 592.714 136.092 593.481 136.675C594.264 137.242 595.231 137.525 596.381 137.525C597.847 137.525 599.056 137.042 600.006 136.075L601.681 138C601.081 138.717 600.322 139.258 599.406 139.625C598.489 139.992 597.456 140.175 596.306 140.175C594.839 140.175 593.547 139.883 592.431 139.3C591.314 138.717 590.447 137.908 589.831 136.875C589.231 135.825 588.931 134.642 588.931 133.325C588.931 132.025 589.222 130.858 589.806 129.825C590.406 128.775 591.231 127.958 592.281 127.375C593.331 126.792 594.514 126.5 595.831 126.5C597.131 126.5 598.289 126.792 599.306 127.375C600.339 127.942 601.139 128.75 601.706 129.8C602.289 130.833 602.581 132.033 602.581 133.4ZM595.831 129C594.831 129 593.981 129.3 593.281 129.9C592.597 130.483 592.181 131.267 592.031 132.25H599.606C599.472 131.283 599.064 130.5 598.381 129.9C597.697 129.3 596.847 129 595.831 129ZM613.157 126.5C614.841 126.5 616.191 126.992 617.207 127.975C618.224 128.958 618.732 130.417 618.732 132.35V140H615.607V132.75C615.607 131.583 615.332 130.708 614.782 130.125C614.232 129.525 613.449 129.225 612.432 129.225C611.282 129.225 610.374 129.575 609.707 130.275C609.041 130.958 608.707 131.95 608.707 133.25V140H605.582V126.65H608.557V128.375C609.074 127.758 609.724 127.292 610.507 126.975C611.291 126.658 612.174 126.5 613.157 126.5ZM630.197 122.5C631.713 122.5 633.03 122.75 634.147 123.25C635.28 123.75 636.147 124.467 636.747 125.4C637.347 126.333 637.647 127.442 637.647 128.725C637.647 129.992 637.347 131.1 636.747 132.05C636.147 132.983 635.28 133.7 634.147 134.2C633.03 134.7 631.713 134.95 630.197 134.95H626.247V140H622.997V122.5H630.197ZM630.047 132.2C631.463 132.2 632.538 131.9 633.272 131.3C634.005 130.7 634.372 129.842 634.372 128.725C634.372 127.608 634.005 126.75 633.272 126.15C632.538 125.55 631.463 125.25 630.047 125.25H626.247V132.2H630.047ZM640.836 121.45H643.961V140H640.836V121.45ZM653.163 126.5C655.13 126.5 656.63 126.975 657.663 127.925C658.713 128.858 659.238 130.275 659.238 132.175V140H656.288V138.375C655.905 138.958 655.355 139.408 654.638 139.725C653.938 140.025 653.088 140.175 652.088 140.175C651.088 140.175 650.213 140.008 649.463 139.675C648.713 139.325 648.13 138.85 647.713 138.25C647.313 137.633 647.113 136.942 647.113 136.175C647.113 134.975 647.555 134.017 648.438 133.3C649.338 132.567 650.746 132.2 652.663 132.2H656.113V132C656.113 131.067 655.83 130.35 655.263 129.85C654.713 129.35 653.888 129.1 652.788 129.1C652.038 129.1 651.296 129.217 650.563 129.45C649.846 129.683 649.238 130.008 648.738 130.425L647.513 128.15C648.213 127.617 649.055 127.208 650.038 126.925C651.021 126.642 652.063 126.5 653.163 126.5ZM652.738 137.9C653.521 137.9 654.213 137.725 654.813 137.375C655.43 137.008 655.863 136.492 656.113 135.825V134.275H652.888C651.088 134.275 650.188 134.867 650.188 136.05C650.188 136.617 650.413 137.067 650.863 137.4C651.313 137.733 651.938 137.9 652.738 137.9ZM669.496 140.175C668.112 140.175 666.871 139.883 665.771 139.3C664.671 138.717 663.812 137.908 663.196 136.875C662.579 135.825 662.271 134.642 662.271 133.325C662.271 132.008 662.579 130.833 663.196 129.8C663.812 128.767 664.662 127.958 665.746 127.375C666.846 126.792 668.096 126.5 669.496 126.5C670.812 126.5 671.962 126.767 672.946 127.3C673.946 127.833 674.696 128.6 675.196 129.6L672.796 131C672.412 130.383 671.929 129.925 671.346 129.625C670.779 129.308 670.154 129.15 669.471 129.15C668.304 129.15 667.337 129.533 666.571 130.3C665.804 131.05 665.421 132.058 665.421 133.325C665.421 134.592 665.796 135.608 666.546 136.375C667.312 137.125 668.287 137.5 669.471 137.5C670.154 137.5 670.779 137.35 671.346 137.05C671.929 136.733 672.412 136.267 672.796 135.65L675.196 137.05C674.679 138.05 673.921 138.825 672.921 139.375C671.937 139.908 670.796 140.175 669.496 140.175ZM690.252 133.4C690.252 133.617 690.235 133.925 690.202 134.325H679.727C679.91 135.308 680.385 136.092 681.152 136.675C681.935 137.242 682.902 137.525 684.052 137.525C685.518 137.525 686.727 137.042 687.677 136.075L689.352 138C688.752 138.717 687.993 139.258 687.077 139.625C686.16 139.992 685.127 140.175 683.977 140.175C682.51 140.175 681.218 139.883 680.102 139.3C678.985 138.717 678.118 137.908 677.502 136.875C676.902 135.825 676.602 134.642 676.602 133.325C676.602 132.025 676.893 130.858 677.477 129.825C678.077 128.775 678.902 127.958 679.952 127.375C681.002 126.792 682.185 126.5 683.502 126.5C684.802 126.5 685.96 126.792 686.977 127.375C688.01 127.942 688.81 128.75 689.377 129.8C689.96 130.833 690.252 132.033 690.252 133.4ZM683.502 129C682.502 129 681.652 129.3 680.952 129.9C680.268 130.483 679.852 131.267 679.702 132.25H687.277C687.143 131.283 686.735 130.5 686.052 129.9C685.368 129.3 684.518 129 683.502 129ZM581.175 175L577.6 169.875C577.45 169.892 577.225 169.9 576.925 169.9H572.975V175H569.725V157.5H576.925C578.442 157.5 579.759 157.75 580.875 158.25C582.009 158.75 582.875 159.467 583.475 160.4C584.075 161.333 584.375 162.442 584.375 163.725C584.375 165.042 584.05 166.175 583.4 167.125C582.767 168.075 581.85 168.783 580.65 169.25L584.675 175H581.175ZM581.1 163.725C581.1 162.608 580.734 161.75 580 161.15C579.267 160.55 578.192 160.25 576.775 160.25H572.975V167.225H576.775C578.192 167.225 579.267 166.925 580 166.325C580.734 165.708 581.1 164.842 581.1 163.725ZM600.261 168.4C600.261 168.617 600.245 168.925 600.211 169.325H589.736C589.92 170.308 590.395 171.092 591.161 171.675C591.945 172.242 592.911 172.525 594.061 172.525C595.528 172.525 596.736 172.042 597.686 171.075L599.361 173C598.761 173.717 598.003 174.258 597.086 174.625C596.17 174.992 595.136 175.175 593.986 175.175C592.52 175.175 591.228 174.883 590.111 174.3C588.995 173.717 588.128 172.908 587.511 171.875C586.911 170.825 586.611 169.642 586.611 168.325C586.611 167.025 586.903 165.858 587.486 164.825C588.086 163.775 588.911 162.958 589.961 162.375C591.011 161.792 592.195 161.5 593.511 161.5C594.811 161.5 595.97 161.792 596.986 162.375C598.02 162.942 598.82 163.75 599.386 164.8C599.97 165.833 600.261 167.033 600.261 168.4ZM593.511 164C592.511 164 591.661 164.3 590.961 164.9C590.278 165.483 589.861 166.267 589.711 167.25H597.286C597.153 166.283 596.745 165.5 596.061 164.9C595.378 164.3 594.528 164 593.511 164ZM615.519 161.65L609.794 175H606.569L600.844 161.65H604.094L608.244 171.55L612.519 161.65H615.519ZM617.472 161.65H620.597V175H617.472V161.65ZM619.047 159.45C618.48 159.45 618.005 159.275 617.622 158.925C617.239 158.558 617.047 158.108 617.047 157.575C617.047 157.042 617.239 156.6 617.622 156.25C618.005 155.883 618.48 155.7 619.047 155.7C619.614 155.7 620.089 155.875 620.472 156.225C620.855 156.558 621.047 156.983 621.047 157.5C621.047 158.05 620.855 158.517 620.472 158.9C620.105 159.267 619.63 159.45 619.047 159.45ZM637.249 168.4C637.249 168.617 637.232 168.925 637.199 169.325H626.724C626.907 170.308 627.382 171.092 628.149 171.675C628.932 172.242 629.899 172.525 631.049 172.525C632.515 172.525 633.724 172.042 634.674 171.075L636.349 173C635.749 173.717 634.99 174.258 634.074 174.625C633.157 174.992 632.124 175.175 630.974 175.175C629.507 175.175 628.215 174.883 627.099 174.3C625.982 173.717 625.115 172.908 624.499 171.875C623.899 170.825 623.599 169.642 623.599 168.325C623.599 167.025 623.89 165.858 624.474 164.825C625.074 163.775 625.899 162.958 626.949 162.375C627.999 161.792 629.182 161.5 630.499 161.5C631.799 161.5 632.957 161.792 633.974 162.375C635.007 162.942 635.807 163.75 636.374 164.8C636.957 165.833 637.249 167.033 637.249 168.4ZM630.499 164C629.499 164 628.649 164.3 627.949 164.9C627.265 165.483 626.849 166.267 626.699 167.25H634.274C634.14 166.283 633.732 165.5 633.049 164.9C632.365 164.3 631.515 164 630.499 164ZM660.831 161.65L655.906 175H652.906L649.456 165.8L645.956 175H642.956L638.056 161.65H641.006L644.531 171.5L648.206 161.65H650.831L654.431 171.55L658.056 161.65H660.831ZM666.934 175.175C665.851 175.175 664.792 175.033 663.759 174.75C662.726 174.467 661.901 174.108 661.284 173.675L662.484 171.3C663.084 171.7 663.801 172.025 664.634 172.275C665.484 172.508 666.317 172.625 667.134 172.625C669.001 172.625 669.934 172.133 669.934 171.15C669.934 170.683 669.692 170.358 669.209 170.175C668.742 169.992 667.984 169.817 666.934 169.65C665.834 169.483 664.934 169.292 664.234 169.075C663.551 168.858 662.951 168.483 662.434 167.95C661.934 167.4 661.684 166.642 661.684 165.675C661.684 164.408 662.209 163.4 663.259 162.65C664.326 161.883 665.759 161.5 667.559 161.5C668.476 161.5 669.392 161.608 670.309 161.825C671.226 162.025 671.976 162.3 672.559 162.65L671.359 165.025C670.226 164.358 668.951 164.025 667.534 164.025C666.617 164.025 665.917 164.167 665.434 164.45C664.967 164.717 664.734 165.075 664.734 165.525C664.734 166.025 664.984 166.383 665.484 166.6C666.001 166.8 666.792 166.992 667.859 167.175C668.926 167.342 669.801 167.533 670.484 167.75C671.167 167.967 671.751 168.333 672.234 168.85C672.734 169.367 672.984 170.1 672.984 171.05C672.984 172.3 672.442 173.3 671.359 174.05C670.276 174.8 668.801 175.175 666.934 175.175ZM573.556 192.5C575.073 192.5 576.389 192.75 577.506 193.25C578.639 193.75 579.506 194.467 580.106 195.4C580.706 196.333 581.006 197.442 581.006 198.725C581.006 199.992 580.706 201.1 580.106 202.05C579.506 202.983 578.639 203.7 577.506 204.2C576.389 204.7 575.073 204.95 573.556 204.95H569.606V210H566.356V192.5H573.556ZM573.406 202.2C574.823 202.2 575.898 201.9 576.631 201.3C577.364 200.7 577.731 199.842 577.731 198.725C577.731 197.608 577.364 196.75 576.631 196.15C575.898 195.55 574.823 195.25 573.406 195.25H569.606V202.2H573.406ZM584.196 191.45H587.321V210H584.196V191.45ZM596.522 196.5C598.489 196.5 599.989 196.975 601.022 197.925C602.072 198.858 602.597 200.275 602.597 202.175V210H599.647V208.375C599.264 208.958 598.714 209.408 597.997 209.725C597.297 210.025 596.447 210.175 595.447 210.175C594.447 210.175 593.572 210.008 592.822 209.675C592.072 209.325 591.489 208.85 591.072 208.25C590.672 207.633 590.472 206.942 590.472 206.175C590.472 204.975 590.914 204.017 591.797 203.3C592.697 202.567 594.106 202.2 596.022 202.2H599.472V202C599.472 201.067 599.189 200.35 598.622 199.85C598.072 199.35 597.247 199.1 596.147 199.1C595.397 199.1 594.656 199.217 593.922 199.45C593.206 199.683 592.597 200.008 592.097 200.425L590.872 198.15C591.572 197.617 592.414 197.208 593.397 196.925C594.381 196.642 595.422 196.5 596.522 196.5ZM596.097 207.9C596.881 207.9 597.572 207.725 598.172 207.375C598.789 207.008 599.222 206.492 599.472 205.825V204.275H596.247C594.447 204.275 593.547 204.867 593.547 206.05C593.547 206.617 593.772 207.067 594.222 207.4C594.672 207.733 595.297 207.9 596.097 207.9ZM614.633 209.275C614.266 209.575 613.816 209.8 613.283 209.95C612.766 210.1 612.216 210.175 611.633 210.175C610.166 210.175 609.033 209.792 608.233 209.025C607.433 208.258 607.033 207.142 607.033 205.675V199.25H604.833V196.75H607.033V193.7H610.158V196.75H613.733V199.25H610.158V205.6C610.158 206.25 610.316 206.75 610.633 207.1C610.95 207.433 611.408 207.6 612.008 207.6C612.708 207.6 613.291 207.417 613.758 207.05L614.633 209.275ZM622.629 193.8C621.312 193.8 620.654 194.517 620.654 195.95V196.75H624.329V199.25H620.754V210H617.629V199.25H615.429V196.75H617.629V195.9C617.629 194.467 618.045 193.342 618.879 192.525C619.712 191.692 620.887 191.275 622.404 191.275C623.604 191.275 624.545 191.517 625.229 192L624.354 194.35C623.82 193.983 623.245 193.8 622.629 193.8ZM632.237 210.175C630.887 210.175 629.67 209.883 628.587 209.3C627.503 208.717 626.653 207.908 626.037 206.875C625.437 205.825 625.137 204.642 625.137 203.325C625.137 202.008 625.437 200.833 626.037 199.8C626.653 198.767 627.503 197.958 628.587 197.375C629.67 196.792 630.887 196.5 632.237 196.5C633.603 196.5 634.828 196.792 635.912 197.375C636.995 197.958 637.837 198.767 638.437 199.8C639.053 200.833 639.362 202.008 639.362 203.325C639.362 204.642 639.053 205.825 638.437 206.875C637.837 207.908 636.995 208.717 635.912 209.3C634.828 209.883 633.603 210.175 632.237 210.175ZM632.237 207.5C633.387 207.5 634.337 207.117 635.087 206.35C635.837 205.583 636.212 204.575 636.212 203.325C636.212 202.075 635.837 201.067 635.087 200.3C634.337 199.533 633.387 199.15 632.237 199.15C631.087 199.15 630.137 199.533 629.387 200.3C628.653 201.067 628.287 202.075 628.287 203.325C628.287 204.575 628.653 205.583 629.387 206.35C630.137 207.117 631.087 207.5 632.237 207.5ZM645.325 198.6C646.225 197.2 647.808 196.5 650.075 196.5V199.475C649.808 199.425 649.567 199.4 649.35 199.4C648.133 199.4 647.183 199.758 646.5 200.475C645.817 201.175 645.475 202.192 645.475 203.525V210H642.35V196.65H645.325V198.6ZM669.576 196.5C671.259 196.5 672.593 196.992 673.576 197.975C674.559 198.942 675.051 200.4 675.051 202.35V210H671.926V202.75C671.926 201.583 671.668 200.708 671.151 200.125C670.634 199.525 669.893 199.225 668.926 199.225C667.876 199.225 667.034 199.575 666.401 200.275C665.768 200.958 665.451 201.942 665.451 203.225V210H662.326V202.75C662.326 201.583 662.068 200.708 661.551 200.125C661.034 199.525 660.293 199.225 659.326 199.225C658.259 199.225 657.409 199.567 656.776 200.25C656.159 200.933 655.851 201.925 655.851 203.225V210H652.726V196.65H655.701V198.35C656.201 197.75 656.826 197.292 657.576 196.975C658.326 196.658 659.159 196.5 660.076 196.5C661.076 196.5 661.959 196.692 662.726 197.075C663.509 197.442 664.126 197.992 664.576 198.725C665.126 198.025 665.834 197.483 666.701 197.1C667.568 196.7 668.526 196.5 669.576 196.5Z" fill="black"/>
<defs>
<linearGradient id="paint0_linear" x1="256" y1="408" x2="256" y2="638" gradientUnits="userSpaceOnUse">
<stop stop-color="white"/>
<stop offset="1" stop-color="white" stop-opacity="0"/>
</linearGradient>
<linearGradient id="paint1_linear" x1="859" y1="627.001" x2="400" y2="627.001" gradientUnits="userSpaceOnUse">
<stop stop-color="#21B0CF"/>
<stop offset="1" stop-color="#89CD2F"/>
</linearGradient>
<linearGradient id="paint2_linear" x1="404.163" y1="445.933" x2="852.779" y2="448.257" gradientUnits="userSpaceOnUse">
<stop stop-color="#FFC93A"/>
<stop offset="1" stop-color="#1DAFCE"/>
</linearGradient>
<linearGradient id="paint3_linear" x1="984.993" y1="457" x2="984.993" y2="687" gradientUnits="userSpaceOnUse">
<stop stop-color="white"/>
<stop offset="1" stop-color="white" stop-opacity="0"/>
</linearGradient>
<linearGradient id="paint4_linear" x1="718" y1="946" x2="907.12" y2="679.966" gradientUnits="userSpaceOnUse">
<stop stop-color="#356EE1"/>
<stop offset="1" stop-color="#23B1CF"/>
</linearGradient>
<linearGradient id="paint5_linear" x1="620" y1="930" x2="620" y2="1160" gradientUnits="userSpaceOnUse">
<stop stop-color="white"/>
<stop offset="1" stop-color="white" stop-opacity="0"/>
</linearGradient>
<linearGradient id="paint6_linear" x1="516" y1="946" x2="331" y2="651" gradientUnits="userSpaceOnUse">
<stop stop-color="#3C74E2"/>
<stop offset="1" stop-color="#89CD2F"/>
</linearGradient>
<linearGradient id="paint7_linear" x1="620" y1="36" x2="620" y2="296" gradientUnits="userSpaceOnUse">
<stop stop-color="white"/>
<stop offset="1" stop-color="white" stop-opacity="0"/>
</linearGradient>
</defs>
</svg>
