<svg width="20" height="20" viewBox="0 0 20 20" fill="none" xmlns="http://www.w3.org/2000/svg">
    <path class="fill" fill-rule="evenodd" clip-rule="evenodd" d="M2 11C1.44772 11 1 11.4477 1 12V18C1 18.5523 1.44772 19 2 19H18C18.5523 19 19 18.5523 19 18V12C19 11.4477 18.5523 11 18 11H2ZM5 16C5.55228 16 6 15.5523 6 15C6 14.4477 5.55228 14 5 14C4.44772 14 4 14.4477 4 15C4 15.5523 4.44772 16 5 16Z" fill="#2D69E0"/>
    <path class="fill" fill-rule="evenodd" clip-rule="evenodd" d="M2 1C1.44772 1 1 1.44772 1 2V8C1 8.55228 1.44772 9 2 9H18C18.5523 9 19 8.55228 19 8V2C19 1.44772 18.5523 1 18 1H2ZM5 6C5.55228 6 6 5.55228 6 5C6 4.44772 5.55228 4 5 4C4.44772 4 4 4.44772 4 5C4 5.55228 4.44772 6 5 6Z" fill="#2D69E0"/>
</svg>