<svg width="20" height="20" viewBox="0 0 20 20" fill="none" xmlns="http://www.w3.org/2000/svg">
<path fill-rule="evenodd" clip-rule="evenodd" d="M3 6C2.44772 6 2 6.44772 2 7V13C2 13.5523 2.44772 14 3 14H17C17.5523 14 18 13.5523 18 13V7C18 6.44772 17.5523 6 17 6H3ZM5 9C4.44772 9 4 9.44772 4 10C4 10.5523 4.44772 11 5 11H6C6.55228 11 7 10.5523 7 10C7 9.44772 6.55228 9 6 9H5Z" fill="#ACB2BF"/>
<path opacity="0.2" fill-rule="evenodd" clip-rule="evenodd" d="M2.5 2H4C4 2.55228 4.44772 3 5 3H6C6.55228 3 7 2.55228 7 2H17.5C17.7761 2 18 2.22386 18 2.5V3.5C18 3.77614 17.7761 4 17.5 4H2.5C2.22386 4 2 3.77614 2 3.5V2.5C2 2.22386 2.22386 2 2.5 2ZM2 16.5C2 16.2239 2.22386 16 2.5 16H17.5C17.7761 16 18 16.2239 18 16.5V17.5C18 17.7761 17.7761 18 17.5 18H7C7 17.4477 6.55228 17 6 17H5C4.44772 17 4 17.4477 4 18H2.5C2.22386 18 2 17.7761 2 17.5V16.5Z" fill="#ACB2BF"/>
</svg>
