<svg width="20" height="20" viewBox="0 0 20 20" fill="none" xmlns="http://www.w3.org/2000/svg">
<g opacity="0.8">
<path d="M9 2C9 1.44772 9.44772 1 10 1C10.5523 1 11 1.44772 11 2V3H9V2Z" fill="#ACB2BF"/>
<path d="M4 6C4 5.44772 4.44772 5 5 5V8C4.44772 8 4 7.55228 4 7V6Z" fill="#ACB2BF"/>
<path d="M16 6C16 5.44772 15.5523 5 15 5V8C15.5523 8 16 7.55228 16 7V6Z" fill="#ACB2BF"/>
</g>
<path fill-rule="evenodd" clip-rule="evenodd" d="M5 3H15V8C15 9.65685 13.6569 11 12 11H8C6.34315 11 5 9.65685 5 8V3ZM8 7C8.55228 7 9 6.55228 9 6C9 5.44772 8.55228 5 8 5C7.44772 5 7 5.44772 7 6C7 6.55228 7.44772 7 8 7ZM12 7C12.5523 7 13 6.55228 13 6C13 5.44772 12.5523 5 12 5C11.4477 5 11 5.44772 11 6C11 6.55228 11.4477 7 12 7Z" fill="#ACB2BF"/>
<path d="M18 18H2C2 15.2386 4.23858 13 7 13H13C15.7614 13 18 15.2386 18 18Z" fill="#ACB2BF"/>
</svg>
