<svg width="20" height="20" viewBox="0 0 20 20" fill="none" xmlns="http://www.w3.org/2000/svg">
<path fill-rule="evenodd" clip-rule="evenodd" d="M5 8C4.44772 8 4 8.44772 4 9V17C4 17.5523 4.44772 18 5 18H15C15.5523 18 16 17.5523 16 17V9C16 8.44772 15.5523 8 15 8H5ZM13 11.5C13 12.3284 12.3284 13 11.5 13C10.6716 13 10 12.3284 10 11.5C10 10.6716 10.6716 10 11.5 10C12.3284 10 13 10.6716 13 11.5ZM11.5 14C9.365 14 8 15 8 16V17H15V16C15 15 13.635 14 11.5 14Z" fill="#ACB2BF"/>
<path opacity="0.8" fill-rule="evenodd" clip-rule="evenodd" d="M10 4C8.89543 4 8 4.89543 8 6V8H6V6C6 3.79086 7.79086 2 10 2C12.2091 2 14 3.79086 14 6V8H12V6C12 4.89543 11.1046 4 10 4Z" fill="#ACB2BF"/>
<g opacity="0.2">
<path d="M11.5 13C12.3284 13 13 12.3284 13 11.5C13 10.6716 12.3284 10 11.5 10C10.6716 10 10 10.6716 10 11.5C10 12.3284 10.6716 13 11.5 13Z" fill="#ACB2BF"/>
<path d="M8 16C8 15 9.365 14 11.5 14C13.635 14 15 15 15 16V17H8V16Z" fill="#ACB2BF"/>
</g>
</svg>
