<svg width="20" height="20" viewBox="0 0 20 20" fill="none" xmlns="http://www.w3.org/2000/svg">
<path fill-rule="evenodd" clip-rule="evenodd" d="M16 4C16 2.89543 15.1046 2 14 2H6C4.89543 2 4 2.89543 4 4V16C4 17.1046 4.89543 18 6 18H14C15.1046 18 16 17.1046 16 16V15C16 14.4477 15.5523 14 15 14C14.4477 14 14 14.4477 14 15V16H6V4H14V5.5C14 6.05228 14.4477 6.5 15 6.5C15.5523 6.5 16 6.05228 16 5.5V4Z" fill="#ACB2BF"/>
<path opacity="0.8" fill-rule="evenodd" clip-rule="evenodd" d="M13.7071 6.29289C13.3166 5.90237 12.6834 5.90237 12.2929 6.29289C11.9024 6.68342 11.9024 7.31658 12.2929 7.70711L13.5858 9H8C7.44772 9 7 9.44772 7 10C7 10.5523 7.44772 11 8 11L13.5858 11L12.2929 12.2929C11.9024 12.6834 11.9024 13.3166 12.2929 13.7071C12.6834 14.0976 13.3166 14.0976 13.7071 13.7071L16.7071 10.7071C17.0976 10.3166 17.0976 9.68342 16.7071 9.29289L13.7071 6.29289Z" fill="#ACB2BF"/>
</svg>
