<svg width="20" height="20" viewBox="0 0 20 20" fill="none" xmlns="http://www.w3.org/2000/svg">
<path fill-rule="evenodd" clip-rule="evenodd" d="M4 4C4 2.89543 4.89543 2 6 2H14C15.1046 2 16 2.89543 16 4V16C16 17.1046 15.1046 18 14 18H6C4.89543 18 4 17.1046 4 16V14C4 13.4477 4.44772 13 5 13C5.55228 13 6 13.4477 6 14V16H14V4H6V6C6 6.55228 5.55228 7 5 7C4.44772 7 4 6.55228 4 6V4Z" fill="#ACB2BF"/>
<path opacity="0.7" fill-rule="evenodd" clip-rule="evenodd" d="M9.70711 6.29289C9.31658 5.90237 8.68342 5.90237 8.29289 6.29289C7.90237 6.68342 7.90237 7.31658 8.29289 7.70711L9.58579 9H4C3.44772 9 3 9.44772 3 10C3 10.5523 3.44772 11 4 11L9.58579 11L8.29289 12.2929C7.90237 12.6834 7.90237 13.3166 8.29289 13.7071C8.68342 14.0976 9.31658 14.0976 9.70711 13.7071L12.7071 10.7071C13.0976 10.3166 13.0976 9.68342 12.7071 9.29289L9.70711 6.29289Z" fill="#ACB2BF"/>
</svg>
