<svg width="20" height="20" viewBox="0 0 20 20" fill="none" xmlns="http://www.w3.org/2000/svg">
<rect opacity="0.2" x="2" y="2" width="16" height="16" rx="2" fill="#ACB2BF"/>
<path fill-rule="evenodd" clip-rule="evenodd" d="M8.70711 5.29289C8.31658 4.90237 7.68342 4.90237 7.29289 5.29289L6 6.58579L5.70711 6.29289C5.31658 5.90237 4.68342 5.90237 4.29289 6.29289C3.90237 6.68342 3.90237 7.31658 4.29289 7.70711L5.29289 8.70711C5.68342 9.09763 6.31658 9.09763 6.70711 8.70711L8.70711 6.70711C9.09763 6.31658 9.09763 5.68342 8.70711 5.29289ZM11 6C10.4477 6 10 6.44772 10 7C10 7.55228 10.4477 8 11 8H15C15.5523 8 16 7.55228 16 7C16 6.44772 15.5523 6 15 6H11Z" fill="#ACB2BF"/>
<path opacity="0.8" fill-rule="evenodd" clip-rule="evenodd" d="M8.70711 12.2929C8.31658 11.9024 7.68342 11.9024 7.29289 12.2929L6 13.5858L5.70711 13.2929C5.31658 12.9024 4.68342 12.9024 4.29289 13.2929C3.90237 13.6834 3.90237 14.3166 4.29289 14.7071L5.29289 15.7071C5.68342 16.0976 6.31658 16.0976 6.70711 15.7071L8.70711 13.7071C9.09763 13.3166 9.09763 12.6834 8.70711 12.2929ZM11 13C10.4477 13 10 13.4477 10 14C10 14.5523 10.4477 15 11 15H15C15.5523 15 16 14.5523 16 14C16 13.4477 15.5523 13 15 13H11Z" fill="#ACB2BF"/>
</svg>
